<?xml version="1.0" encoding="UTF-8"?>
<svg width="1024pt" height="768pt" version="1.1" viewBox="0 0 1024 768" xmlns="http://www.w3.org/2000/svg" xmlns:cc="http://creativecommons.org/ns#" xmlns:dc="http://purl.org/dc/elements/1.1/" xmlns:rdf="http://www.w3.org/1999/02/22-rdf-syntax-ns#">
 <metadata>
  <rdf:RDF>
   <cc:Work rdf:about="">
    <dc:format>image/svg+xml</dc:format>
    <dc:type rdf:resource="http://purl.org/dc/dcmitype/StillImage"/>
    <dc:title/>
   </cc:Work>
  </rdf:RDF>
 </metadata>
 <path d="m0 0h1024v768h-1024v-768z" fill="#fff"/>
 <path d="m807.34 37.17c3.83-0.95 8.54 2.06 12.15 3.24 5.67 1.81 11.59 4.23 17.56 4.65 4.54 0.31 7.34-3.03 11.89-3.09 4.81-0.17 10.15-0.42 14.66 1.42 9.6 3.73 19.06 8.02 28.82 11.29 3.3 1.51 6.05 4.76 8.76 7.15 6.73 6.11 10.4 13.47 14.95 21.07 6.08 7.88 11.04 16.41 15.86 25.1 2.31 4.1 3.86 8.68 6.42 12.63 4.1 5.17 8.85 9.91 14.18 13.83 7.3 5.69 13.22 12.66 20.09 18.81 2.54 2.01 4.98 3.69 6.35 6.77 2.75 4.5 1.9 8.93 2.01 13.96-0.23 7.76 0.45 15.76-0.58 23.43-0.8 5.97-0.07 11.91-1.06 17.88-0.97 9.27-5 17.6-6.24 26.83-1.14 7.98-4.12 14.85-6.5 22.5-3.63 11.81-10.79 22.45-16.83 33.24-3.55 4.58-6.15 9.69-9.63 14.29-2.05 2.89-3.01 6.22-4.93 9.11-1.86 2.82-4.06 5.13-6.23 7.76-3.12 3.55-5.32 8.08-7.9 12.12-2.48 3.82-4.54 7.83-5.67 12.26-3.03 12.94-4.84 26.09-5.84 39.33-2.46 12.31-2.39 24.68-3.91 37.09-1.24 8.54-0.53 17.43-0.74 26.16-0.34 12.49 3.22 23.95 6.25 35.79 2.02 7.33 2.77 14.89 4.78 22.21 5.07 18.4 3.69 36.49 6.78 56.15 0.55 12.93 0 25.93 0.28 38.88 0.21 4.81-0.71 9.43-3.8 13.24-2.51 2.84-5.15 5.73-9.24 5.72-5.56 0.22-11.51 0.35-16.93-0.98-3.22-0.77-6.75-1.05-9.66-2.52-5.43-2.8-11.26-4.84-16.99-6.95-6.9-2.61-13.01-0.93-20.17-1.88-7.99-1.29-15.48 0.42-23.23-2.62-2.19 2.29-4.43 6.25-8.02 5.96-7.89 0.37-17.31 0.12-24.5-3.53-4.39-3.81-6.86-8.56-9.52-13.55-2.68-4.96-8.17-7.48-10.97-12.07 0.1-5.23 2.9-9.21 3.91-13.96 0.38-1.99-0.56-3.56-1.92-4.92-6.21-5.6-12.88-11.45-17.72-18.32-1.62-2.28-3.73-4.3-5.11-6.74-1.3-2.88-1.86-6.03-3.25-8.89-3.35-6.85-5.42-14.41-6.08-22-0.23-3.9-3.1-7.54-4.67-11.13-2.41-5.64-4.82-11.69-8.16-16.88-2.95-4.83-4.68-10.08-6.9-15.24-2.73-5.28-5.76-10.37-7.99-15.91-2.73-6.87-6.72-12.36-8.39-19.64-1.99-8.23-4.35-16.73-4.83-25.2-0.35-5.64-2.09-10.73-3.91-16.01-1.28-3.63-0.76-7.07-1.42-10.77-0.62-2.52-1.81-4.89-2.31-7.46-0.68-4.07 0.15-8.43-0.71-12.45-1.01-3.39-2.98-6.39-4-9.8-1.81-5.66-1.48-10.96-2.26-16.8-0.68-5.8 0.26-11.44-1.18-16.87-2.23-9.04-4.37-18.42-8-27-1.61-3.85-2.9-7.81-4.33-11.72-2.09-5.79-5.97-10.46-7.6-16.45-2.4-6.25-3.16-12.88-5.83-19.02-1.94-4.57-0.74-8.61-3.56-12.49-4.19-5.85-8.35-11.18-10.93-18.05-2.73-7.37-5.9-14.55-9.51-21.53-2.41-4.57-3.09-9.62-5.99-13.99-2.34-3.34-1.94-7.34-4.81-10.22-3.73-4.35-5.84-10.55-8.46-15.61-4.51-7.37-9.97-14.21-14.09-21.81-2.37-4.23-2.8-8.58-3.84-13.22-0.8-4.01-2.13-7.56-2.2-11.7-0.25-9.01 0.54-17.53-0.55-26.53-0.59-3.12 1.4-5.65 2.83-8.25 1.56-2.77 4.08-4.48 6-6.91 1.21-2.81 0.68-6.74 3.88-8.18 3.81-2.14 6.88-5.12 10.37-7.67 3.28-0.87 6.95-0.41 10.33-0.81 4.05-0.47 8.07-0.82 12.15-0.74 8.68 0.09 17.36-0.01 26.04 0.02 9.69 0.1 17.66 3.51 27.12 4.83 5.44 0.71 10.33 2.13 15.8 2.17 11.37 0.21 22.71 2.17 34.08 2.09 5.04 0.11 9.57-1.36 14.34-2.77 3.96-1.19 6.79-4.05 10.76-5.16 4.59-1.38 9.21-0.75 13.73-2.29 3.31-1.05 6.65-1.79 10.15-1.81 1.69-0.18 3.79 0.08 5.33-0.69 3.63-2.66 7.04-6.02 10.99-8.18z" fill="#060606"/>
 <g fill="#fff">
  <path d="m810.92 44.47c9.67 2.35 19.8 7.46 30.14 6.58 4.01-0.2 6.79-3.05 10.91-3.13 4.44-0.39 8.47 0.86 12.47 2.61 5.93 2.5 11.94 4.54 17.65 7.54-1.57 2.93-3.11 6.16-5.33 8.65-0.86 0.98-1.86 1.31-3.13 1.36-14.59 0.79-29.07 2.59-43.62 3.81-3.63 0.2-7.31-0.1-10.92 0.28-4.36 0.59-7.84 3.37-12.11 3.71-7.51 0.64-15.01 1.47-22.52 2.18-1.13-7.74-4.85-14.62-5.62-22.49 2.87-0.54 5.58-1.26 8.26-2.42 4.06-1.82 8.29-0.74 12.61-1.4 3.3-2.08 7.09-6.63 11.21-7.28z"/>
  <path d="m640.16 54.92c-1.86 5.66-4.3 11.1-6.12 16.78-1.88 5.53-4.97 9.66-5.71 15.56-0.56 5.14-1.19 10.17-3.03 15.04-1.46 3.78-1.37 7.59-1.45 11.57-7.29-1.26-14.85-1.18-22.18-0.29-0.97-3.47-1.8-6.9-1.71-10.54 0.07-8.62-0.01-17.24 0.11-25.85 2.99-1.96 6.48-3.55 9.09-6 1.16-1.8 0.82-4.8 1.16-6.92 3.15-2.14 6.07-4.51 9.01-6.91 1.74-1.62 4.44-1.21 6.65-1.41 4.76-0.03 9.43-0.84 14.18-1.03z"/>
  <path d="m645.44 55.33c5.44-0.74 11.1-0.22 16.59-0.34 10.38-0.07 19.06 3.53 29.15 4.85 4.7 0.62 8.98 2.21 13.78 2.16 6.75-0.03 13.37 1.2 20.13 1.18-0.38 3.44-1.2 7.08-0.71 10.47 0.41 3.06 0.98 6.09 1.46 9.14-10.82-1.68-21.65-3-32.38-5.27-3.76-0.82-7.56-1.31-11.39-1.69-4.78-0.48-9.08-2.5-13.85-3.12-4.76-0.89-9.46-0.67-14.27-0.73-5.21-0.01-9.66-1.51-14.89-2.3 1.52-4.96 3.49-10.03 6.38-14.35z"/>
  <path d="m775.63 54.76c0.42 5.03 1.37 9.77 3.13 14.51 1.3 3.5 2.2 6.97 2.25 10.73 0.26 7.49 2.52 14.58 5.6 21.36 1.43 3.16 1.44 6.36 1.65 9.75-12.62-1.33-25.68-1.79-38.31-0.29-6.28 0.3-12.47-0.02-18.69 1.22-0.19-4.01-0.63-7.89-1.44-11.83-1.8-8.17 0.2-16.19-1.69-24.38-0.99-3.98-0.49-7.77 0-11.77 7.18-0.31 14.49 0.44 21.61-0.42 6.51-1.59 12.84-1.82 18.06-5.83 2.38-1.77 5.03-2.28 7.83-3.05z"/>
  <path d="m886.32 59.24c2.61 1.21 4.87 3.45 7.24 5.14 7.62 4.76 12.52 13.75 16.68 21.4 4.71 6.12 8.99 12.44 12.65 19.26 1.03 1.67 0.11 3.7-0.35 5.42-1.86 5.33-4.27 10.48-6.63 15.6-7.37-1.78-14.82-2.76-22.11-4.92-5.12-1.58-10.29-2.3-15.13-4.75-4.86-2.46-9.67-0.46-14.72-2.43-3.63-1.47-7.02-2.05-10.92-2.22 2.93-6.5 7.41-11.98 10.23-18.52 2.99-5.56 6.57-10.8 9.63-16.35 1.73-3.31 5.58-4.53 7.13-7.79 1.84-3.59 3.32-6.99 6.3-9.84z"/>
  <path d="m871.93 72c-4.54 8.11-9.92 15.67-13.9 24.07-3.18 5.3-6.5 10.82-10.59 15.45-3.96 0.96-8.38 0.37-12.44 0.49-9.37-0.24-18.96 0.56-28.24-0.68-4.45-0.57-8.98-0.01-13.4-0.62-2.18-1.56-2.01-4.21-2.56-6.59-0.42-2.89-1.55-5.49-2.68-8.15-2.04-4.81-2.98-9.67-4.18-14.72 7.7-0.69 15.38-1.57 23.08-2.22 2.3-0.17 4.38-0.66 6.53-1.48 4.63-1.8 9.48-2.44 14.43-2.54 14.68-0.46 29.32-3.59 43.95-3.01z"/>
  <path d="m638.54 73.32c2.17-0.73 5.02 0.44 7.21 0.86 4.81 1.27 9.22 0.59 14.11 1.04 7.79 0.79 15.17 3.15 22.96 4.01 14.4 2.1 28.67 5.26 43.12 7.04 0.05 5.16-0.2 10.05 0.73 15.1 1.11 5.55 1.15 10.99 3.37 16.28-6.27-2.17-12.38-4.56-18.92-5.82-6.27-1.23-12.05-3.63-17.94-6.03-8.45-3.12-16.42-7.76-25.05-9.93-5.78-1.47-10.87-4.38-16.85-5.22-6.52-1.18-12.27-3.21-17.44-7.48 1.43-3.26 2.72-6.89 4.7-9.85z"/>
 </g>
 <path d="m304.41 75.26c1.89-0.32 3.96 0.15 5.86 0.34 4.6 0.64 9.13 0.21 13.72 0.48 3.34 0.2 6.79 1.77 9.94 2.89 2.57 1.03 5.28 1.75 7.16 3.91 3.17 3.59 6.33 7.08 8.85 11.18 2.47 4.14 6.11 7.26 8.62 11.36 3.81 6.31 9.18 12.21 12.25 18.87 1.44 5.39-3.52 11.2-3.74 16.71-0.34 7.67 0.19 15.37-0.11 23.04-0.14 3.68-0.95 7.25-0.96 10.95 0.35 13.9 3.36 27.1 6.48 40.57 2.22 8.16 6.18 16.77 12.35 22.68 2.36 2.53 6.94-0.75 9.77 0.14 2.56 1.22 4.68 3.36 7.14 4.82 9.3 5.22 18.17 10.93 28.12 14.94 10 3.96 18.37 10.55 28.14 14.89 6.13 3.09 12 6.89 18.36 9.63 3.08 1.38 6.42 0.07 9.75 1.21 3.08 1.02 6.14 2.38 9.09 3.7 0.6 2.7 1.24 5.32 2.6 7.75 2.2 3.58 0.64 7.52 2.64 11.26 2.21 4.43 2.73 9.2 4.2 13.84 2.45 4.02 5.77 7.73 9.9 10.06 4.77 2.81 8.72 6.58 13.2 9.77 2.92 2.13 6.67 3.26 9.35 5.64 2.47 4.89 1.09 11.7 3.61 16.5 1.79 3.37 4.43 6.16 6.2 9.59 2.18 3.92 3.33 8.13 5.09 12.21 0.8 2.13 3.65 3.34 5.46 4.53 0.57 2.36 0.96 4.71 1.93 6.95 2.48 4.15 6.08 6.37 9.89 9.08 2.93 1.72 2.93 6.45 3.82 9.42 1.94 6.75 2.56 13.7 1.71 20.67-0.54 2.39-2.98 4.61-2.67 7.06 0.41 4.71 1.49 8.95 0.67 13.8-1.02 1.19-2.46 1.84-3.98 2.1-11.15 1.01-22.1-0.21-32.94-2.87 1.6 3.27 3.27 6.38 4.29 9.9 1.2 3.76 0.82 8.24 0.87 12.18-0.12 6.19 0.49 11.91-1.03 17.99-1.1 4.17-0.75 8.4-1.36 12.61-1.25 2.45-5.9 2.02-7.26 4.79-4.19 6.84-8.89 14.68-10.15 22.67 1.79 7.22 2.41 14.54 3.89 21.83 0.92 4.75 3.35 8.64 4.65 13.29 1.52 5.68 3.44 10.8 3.31 16.78-0.07 4.42 0.5 9.58-1.45 13.62-1.47 3.31-2.87 6.93-6.11 8.91-3.11 2.3-7.1 1.94-10.45 0.37-6.94-3.55-14.15-2.76-22.34-3.9 0.81 9.32 7.96 18.08 12.54 25.85 2.32 2.88-0.54 7.48-0.71 10.86-4.22 2.05-8.35 4.72-12.83 6.13-3.66 0.8-8.01-1.17-11.64-1.85-6.51-1.62-12.87-1.38-19.16-3.84-5.15-1.95-10.37-2.11-15.79-2.42-7.06-0.96-14.08-0.7-21.18-0.73-6.67-0.1-13.39 1.61-19.31 4.68-5.09 2.64-10.41 4.7-15.32 7.68-3.99 1.81-9.7 0.21-13.78-0.79-6.68-1.53-12.83 0.28-19.61 0.78-2.74 0.05-4.97 3.09-6.59 5-3.75 5.34-7.78 9.97-9.79 16.32-2.07 4.74-1.57 9.35-1.59 14.36 0.07 5.88-0.25 11.57 0.58 17.42 0.69 5.11 0.19 10.2 0.83 15.3 0.3 2.56 0.82 5.41 0.46 7.98-1.44 2.21-3.79 1.49-5.32-0.18-3.58-3.65-7.92-4.69-12.52-6.54-5.48-2.14-11.13-2.75-16.35-5.63-6.75-3.69-14.22-5.42-21.01-8.98-4.05-1.96-7.65-4.63-11.79-6.15-2.2-0.83-4.53-1.47-6.64-2.48-2.28-1.23-3.68-4.85-6.39-5.49-5.42-1.63-11.69-2.77-16.83-5.27-1.41-0.65-2.13-1.83-2.77-3.19-1.58-3.45-3.31-6.98-4.39-10.63-1.1-3.52-0.75-7.46-1-11.17-0.16-3.79-1.29-8.05-0.69-11.78 0.74-2.26 2.48-4.28 3.68-6.33 1.81-2.94 2.6-6.02 4.01-9.12 3.26-6.92 8.97-13.43 11.17-20.74 1.65-5.36 3.28-10.34 3.08-16.04 0.06-6.02-3.22-10.47-1.95-16.71 1-1.86 2.92-3.25 4.3-4.85 5.54-5.39 7.39-13.65 12.09-19.86 2.22-2.45 3.95-5.15 7.55-5.41 9.3-0.91 18.67-3.18 27.92-3.16 5.38 0.04 10.65-1 16.02-1.01 6.43-0.07 12.53-2.11 18.99-2 8.68-0.01 16.54-2.94 24.15-6.86 6.34-3.51 11.01-10.75 16.21-15.76 3.17-3.27 6.67-8.32 5.48-13.11-1.1-3.71-3.64-7.12-5.86-10.26-3.49-4.79-7.92-7.84-12.31-11.68-1.63-1.34-3.31-2.77-5.19-3.74-3.03-0.85-6.69-0.24-9.53-1.58-3.53-2.17-5.61-6.4-9.27-8.66-5.08-3.24-10.09-6.56-15.07-9.96-4.53-3.18-9.86-4.39-14.31-7.67-2.11-1.55-4.36-2.98-6.31-4.73-2.44-2.6-3.9-5.99-6.31-8.66-3.71-4.06-6.68-8.52-11.14-11.88-3.26-2.39-4.37-5.76-5.76-9.37-4.47 0-9.14-0.46-13.56 0.23-3.48 1.12-6.69 3.31-9.83 5.15-4.01 2.38-5.37 6.48-8.81 9.3-3.12 0.83-6.18 0.35-8.84-1.5-6.28-4.25-12-9.36-17.9-14.11-4.42-3.52-6.6-8.42-10.61-12.37-2.57-2.59-4.42-5.63-6.35-8.7-2.16-3.45-5.57-5.1-7.24-8.9-2.64-5.58-6.81-10.43-10.05-15.73-2.34-3.94-5.36-7.25-8.21-10.8-2.22-2.75-3.67-6.35-6.23-8.76-2.71-1.5-6.07-1.77-8.84-3.25-3.74-2.08-7.69-4.18-10.6-7.33-8.11-9-12.75-19.15-18.9-29.13-2.59-4.53-7.55-7.02-12.68-7.1-2.26 0.39-3.81 3.58-4.54 5.52-2.02 5.56-4.53 10.43-4.56 16.43-0.32 2.62 0.43 5.3-2.43 6.68-10.51 1.45-20.46-0.57-30.38-3.96-1.22-0.39-1.96-1.29-2.73-2.25-3.06-3.84-4.6-8.38-7.83-12.15-2.79-3.19-5.88-6.13-8.95-9.05-2.87-2.75-5.9-4.51-8.12-7.82-3.59-5.67-8.74-10-12.42-15.64-4.5-6.76-5.2-14.45-9.7-21.28-2.12-3.73-5.44-7.01-6.98-10.99-1.39-5.12-1.95-11.2-1.38-16.46 0.89-4.72 3.82-9.06 5.27-13.68 1.95-6.08 5.98-10.76 8.28-16.68 0.68-1.43 1.27-3.61 2.7-4.46 5.36-0.93 11.1-0.16 16.37 0.96 6.43 1.38 12.95 0.18 19.41 1.6 4.49 1.05 9.54 0.6 13.79 2.3 5.58 3.1 11.16 6.08 16.97 8.76 7.56-4.6 15-8.27 21.53-14.45 4.1-4.12 6.74-9.2 10.44-13.58 2.91-2.48 6.88-3.48 9.68-6.28 4.54-4.81 9.88-8.88 15.39-12.51 3.48-1.47 7.13-3.12 10.8-4.03 1.33 0.82 2.5 1.95 3.69 2.96 2.74-1.89 5.32-3.99 7.91-6.08-3.72-1.01-8.91-2.32-9.27-6.98-0.2-8.33-0.46-16.81 0.66-25.09 0.56-5.28 0-10.53 0.3-15.79-0.03-1.26 0.61-3.26 2.16-3.12 4.17-0.47 8.05 3.42 11.71 5.07 5.4 2.41 10.82 4.73 16.13 7.36 4.69-3.54 6.67-8.64 10.37-12.9 5.18-3.77 8.35-8.28 14.82-9.3 2.27-0.22 6.22-0.96 7.75 1.18 0.99 4.25-3.44 5.31-6.07 7.51 0.49 1.13 0.99 2.25 1.5 3.36 7.42-0.59 12.28-4.7 18.23-8.58 3.98-2.58 7.76-6.64 8.54-11.48 1-4.3 0.58-8.57 1.05-12.9 1.42-1.08 3.42-1.49 5.12-1.96 6.58-1.58 12.76-2.98 19.59-2.22 2.96 0.4 5.86 2.49 8.38 4.01 1.23-1.95 2.33-4.31 4.09-5.83z" fill="#060606"/>
 <g fill="#fff">
  <path d="m311.95 81.99c4.7-0.11 10.29-0.58 14.66 1.37 4.15 1.81 8.24 2.17 11.3 5.72 4.44 4.19 6.76 9.72 10.85 14.16 3.45 3.74 5.66 8.19 8.82 12.18 2.87 3.61 5.03 7.61 7.34 11.59-1.79 4.69-4.01 8.8-3.96 13.94-0.04 5.98 0.1 11.97 0.01 17.95-5.4 3.12-11.19 5.38-16.59 8.49-5.01 2.92-10.45 4.79-15.6 7.42-5.93 3.08-11.33 6.78-17.35 9.63-3.32 1.59-6.44 3.51-9.6 5.38-4.45 2.66-9.21 4.69-13.64 7.36-4.45 2.6-8.82 5.05-13.93 6.09-8.85 1.86-14.43 7.79-21.96 12.01-6.26 3.38-11.63 7.46-18.59 9.39-4.48 1.17-8.3 3.58-12.53 5.29-4.28-6.66-7.36-13.26-14.1-18.01-3.34-2.32-5.17-4.41-7.04-8.03-1.82-3.8-5.44-5.8-7.59-9.25-3.84-7.64-11.69-12.35-16.8-19.35 4.13-0.48 7.93 0.47 11.25-2.43 5.79-4.5 11.83-8.6 18.24-12.18-0.26-2.23 0.29-5.11-1.42-6.77-3.88 0.33-7.78 2.99-11.66 3.01-2.07-0.29-4.11-1.14-6.05-1.88 0.07-6.81-0.39-13.84 0.55-20.49 0.63-4.83 0.46-9.47 0.43-14.33 5.26 2.94 10.93 4.76 16.34 7.41 3.86 1.87 7.97 2.8 12.18 3.49 2.75-5.01 6.7-9.15 9.6-14.09 1.35-2.43 4.24-2.92 6.6-3.98 1.15 1.83 2.18 4 3.72 5.53 3.78 2 8.58 1.84 12.49 0.31 4.94-1.89 9.55-5.13 13.93-8.08 3.93-2.58 6.97-6.66 9.31-10.68 2.32-4.53 1.5-9.07 2.12-13.87 3.63-2.64 9.37-3.05 13.75-3.35 4.85-0.58 6.26 4.36 10.92 4.17 1.96 0.09 3.96 0.07 5.89-0.25 3.59-0.67 4.21-5.2 8.11-4.87z"/>
  <path d="m631.88 86.12c2.37 1.55 4.66 3.56 7.27 4.68 4.11 1.69 8.43 2.71 12.83 3.27 4.91 0.56 8.51 3.32 13.35 4.53 10.02 2.44 19.05 7.85 28.86 11.3 6.38 3.01 13.13 4.31 19.91 6.02 5.77 1.57 11.4 3.74 16.84 6.21 0.11 4.97-0.05 9.94 0.06 14.92 0.04 4.05 1.46 7.5 2.43 11.35 1.31 6.4 1.74 12.89 1.58 19.41-3.31-2.75-7.06-4.81-10.53-7.32-8.66-7.15-17.92-13.61-27.36-19.68-1.78-1.23-3.12-2.82-4.52-4.45-3.19-3.8-7.58-6.27-11.14-9.81-2.84-2.46-6.42-5.73-10.4-5.52-6.77-0.08-13.34-1.35-20.04-2.1-4.9-0.55-9.7-3.39-14.52-4.37-3.08-0.65-6.44-0.62-9.59-0.73 0.06-2.19 0.01-4.46 0.37-6.62 0.75-3.72 3.21-7.44 3.53-11.23 0.32-3.35 0.22-6.57 1.07-9.86z"/>
  <path d="m926.15 110.7c4.06 5.74 4.03 12.61 9.04 17.1 4.14 3.87 8.16 8.03 12.82 11.25 3.3 2.49 6.16 5.55 9.31 8.23-3.95 4.11-7.59 8.53-11.85 12.21-3.03 2.64-5.26 6-8.21 8.77-3.3 3.26-7.4 5.31-11.3 8.15-7.79-3.75-16.11-5.69-24.16-8.75 1.36-4.64 3.8-8.64 6.04-12.88 2.76-4.81 1.9-10.35 4.7-15.24 3.09-5.62 5.87-11.39 9.03-16.97 2.16-3.79 3.03-7.85 4.58-11.87z"/>
  <path d="m782.08 113.79c6.59 0.56 13.33-0.05 19.95 0.3 14.16 1.72 28.67 0.6 42.95 0.91-4.06 6.32-7.99 12.71-12.23 18.92-14.24 0.16-28.5 0.07-42.75 0.04-7.07-0.16-13.96 1.36-21.05 1.04-5.71-0.29-10.3 3.02-15.89 3.01-6.33 0.09-12.67-0.05-19.01-0.06-0.08-7.65-0.09-15.3 0.01-22.95 5.65-1.39 11.21-0.83 16.94-1.13 10.27-1.2 20.81-1.34 31.08-0.08z"/>
  <path d="m851.12 115.05c6.11-1.04 10.1 2.34 15.83 2.95 3.71 0.46 7.2 1.2 10.77 2.29 12.04 3.56 24.32 6.23 36.39 9.67-2.06 3.57-4.55 7.28-5.9 11.17-1.31 3.84-1.08 7.48-2.93 11.13-2.36 4.77-5.09 9.24-6.73 14.35-3.42-1.58-6.76-3.37-10.23-4.83-5.35-2.12-10.89-3.62-16.19-5.84-4.21-1.58-7.81-3.83-12.25-4.77-2.62-0.73-5.61-0.88-8.06-2.04-5.41-4.41-8.34-9.97-11.59-15.98 2.49-3.92 5.72-7.66 6.76-12.13 0.84-2.2 1.13-5.78 4.13-5.97z"/>
  <path d="m620.32 116.58c5.5 0.69 10.63-0.01 15.81 1.33 2.98 0.71 5.77 2.19 8.72 3.26 6.11 2.69 12.83 1.78 19.39 3.7 3.29 1.09 6.4 1.1 9.81 0.69 0.27 0.68 0.52 1.36 0.76 2.05-7 4.57-14.67 7.95-21.69 12.53-2.25 1.53-4.65 2.77-7.07 4.02-3.41 1.7-5.01 4.55-8.03 6.91-4.39 3.82-10.04 4.71-15.02 7.88-1.2-2.76-2.15-5.74-3.7-8.32-4.44-6.84-9.5-13.37-13.43-20.52-2.35-4.06-2.69-8.33-3.04-12.9 5.91-0.01 11.71-1.45 17.49-0.63z"/>
  <path d="m679.02 129.89c4.52 2.77 8.74 5.9 11.96 10.17 2.53 3.28 5.91 4.62 9.29 6.75 2.54 1.55 3.73 4.99 5.99 6.96 1.77 1.55 3.64 2.98 5.51 4.4 2.5 1.95 5.52 2.18 7.98 4.09 3.37 2.59 6.26 5.66 9.61 8.31 2.05 1.59 3.79 3.43 5.5 5.37-6.26 4.68-13.29 7.97-20.76 10.19-7.1 2.1-12.51 5.95-19.19 9.01-1.64-2.88-3.59-5.38-4.39-8.56-0.84-3.25-1.29-6.47-2.55-9.61-1.11-2.86-2.88-5.11-3.65-8.14-0.95-3.51-1.84-8.01-4.22-10.85-8.4-3.23-15.83-8.03-23.82-12.15 2.84-3.24 5.91-5.8 9.73-7.8 4.55-2.4 8.5-5.7 13.01-8.14z"/>
  <path d="m826.77 136.79c-0.55 2.86-0.74 6.27-2.2 8.82-2.4 4.26-5.66 7.67-8.23 11.71-2.52 3.94-5.09 7.84-7.67 11.74-7.92-1.1-15.72-1.24-23.7-1.12-6.17-0.12-12.38 2.42-18.41 3.73-4.14 1.4-8.3 1.38-12.61 1.34-5.68-0.11-10.43 1.77-15.86 3.13-0.2-6.73 0-13.46-0.06-20.18-0.02-5.24-1.52-9.96-3.13-14.87 7.33-0.28 14.71 0.22 22.02-0.29 10.8-1.54 22.03-0.4 33.11-0.87 3.33-0.16 6.59-0.8 9.93-0.88 5.67-0.24 10.89 0.47 16.38-0.78 3.49-0.79 6.86-1.28 10.43-1.48z"/>
  <path d="m836.71 136.79c-1.81 4.71-2.38 9.62-3.54 14.49-2.34 6.96-6.1 13.15-7.47 20.51-1.04 3.75 0.09 6.93 0.81 10.58 0.69 3.39 1.44 6.76 2.35 10.09-0.56-0.04-1.12-0.07-1.68-0.11 0.9 1.18 2.27 2.37 2.62 3.82 0.65 4.05 0.98 7.96-0.8 11.78-2.37 4.95-1.89 10.25-3.71 15.34-1.7 4.7-3.21 9.87-5.93 14.09-1.46 2.34-3.84 3.4-5.61 5.35-1.48 2.16-2.32 5-4.11 6.9-1.56 1.3-3.58 2.16-5.44 2.95-0.46-13.84-0.05-27.73-0.23-41.58-0.14-4.4 0.53-8.68 0.94-13.04 0.48-4.91-1.55-9.91-0.65-14.65 1.18-3.9 4.89-6.41 6.74-10.24 2.65-5.57 6.54-10.26 9.57-15.59 2.12-3.51 5.23-6.21 7.07-9.77 1.48-2.82 1.3-6.49 2.66-9.39 1.08-1.86 4.55-1.17 6.41-1.53z"/>
  <path d="m839.45 139.65c3.54 5.36 7.99 9.94 11.69 15.18 3.3 4.78 8.26 7.7 11.14 12.9 3.02 4.18 1.35 9.67 0.96 14.39-0.61 8.25-0.04 16.59-0.3 24.86-3.3-1.11-6.42-1.78-9.88-2.17-3.8-0.45-6.66-2.54-10.25-3.48-2.88-0.55-5.97-0.38-8.9-0.4-1.17-2.27-1.87-4.31-1.93-6.9-0.28-6.56-2.68-12.76-3.51-19.23-0.14-1.19 0.36-2.45 0.73-3.56 2.31-5.95 4.94-11.8 7.08-17.8 1.07-4.69 1.02-9.34 3.17-13.79z"/>
  <path d="m649.89 145.81c3.91 2.75 7.76 5.29 12.15 7.24 5.05 2.84 9.78 5.78 15.27 7.76 3.33 3.23 3.2 9.59 5.42 13.53 1.61 2.94 3.02 5.91 3.59 9.25 0.79 3.47 0.39 6.64 2.47 9.59 4.24 6.54 8.04 13.19 10.34 20.69-3.24 0.11-6.68-0.15-9.85 0.53-3.18 1.01-6.06 2.69-9.35 3.44-3.94 1.18-7.91 1.19-11.98 1.13-1.96 0.11-4.31-0.25-5.91 1.08-2.52 1.92-4.73 3.15-7.74 4.18-2.47-4.62-5.32-8.79-6.91-13.59-2.3-6.95-5.23-13.51-9.58-19.43-1.88-2.44-1.99-5.38-2.78-8.34-0.72-3.81-3.35-6.25-5.04-9.77-1.77-3.67-3.24-7.46-5.13-11.07 3.24-2.27 6.03-3.66 9.98-4.3 6.79-1.15 8.62-9.36 15.05-11.92z"/>
  <path d="m959.84 150.62c2.24 1.59 4.39 3.26 6.18 5.36 2.83 3.32 6.46 6.69 8.47 10.54 0.59 1.68 0.5 3.66 0.56 5.43-0.04 6.88-0.07 13.76-0.05 20.64-4.67-1.57-9.43-2.84-14.06-4.53-10.49-3.74-21.04-5.67-31.23-10.25 4.72-3.16 9.87-5.51 14.69-8.49 3.13-1.95 4.18-5.01 5.9-8.09 2.27-4.26 5.44-8 9.54-10.61z"/>
  <path d="m854.51 153.3c6.78 0.99 12.4 4 18.64 6.54 3.83 1.6 7.82 2.91 11.73 4.28 5.04 1.71 9.31 4.59 14.27 6.71 3.9 1.74 8 2.44 12.25 3.71 5.4 1.36 10.15 3.76 15.32 5.79 0.26 7.13 2.02 13.92 2.97 20.97 0.94 6.75 1.96 13.53 2.45 20.34-2.23-1.01-4.65-2.42-7.11-2.56-3.98-0.32-8.05 0.17-12.01-0.23-2.79-0.33-5.53-1.76-8.28-2.44-5.94-1.42-11.92-1.23-17.84-2.98-6.96-1.82-13.89-3.79-20.89-5.42 0.01-6.68-0.05-13.36-0.02-20.04-0.05-6.48 1.84-12.33 0.8-18.79-2.44-7.11-8.2-10.39-12.28-15.88z"/>
  <path d="m361.06 163.06c-0.66 5.66-1.53 11.17-0.94 16.89 0.73 6.48 1.08 12.94 2.59 19.31 1.99 8.92 3.16 18.82 6.92 27.09 0.93 2.17 1.75 4.38 2.58 6.59-4.63 2.35-9 3.56-14.16 4.12-6.02 0.68-10.69 3.41-16.26 5.66-5.47 2.07-10.2 5.47-15.75 7.39-2.54 0.85-5.77 2.55-8.38 1.27-4.13-1.67-8-3.79-11.55-6.48-4.05-3.09-8.6-5.3-12.74-8.25-4.1-2.89-7.99-6.05-12.14-8.89-3.2-2.14-5.6-5.01-8.38-7.61-3.02-2.81-6.93-4.23-10.07-6.69l-0.31-1.03c2.35-1.73 5-3.08 7.62-4.33 4.27-1.98 8.96-2.1 13.24-3.81 5.59-2.33 9.91-5.73 15.25-8.7 4.98-2.76 9.6-5.87 14.72-8.3 6.19-2.95 11.81-6.89 18.01-9.97 4.74-2.34 9.67-4.1 14.27-6.73 5.02-2.82 10.14-5.4 15.48-7.53z"/>
  <path d="m806.2 172.25c-1.78 3.16-3.95 6.48-4.94 9.98-0.73 3.67 0.14 7.97 0.12 11.67-0.14 2.36-1.54 4.71-2.94 6.56-2.09 2.86-5.83 4.33-8.01 6.94-1.13 1.88-1.43 4.38-1.92 6.5-5.45 0.02-10.66-0.25-15.86 1.75-4.53 1.71-8.97 1.22-13.68 1.43-4.42 0.1-7.82 3.32-12.03 3.75-3.57 0.33-7.09 0-10.68 0.54-2.88 0.46-5.73 1.16-8.6 1.67 0.97-3.6 2.75-6.85 3.92-10.35 0.84-3.7 0.09-7.75 0.66-11.51 0.78-2.68 3.91-4.59 4.6-7.3 0.5-4.48 0.13-9.1-0.08-13.6 8.11-3.25 16.58-4.1 25.23-4.45 5.43-0.65 10.59-0.9 16.07-0.83 4.8 0.07 9.09-1.99 13.88-1.97 4.78-0.04 9.52-0.05 14.26-0.78z"/>
  <path d="m807.26 172.28c0.5 0.51 0.5 0.51 0 0z"/>
  <path d="m171.58 175.77c4.05 5.49 8.92 10.15 13.79 14.9 2.05 1.91 3.04 4.31 4.37 6.71 1.24 2.42 4.17 3.81 5.86 5.97 1.71 2.34 2.72 5.28 4.54 7.52 2.18 2.43 5.23 4.07 7.59 6.39 3.73 3.62 6.7 8.29 9.32 12.76 2.22 3.46 4.69 6.73 6.63 10.37 1.44 2.78 4.08 4.84 5.34 7.66 0.12 1.91-1.33 2.35-2.57 3.42-5.95 4.13-12.05 8.11-18.45 11.52-5.94 2.94-11.72 6.23-17.44 9.57-3.76 2.12-6.07 5.29-8.9 8.42-1.64-1.9-3.21-3.9-5.01-5.65-2.32-2.2-5.18-3.47-7.6-5.42-1.89-1.7-2.85-4.48-4.49-6.43-2.19-1.63-4.9-2.2-6.74-4.35-2.38-2.66-3.84-6.12-5.91-9.05-3-4.34-5.95-8.7-8.94-13.04-2.56-3.87-6.71-5.78-9.44-9.54-2.79-3.9-6.22-7.09-9.63-10.43 2.51-1.88 5.1-3.69 7.49-5.71 2.94-2.49 4.89-5.59 8.13-7.79 5.18-3.68 11.11-6.92 14.34-12.63 1.68-3.01 3.37-5.78 6.29-7.77 3.73-2.51 7.33-5.59 11.43-7.4z"/>
  <path d="m734.04 180.78c-0.01 4.12-0.04 8.02-1.33 11.98-0.82 2.34-2.41 4.35-3.31 6.57-0.83 3.69-0.03 7.7-0.73 11.43-0.79 3.16-2.9 6.19-3.49 9.39-0.68 3.89-0.43 7.74-1.43 11.61-0.83 3.34-2.67 6.18-3.41 9.48-0.47 2.55-0.43 5.22-0.53 7.81-4.23 0.02-8.25 0.08-12.21-1.65-5.5-1.97-9.1-5.9-14.62-6.31-5.71-0.5-11.16-2.28-16.3-4.78-1.76-0.92-3.42-1.7-4.42-3.53-2.06-3.47-3.91-7.08-5.88-10.6 5.29-0.78 10.33-1.19 15.68-1.24 3.7 0.07 6.34-3.54 9.96-3.8 3.31-0.3 6.66-0.2 9.98-0.3 0.8-7.14-2.45-12.45-5.26-18.65 5.12-2.67 10.18-5.79 15.48-7.92 3.83-1.53 7.91-1.8 11.66-3.43 3.56-1.56 6.76-4.07 10.16-6.06z"/>
  <path d="m929.93 182.19c4.24 0.79 8.02 2.49 12.15 3.66 10.86 2.99 21.55 6.75 31.88 11.23 0.65 12-0.8 23.91-5.27 35.11-6.48-1.1-12.55-3.36-18.92-4.93-4.25-1.02-8.29-2.78-12.06-4.98-0.96-0.45-1.56-1.17-1.78-2.18-1.74-5.95-1.74-12.95-2.11-19.03-0.78-6.42-3.67-12.26-3.89-18.88z"/>
  <path d="m800.84 203.29c-0.94 3.61-2.15 6.77-1.75 10.59 0.58 5.09 2 9.89 1.93 15.08 0 7.34-0.38 14.64-0.02 21.99-11.01 0.1-22.01 0.02-33.02 0.06-5.37 0.05-10.59-1.14-15.97-1.04-9.69 0.06-19.38-0.03-29.07 0.1 0.02-3.72-0.14-7.22 1.49-10.68 1.95-4.17 2.98-8.55 3.87-13.04 4.19-0.84 8.45-2.19 12.66-2.26 2.63-0.11 5.32 0.01 7.92-0.33 3.02-0.5 5.86-2.13 8.87-2.93 4.26-1.27 8.63-0.45 12.96-1.26 3.46-0.71 6.76-2.17 10.3-2.44 3.44-0.26 6.91-0.18 10.36-0.3 0.61-2.3 1.05-5.08 2.45-7.05 1.83-2.52 4.61-4.52 7.02-6.49z"/>
  <path d="m834.42 204.24c2.88-0.58 5.99-0.5 8.7 0.73 2.95 1.26 5.63 2.72 8.9 2.94 6.02 0.3 10.96 3.7 16.94 4.22 4.66 0.54 8.32 3.59 12.89 4.97 3.85 1.22 8.09 0.8 12.14 1.02 4.51 0.26 8.97 0.96 13.17 2.66 4.56 1.86 8.79 0.88 13.6 1.56 3.37 0.51 6.68 1.45 10.01 2.16 0.27 8.22 0.77 16.84-0.62 24.96-0.42 3.5-0.21 7.13-0.2 10.65-4.33-0.22-8.61-0.91-12.94-1.08-7.07-0.22-13.96-1.77-21.03-2.02-5.33 0.04-9.64-2.96-14.94-3.01-16.91-0.14-33.84 0.22-50.75-0.16-1.11-2.49-2.12-5.25-3.66-7.51-1.55-2.02-4.02-3.43-6.07-4.92 3.65-7.41 8.46-15.21 9.29-23.51 0.39-4.86 2.07-9.5 4.57-13.66z"/>
  <path d="m47.58 209.34c3.43-0.99 7.71 0.29 11.16 0.9 5.82 1.29 11.68 0.31 17.56 1.46 4.29 0.83 8.78 0.97 12.99 2.12 6.45 2.56 12.35 6.49 18.8 9.08 2.07 0.74 4.38 1.57 6.57 0.85 2.46-0.93 4.76-2.36 7.09-3.58 3.31 3.13 6.45 6.27 9.13 9.98 2.73 3.73 6.84 5.73 9.48 9.53 4.21 5.88 8.39 11.3 11.31 17.75 1.42 2.94 3.86 4.48 6.35 6.41-5.72 3.93-12.08 6.38-18.61 8.63-3.65 1.2-6.08 3.65-9.23 5.68-4.96 3.27-10.23 4.81-15.39 7.63-3.48 1.81-6.86 3.93-10.45 5.53-3.18 1.44-6.58 1.96-9.79 3.31-8.07 3.5-15.16 8.68-23.31 12.02-3.46-2.78-6.36-5.41-8.73-9.23-5.45-6.2-11.07-11.59-14.61-19.28-2.35-5.41-3.85-11.02-6.89-16.15-2.24-4.14-5.53-6.62-6.79-11.19-0.96-3.69-1.66-7.8-1.07-11.59 0.75-2.46 2.96-4.52 4.15-6.8 1.04-3.49 1-6.92 2.88-10.2 2.43-4.29 4.74-8.7 7.4-12.86z"/>
  <path d="m258.12 216c6 1.36 11.76 5.54 15.61 10.29 2.94 3.35 6.46 5.23 9.88 8.08 5.57 4.77 12.2 7.43 18.26 11.78 3.33 2.42 6.64 4.82 10.29 6.74-3.54 1.44-7.01 3.01-10.29 5-5.07 3.14-11.26 4.87-16.83 7.18-3.46 1.5-7.12 2.2-10.68 3.37-4.73 1.49-7.99 5.45-12.76 7.21-1.22 0.58-2.41-0.16-3.43-0.79-6.77-5.24-10.01-12.15-16.23-17.81-4.02-3.79-6.82-8.41-10.5-12.5-1.64-1.98-3.59-3.88-4.87-6.11-0.88-2.04-1.37-4.27-1.99-6.41 2.56-1.23 5.21-2.57 7.9-3.48 4.08-1.31 8.69-1.76 12.6-3.49 4.74-2.06 8.38-6.89 13.04-9.06z"/>
  <path d="m663.13 224.41c2.27 2.97 4.26 6.18 6.04 9.47-1.99 1.28-4.01 2.49-6.07 3.65-1.96-3.35-3.94-6.66-6.23-9.79 2.09-1.1 4.15-2.26 6.26-3.33z"/>
  <path d="m934.14 225.65c4.26 0.76 8.05 2.59 12.08 4.01 7.23 2.12 14.34 4.53 21.66 6.34-1.01 5.8-1.75 11.55-3.73 17.14-3.27 10.24-6.98 20.12-12.77 29.25-3.2 4.9-5.49 10.24-9.06 14.92-2.11 2.77-3.78 6.3-6.47 8.52-1.22 1.31-3.37 0.32-4.95 0.29 1.39-8.04 1.29-16.06 1.04-24.17-0.05-3.58-1.49-6.91-0.27-10.14 1.97-6.13 2.44-12.41 2.36-18.81 0.02-9.11-0.17-18.24 0.11-27.35z"/>
  <path d="m375.29 237.19c1.89 1.95 3.61 4.09 5.43 6.1-3.19 4.61-6.25 9.22-10.14 13.3-4.73 4.83-6.04 11.41-10.69 16.29-4.16 4.31-4.87 9.18-9.87 12.2-4.03 3.24-8.79 2.4-13.08 4.86-4.55 2.53-9.1 4.96-13.78 7.21-4.15-4-8.38-7.89-13.04-11.31-3.62-2.73-5.11-6.42-8.24-9.71-2.84-3.01-5.41-6.23-8.04-9.42 4.71-2.92 9.37-6.09 14.37-8.51 6.38-3.07 13.63-2.86 20.33-4.72 4.28-1.22 7.22-4.62 11.5-6.39 4.96-1.99 9.82-4.36 14.88-6.09 6.79-1.96 13.68-1.14 20.37-3.81z"/>
  <path d="m670.91 237.3c4.39 2.07 7.94 4.79 12.77 5.97 3.51 0.95 7.3 0.43 10.76 1.39 4.12 1.59 7.57 4.59 11.78 6.1 3.61 1.4 7.14 1.26 10.95 1.44 1.67 10.19 0.47 20.82 0.84 31.13-4.14-0.33-7.94-0.75-11.92 0.76-4.85 1.58-7.81 4.94-13.05 4.85-4.29 0.03-8.12 0.48-12.22 1.77-2.33-5.05-3.6-10.44-6.13-15.39-1.91-3.9-4.2-7.32-5.51-11.5-2.5-7.5-4.07-15.2-7.17-22.52 2.99-1.28 5.91-2.71 8.9-4z"/>
 </g>
 <g fill="#060606">
  <path d="m650.25 239.25c0.52 0.53 0.52 0.53 0 0z"/>
  <path d="m652.25 239.25c0.52 0.53 0.52 0.53 0 0z"/>
  <path d="m654.11 244.48c1.24-0.63 2.34 1.35 1.5 2.25-1.25 0.52-2.4-1.28-1.5-2.25z"/>
 </g>
 <g fill="#fff">
  <path d="m817.32 244.29c2.12 0.78 4.25 1.92 5.89 3.49 1.52 1.9 2.42 4.39 3.58 6.53 5.17 9.63 14.93 16.57 19.77 26.2 1.97 3.8 5.62 5.53 8.03 8.85 2.13 3.29 3.54 7.68 6.16 10.9 1.65 2.02 3.31 4.02 4.91 6.08 2.34 3.09 5.46 5.14 7.5 8.48 2.87 4.75 5.55 9.63 7.75 14.73-3.18 1.36-6.41 3.31-9.81 4.01-5.41-1.61-7.52-5.9-11.77-8.78-7.43-3.88-14.32-9.2-21.12-13.95-8.36-4.44-17.39-7.51-25.49-12.58-2.46-1.57-6.49-3.55-7.41-6.52-1.04-6.92 0.1-14.78 0.56-21.69 0.28-4.09-0.4-8.57 0.57-12.55 1.77-2.27 4.26-3.84 6.12-5.91 1.81-2.25 3-4.98 4.76-7.29z"/>
  <path d="m394.06 245.96c11.55 6.76 22.76 13.74 35.22 18.8 8.83 3.54 15.74 10.05 24.68 13.34 8.06 4.07 15.88 8.69 23.78 13.07 3.48 1.85 6.92 2.29 9.57 5.48 1.48 1.58 1.55 4 2.01 6.05 0.82-0.9 1.65-1.8 2.48-2.68 0.46 1.96 0.92 3.92 1.37 5.88-6.99 2.29-14.17 3.78-21.17 6.03-5.93 1.56-10.93 3.74-16.97 4.14-7.93 0.72-15.88 3.05-23.42 5.55-4.49 1.54-9.24 1.71-13.72 3.31-7.49 2.87-15.12 1.95-22.87 4.12-5.04 1.44-10.02 0.39-14.97 2.04-3.96 1.37-7.9 2.78-11.92 3.95-1.17-5.01-1.11-9.98-1.18-15.08 0.03-4.17-3.55-7.09-3.86-10.96-0.45-5.91 0.61-11.31-0.92-17.2-1.13-4.35-1.62-8.77-1.19-13.26 0.33-2.21 2.33-4.2 3.51-6.03 2.1-2.8 3.43-5.92 5.14-8.94 2.16-3.82 5.36-6.28 7.96-9.95 1.69-2.26 3.08-4.95 5.09-6.92 1.88-0.77 4.06-0.9 6.06-1.18 1.86-0.12 3.66-0.66 5.32 0.44z"/>
  <path d="m231.2 252.46c5.95 3.83 11.28 9.3 15.21 15.18 2.17 2.95 4.68 5.4 7.08 8.18-6 2.69-12.11 5.2-18.31 7.39-7.21 2.58-14.15 6.54-21.08 9.9-3.54 1.7-6.77 3.85-10.04 6-2.54 2.14-5.86-0.66-7.92-2.24-4.41-4.17-8.06-9.21-12.04-13.79 2.79-3 5.32-5.99 8.93-8.05 5.95-3.48 11.93-6.91 18.13-9.93 7.09-3.6 13.19-8.72 20.04-12.64z"/>
  <path d="m735 252.97c8.57 0.21 16.88-0.47 25.19 0.73 7.56 0.67 15.23 0.16 22.81 0.3 7.05 0.17 13.34-0.63 20.16 0.87-1.02 10.72-1.63 21.5-2.35 32.25-7.61-2.67-13.4-7.78-20.31-11.69-4.22-2.83-7.92-5.54-13.24-5.71-5.22 10.38-11.65 20.18-16.92 30.52-2.56 6.45-6.7 11.91-9.72 18.13-3.38-3.77-4.99-8.31-7.39-12.65-2.27-3.35-5.17-6.21-7.3-9.68-2.04-3.24-5.52-7.13-5.1-11.17 0.35-10.24 0.04-20.47 0.25-30.7 4.63-0.8 9.21-1.36 13.92-1.2z"/>
  <path d="m833.2 257.11c5.26-0.26 10.54-0.05 15.8-0.1 6.67 0.06 13.01-0.35 19.42 0.55 4.22 0.59 8.4 0.35 12.64 0.48 4.11 0.05 7.8 1.72 11.91 1.9 4.02 0.2 8.01 0.51 12 1.1 4.16 0.54 7.81 1.77 11.99 1.92 4.44 0.16 8.88 0.01 13.32 0.13-0.27 3.44-1.3 6.47-2.53 9.65-1.27 2.79 0.58 5.47 0.96 8.37 1.18 8.63-0.55 16.2-0.91 24.63-3.48-1.18-6.78-2.51-10.44-3.11-4.15-0.84-8.18-0.45-12.35-0.78-4.1-0.35-8-3.12-12.07-3.65-4.16-0.45-8.07 0.11-12.17-0.98-3.57-0.83-6.58-2.58-9.89-4.01-3.35-1.47-7.6-1.25-11.23-1.51-0.68-1.74-1.25-3.6-2.19-5.21-1.9-2.4-5.54-3.95-7.19-6.67-1.83-2.95-3.07-6.04-5.44-8.65-4.1-4.52-8.26-8.8-11.63-14.06z"/>
  <path d="m161.96 266.91c2.27 2.87 4.26 5.72 7.52 7.59 3.39 1.98 6.02 4.59 8.54 7.56-5.12 3.16-8.87 7.74-13.67 11.29-3.22 2.3-4.32 6.08-7.57 8.4-4.2 3.13-8.11 6.62-11.84 10.3-1.66-2.43-2.84-5.05-5.66-6.32-4.68-2.27-10.74-3.51-15.85-2.38-4.55 2.84-6.05 7.37-8.02 12.05-2.2 5.47-3.39 10.71-3.69 16.6-7.88 0.35-15.54-0.65-22.72-4.04-3.24-1.61-4.65-5.6-6.47-8.53-2.31-4.08-5.52-6.94-8.7-10.29 7.62-3.25 14.36-8 21.91-11.37 3.77-1.69 7.63-1.93 11.28-3.78 4.05-2.07 8-4.82 12.22-6.68 3.92-1.68 7.8-2.21 11.47-4.58 3.1-1.83 5.42-4.66 8.48-6.49 3.37-1.58 7.24-2 10.73-3.35 4.33-1.51 7.9-4.09 12.04-5.98z"/>
  <path d="m288 268.65c2.13-0.05 3.37 1.23 4.75 2.63 4.1 4.64 8.34 9.05 11.88 14.15 4.79 5.04 10.92 8.65 15.65 13.84-3.14 2.92-6.27 5.06-10.1 7-6.11 3.63-12.39 6.93-18.84 9.93-7.29-8.55-15.47-16.36-22.6-25.05-2.84-3.38-4.47-7.19-6.45-11.09 4.87-2.07 9.85-3.69 14.49-6.29 3.49-1.74 7.32-4.67 11.22-5.12z"/>
  <path d="m769.39 273.23c5.3 1.97 9.97 5.73 14.83 8.59 4.95 3.71 10.39 6.4 15.82 9.31-0.06 3.9 0.35 8.34-0.9 12.04-1.06 3.63-3 7.06-3.12 10.78-0.47 8.81 0.98 16.67-1.2 25.33-5.63-0.69-10.1-3.54-15.77-3.34-7.37-0.01-14.73 0.14-22.09 0.06-5.03-0.05-10.04-1.19-14.96-2.17-0.09-4.23-0.2-8.26 1.49-12.24 1.59-5.4 4.73-9.76 7.43-14.59 5.18-11.76 12.34-22.42 18.47-33.77z"/>
  <path d="m256.1 279.04c3.33 2.7 5.2 6.28 6.65 10.23 1.98 5.99 8.07 10.19 12.38 14.6 4.45 4.64 9.55 9.17 13.03 14.55-8.54 2.76-17.05 5.64-25.67 8.12-6 1.79-10.92 5.53-17 7.05-3.43 1.1-6.93 1.39-10.51 1.43-4.24 0.01-8.26 0.99-12.36 1.94-3.83-13.59-13.87-20.65-19.88-33.05 11.35-7.51 23.95-10.57 35.82-16.34 5.87-2.66 11.55-6.04 17.54-8.53z"/>
  <path d="m357.37 283.51c0.56 3.43 1.02 6.87 1.84 10.26 1.34 5.58 0.53 10.68 0.81 16.29 0.07 4.36 3.84 7.31 3.89 11.93 0.16 4.67 0.2 9.27 1.05 13.89-3.86 0.07-7.69 0.09-11.53 0.59-9.77 1.33-19-0.35-28.71 1.18-6.29 0.92-12.63 1.09-18.88 2.23-1.11-2.39-2.55-4.47-4.17-6.53-2.02-2.56-2.58-6.01-4.49-8.56-1.12-1.91-2.63-3.53-3.66-5.48 8.13-4.79 16.98-8.73 24.86-13.96 6.45-5.33 13.79-8.88 21.07-12.88 3.55-1.98 7.27-1.03 10.99-2.09 2-1.12 3.68-3.03 5.15-4.77 0.59-0.7 1.18-1.41 1.78-2.1z"/>
  <path d="m181.12 285.91c5.42 5.21 10.14 11.22 15.09 16.88-6.1 4.64-13.46 7.8-20.38 11.04-8.5 3.94-16.74 4.18-24.2 10.26-1.55-2.93-3.04-5.89-4.5-8.86 7.49-5.78 14.37-12.4 21.26-18.87 4.4-3.44 9.05-6.12 12.73-10.45z"/>
  <path d="m714.83 286.36c1.12-0.24 1.84 1.63 2.45 2.35 2.26 3.74 4.24 7.61 6.88 11.13 2.31 3.43 5.35 6.2 7.15 9.82 1.78 3.49 3.3 7.09 5.4 10.42-3.08 1.64-5.93 3.28-9.32 4.24-7.59 2.04-15.92 3.67-23.03 7.03-4.62 2.22-9.52 2.68-13.96 5.32-0.91-7.19 0.59-13.72-1.81-20.18-2.24-7.49-4.4-14.99-6.03-22.64 2.46-0.8 4.8-1.66 7.42-1.75 3.49-0.25 6.67 0.24 9.88-1.31 4.74-2.32 9.66-4.07 14.97-4.43z"/>
  <path d="m492.27 290.27c0.49 0.51 0.49 0.51 0 0z"/>
  <path d="m861.61 295.49c3.16 0.19 6.44 0.21 9.33 1.62 3.1 1.4 5.96 2.88 9.35 3.54 3.76 0.64 7.77 0.08 11.54 0.64 4.07 0.79 7.95 3.52 12.12 3.63 4.69 0.15 9.24 0.01 13.79 1.38 5.21 1.61 10.29 2.91 15.65 3.88-2.06 6.59-7.4 9.84-10.63 15.6-3.09 5.1-5.82 10.4-9.08 15.41-2.56-1.35-5.02-2.86-7.53-4.3-4.71-2.78-10.9-1.53-15.14-4.84-2.39-1.92-5.25-3.44-7.33-5.68-2.98-4.52-5.23-9.63-7.62-14.47-1.55-3.41-4.94-4.46-7.36-7.57-2.35-2.96-4.8-5.84-7.09-8.84z"/>
  <path d="m803.06 296.14c11.28 10.07 27.27 12.41 38.35 21.41 4.4 2.93 8.62 6.28 13.32 8.7 5.2 2.49 8.14 7.58 13.43 10.1-3.83 1.87-7.3 4.26-10.94 6.42-2.82 1.59-5.53 1.03-8.58 0.68-6.42-0.89-12.79-0.05-19.22-0.88-4.61-0.62-9.13-0.44-13.68-1.35-5.53-1.09-11.05-2.15-16.69-2.46 0.07-7.87-0.35-15.81 0.13-23.66 1.1-6.57 4.45-12.01 3.88-18.96z"/>
  <path d="m197.26 302.26c0.5 0.51 0.5 0.51 0 0z"/>
  <path d="m198.81 305.54c3.65 5.95 8.24 10.95 11.53 17.12 1.9 3.22 3.12 6.37 6.08 8.78 0.17 1.36 0.31 2.71 0.48 4.07 0.68-0.2 1.36-0.4 2.03-0.6-0.22 1.33-0.42 2.66-0.6 4-3.32 0.56-6.68 0.91-9.97 1.59-6.75 1.81-12.67 4.83-18.81 8.07-2.16 1.24-4.22 0.77-6.59 0.7-3.32-0.23-6.4-0.31-9.47-1.77-5.03-2.55-9.64-5.34-12.96-10.03-2.27-3.22-5.25-6.51-6.49-10.28 6.6-4.9 13.61-6.01 20.87-9.27 8.11-3.69 16.53-7.38 23.9-12.38z"/>
  <path d="m494.11 309.19c2.97 4.47 2.75 9.4 4.5 14.25 1.56 2.62 3.88 4.81 5.8 7.16 3.09 3.75 7.04 5.38 10.86 8.14 5.45 3.79 9.72 8.51 15.65 11.65 0.01 0.8 0.02 1.6 0.03 2.41-3.22 1.28-6.56 2.22-9.78 3.49-2.41 0.98-4.22 2.82-6.46 3.96-1.38 0.19-2.9-0.28-4.21-0.67-6.04-2.06-11.4-5.61-16.89-8.2-7.8-3.64-15.77-6.84-24.17-8.84-5.4-1.17-8.66-5.67-14.16-6.76-5.5-1.21-10.4-3.81-15.76-5.4-3.27-0.95-5.54-3.09-7.99-5.32 8.49-2.8 17.53-5.42 26.46-6.13 4.56-0.42 9.02-2.22 13.54-3.42 7.48-2.28 15.04-4.29 22.58-6.32z"/>
  <path d="m290.78 323.13c2.2 1.99 4.28 3.87 5.21 6.8 1.44 4.7 5.01 7.9 6.87 12.39 2.58 0.69 4.99 0.93 7.1 2.76 5.71 4.08 7.35 10.04 11.82 15.15 2.2 2.58 3.99 5.39 5.55 8.39-4.08 0.77-8.13 1.48-12.3 1.41-11.02-0.05-22.03-0.03-33.05-0.02-5.72 0.06-11.27-1.29-17.01-1.09-5.53-0.08-10.54 1.54-15.99 2.07-6.97 0.86-13.98 1.16-20.97 1.9-9.87 0.23-19.78 0.12-29.66 0.03-3.29-6.8-9.34-11.3-12.63-18.08 4.62-3.07 9.73-3.74 14.91-5.3 5.28-1.91 10.56-3.68 16.07-4.79 4.46-0.93 8.82-0.53 13.24-1.86 7.69-2.42 15.1-5.57 22.72-8.35 4.54-2.07 9.07-3.76 13.91-5.02 8.07-2.19 16.03-5.44 24.21-6.39z"/>
  <path d="m739.1 324.2c0.01 3.59-0.61 7.13-0.76 10.71 0.22 3.68 0.71 7.34 0.75 11.04-5.45 0.02-10.72-0.28-16.07 1.06-5.68 1.48-11.42 0.47-17.07 1.97-4.31 1.1-8.67 2.12-12.88 3.56-0.1-3.44-0.72-6.88-0.67-10.31 0.23-2.5 2.21-2.79 4.1-3.75 6.5-2.62 12.43-6.04 19.29-7.72 7.83-2.04 15.57-4.22 23.31-6.56z"/>
  <path d="m425.01 326.64c3.64 0.8 7.13 4.11 10.37 5.82 2.84 1.33 5.96 2 8.8 3.37 4.57 2.1 9.5 2.68 14.17 4.35-4.41 1.03-8.51 2.6-12.66 4.38-6.7 2.19-12.67 4.76-19.71 5.47-3.55 0.39-6.62 1.73-9.87 3.12-3.9 1.79-7.91 3.01-11.48 5.49-2.46 2.01-5.75 0.69-8.55 0.29-3.55-0.64-5.13-3.15-7.43-5.58-2.35-0.26-4.89-0.22-7.16-0.93-2.88-1.32-5.65-2.95-8.4-4.54-4.56-2.62-8.22-6.35-12.99-8.66 8.2-0.27 15.36-3.24 23.29-4.87 4.71-1.15 9.56-1.37 14.27-2.59 6.91-1.65 14.06-1.23 20.63-3.51 2.13-0.69 4.48-1.54 6.72-1.61z"/>
  <path d="m884.83 331.88c1.76 1.3 3.38 2.89 5.28 3.97 4.24 2.15 9.96 1.63 14.09 3.98 2.52 1.38 4.92 2.95 7.42 4.38-2.7 9.05-4.3 18.44-5.95 27.73-4.57-0.77-9.09-0.97-13.72-0.97-5.13 0.08-9.81-1.9-14.9-1.97-2.69-0.09-5.39 0.02-8.08 0.01-6.63 0.24-13.64-2.19-20.03-3.92-4.57-1.16-8.18-3.11-12.88-3.12-4.48-0.21-9.2 0.49-13.62-0.27-1.08-0.8-2.02-1.81-2.99-2.73-3.5 0.41-6.88 1-10.42 1.05-8.3 0.26-16.67-2.02-25-2.04-13.42-0.03-26.84 0.13-40.25-0.07 0.24-3.64 0.99-6.96 2.13-10.4-1.15-0.91-2.98-1.63-3.66-2.95-0.41-2.39-0.29-4.91-0.34-7.33 12.51 2.96 24.45 1.34 37.13 1.81 4.64 0.17 8.27 2.67 12.93 2.89 4.81 0.24 9.48-0.19 14.26 0.79 5.17 0.74 9.62 3.16 14.72 3.28 6.56 0.24 13.36-0.36 19.9 0.26 5.88 0.72 12.06 1.26 17.95 0.52 2.75-1.14 4.82-3.94 7.51-5.39 6.46-3.44 11.23-7.77 18.52-9.51z"/>
  <path d="m331.02 340.13c5.34-0.25 10.7-0.18 16.04-0.15 5.36-0.24 9.82 3.22 14.46 5.44 4.79 2.28 9.43 4.68 13.54 8.1-7.15 2.74-14.47 4.69-21.84 6.69-5.7 1.48-10.73 4.24-15.74 7.25-1.94 1.08-3.65 2.16-5.91 1.18-2.52-3.29-4.2-7.16-6.81-10.41-4.57-5.62-6.72-11.76-12.79-16.09 6.42-0.19 12.68-1.46 19.05-2.01z"/>
  <path d="m460.95 343.48c12.74 3.3 25 7.75 36.65 13.92 3.39 1.9 7.36 3.14 10.47 5.46 3.91 7.86 5.12 16.47 4.93 25.17-0.07 4.57-1.46 8.45-0.08 12.99 1.31 6.59 3.84 14 2.93 20.71-1.95 1.9-5.27 2.07-7.84 2.23-8.17 0.11-15.78 2.78-23.97 3-5.45 0.12-10.67-0.37-16.02 1.06-6.14 1.56-11.84 0.81-18.06 0.97-5.42 0.04-10.48 1.53-15.97 1.97-5.35 0.43-10.64 1.31-15.97 1.88-5.56 0.25-10.48 1.64-16.01 0.25-0.05-4.9-0.2-9.69 0.53-14.56 0.5-3.42 0.62-6.87 0.19-10.31-0.98-6.9-1.03-14.01-0.37-20.94 1.05-7.96 1.32-15.84-1.21-23.57 3.98-1.34 7.34-3.77 11.2-5.36 5.57-2.25 10.47-4.82 16.55-5.49 5.5-0.66 10.4-2.73 15.64-4.34 5.53-1.66 10.4-5.18 16.41-5.04z"/>
  <path d="m739.68 349.19c0.5 3.68 1.02 7.34 1.12 11.07 0.17 4.75 1.89 9.01 2.15 13.72 0.23 4.65 0.02 9.32-0.01 13.97-14.56 0.06-29.12 0.11-43.68-0.02-1.15-7.4-2.07-14.76-4.27-21.95-1.34-3.98 0.18-7.12 0.71-11.04 6.51-1.67 12.53-3.72 19.28-3.87 3.7-0.07 7.14-0.43 10.74-1.3 4.68-1.12 9.21-0.83 13.96-0.58z"/>
  <path d="m690.26 355.27c1.43 0.19 1.49 2.23 0.02 2.41-1.41-0.21-1.49-2.22-0.02-2.41z"/>
  <path d="m384.78 356.11c2.88 0.99 4.94 3.97 7.78 5.16 1.36 0.55 2.85 0.92 4.27 1.31 3.17 7.12 2 13.89 2.19 21.42 0.1 4.31-0.48 8.56-0.56 12.85 0.57 8.72 0.54 17.43 0.58 26.16 0.02 3.15-0.22 6.21-0.7 9.33-4.68-1.38-9.46-1.96-14.31-2.43-5.08-0.48-9.84-1.94-15-1.9-9.04 0.11-18.33-2.16-27.24-3.68-4.12-0.56-8.34-0.15-12.53-0.64-5.04-0.63-10.05-1.79-14.96-3.08-3.05-0.8-6.18-2.23-9.29-2.49-3.46-0.28-6.95-0.17-10.42-0.27 1.46-2.94 2.76-5.78 5.2-8.06 3.15-2.97 6.07-5.98 8.4-9.65 4.62-6.17 10.97-11.11 16.15-16.79 2.08-2.51 4.26-4.52 7.04-6.24 0.36-1.51 0.7-3.04 1.05-4.55 6.26-0.88 10.3-4.76 15.97-7.14 6.86-2.89 14.46-4.05 21.48-6.58 4.62-1.56 10-3.31 14.9-2.73z"/>
  <path d="m532.08 356.31 0.82-0.02 0.41 0.72-0.39 0.74-0.81 0.01-0.42-0.71 0.39-0.74z"/>
  <path d="m530.79 356.94c0.81 2.94 1.5 5.93 2.5 8.79 2.61 8.44 9.27 14.02 12.97 22.14-10.07 0.24-20.15 0.12-30.22 0.08-0.13-5.32 0.17-10.66-0.08-15.97-0.01-2.81-2.75-5.36-4.17-7.66 2.18-0.26 4.37-0.44 6.55-0.72 1.18-1.44 2.33-3.39 4-4.27 2.63-1.18 5.65-1.7 8.45-2.39z"/>
  <path d="m749.94 360.95c10.7 0.07 21.39 0.05 32.09 0.04 4.67-0.03 9.21 0.74 13.84 1.24 7.47 1.06 15.19 1.21 22.65 0.03 1.02 3.3 1.49 6.27 1.52 9.75-0.01 5.65 2.65 10.32 3.26 15.87-25.75 0.24-51.51 0.1-77.26 0.07-0.27-9.04 1.01-17.45-2.18-26.17 1.95-0.59 4.07-0.54 6.08-0.83z"/>
  <path d="m823.14 365.14c6.75-0.7 13.92 0.89 20.55 2.13 4.5 0.77 8.65 2.46 12.94 3.9 7.58 1.89 16.16-0.13 23.86 1.43 8.04 1.96 16.36 1.33 24.56 2.64 0.08 4.36-0.34 8.41-1.21 12.68-25.83 0.15-51.66 0.08-77.49 0.04-0.46-8.11-4.64-14.4-3.21-22.82z"/>
  <path d="m543.27 371.22c0.52 0.52 0.52 0.52 0 0z"/>
  <path d="m329.44 372.08c-2.71 4.02-6.22 7.29-9.29 11.08-2.55 3.17-5.64 5.69-8.72 8.31-3.48 3.08-4.72 7.01-7.39 10.59-2.15 2.82-5.56 4.51-7.88 7.05-1.63 2.5-2.73 5.35-4.17 7.96-6.3-1.13-12.66-1.33-19.04-1.1-4.9-0.07-9.78 3.73-14 5.96-3.94 2-6.17 5.29-8.96 8.54-6.75-3.62-11.98-8.86-18.03-13.44-2.71-2.03-4.7-4.65-6.62-7.4-2.5-3.61-5.8-6.16-8.01-9.93-2.36-4-4.36-8.05-7.52-11.52-3.44-3.72-6.04-7.96-8.8-12.18 6.33 0 12.66-0.01 18.99 0.02 9.98 0.31 20.01-1.21 29.99-1.9 5.71-0.19 11.28-1.27 17-1.14 16.01 0.05 32.01-0.02 48.02 0.05 4.85 0.09 9.59-0.76 14.43-0.95z"/>
  <path d="m514.81 394.11c10.08-0.24 20.16-0.02 30.23-0.16 2.62 0.21 5.45-0.55 7.23 1.81 3.45 4.25 5.89 9.27 9.19 13.67 3.15 5.95 7.72 9.59 7.64 16.62 0.27 3.68-1.95 5.81-2.91 9.08-0.85 5.34 0.26 11.43 0.92 16.76-10.12 0.66-20.03-0.28-29.71-3.32-1.71-0.55-2.81-1.75-4-3.02-4.69-4.71-8.43-10.37-12.12-15.87-4.16-5.85-1.22-13.49-2.67-20.4-1.31-5.04-2.74-10.06-3.8-15.17z"/>
  <path d="m701.85 394.09c14.44-0.19 28.88-0.05 43.32-0.08 1.57 6.39-0.01 12.71 1.83 19 0.86 3.14 1.03 6.31 1.06 9.54-6.95 0.69-12.08 5.01-19.02 4.47-6.93-0.23-13.73 0.23-20.31 2.57-1.7-6.22-3.43-12.09-3.68-18.59-0.11-5.92-1.9-11.21-3.2-16.91z"/>
  <path d="m749.22 394.21c3.56-0.39 7.21-0.21 10.78-0.22 21.28 0.04 42.56-0.04 63.84 0.04-0.47 9.34 3.18 17.71 3.36 26.94 0.8 4.88 3.13 9.37 3.88 14.32-3.16-0.15-6.29-0.32-9.38-1.07-10.19-2.87-21.14 0.26-31.74-2.19-5.94-1.41-11.98-0.61-17.88-2.11-3.4-0.78-6.55-2.03-9.84-3.09-3.18-1.06-6.96-0.87-10.3-0.99-0.61-3.26-0.86-6.53-1.13-9.83-0.31-3.73-1.61-7.2-1.79-10.96-0.17-3.6-0.23-7.26 0.2-10.84z"/>
  <path d="m826.9 394.07c25.38-0.1 50.77-0.13 76.14 0.01-0.79 5.34-1.23 10.7-1.78 16.06-0.27 4.27-0.21 8.48-1.19 12.67-8.28 0.55-16.65 1.45-24.71 3.48-6.01 1.37-12.09 1.41-18.02 3-7.7 1.77-14.86 4.14-22.9 3.73-0.85-3.18-1.93-6.25-3.11-9.31-1.84-4.66-0.94-9.04-2.16-13.9-1.31-5.19-2.28-10.37-2.27-15.74z"/>
  <path d="m566.31 409.2c0.52 0.52 0.52 0.52 0 0z"/>
  <path d="m292.61 421.19c4.65-0.19 10.06-0.77 14.53 0.72 4.83 1.56 9.7 3.12 14.64 4.28 6.72 1.61 12.98 0.14 19.74 1.33 5.64 1.02 11.25 2.19 16.94 3 5.29 0.79 10.55 0.15 15.83 1.21 5.79 1.14 11.66 1.63 17.47 2.56 2.82 0.46 5.08 1.91 7.14 3.81 5.85 5.26 12.36 9.48 17.7 15.31 3.42 3.91 8.42 5.27 11.81 9.21 3.65 3.99 8.3 6.21 12.51 9.47 3.82 3.16 7.92 5.95 11.76 9.09-5.9 2.93-12.35 3.58-18.39 6.09-6.49 2.4-12.32 5.96-18.9 8.1-4.47 1.53-8.87 2.02-13.22 3.85-3.41 1.41-6.58 3.88-10.08 4.88-1.96-1.28-3.17-3.82-4.51-5.7-3.31-5.38-7.82-9.38-12.68-13.31-2.6-2.06-4.77-4.64-7.41-6.61-2.92-0.69-6.08-0.28-9.01-0.95-1.88-1.38-3.39-3.28-5.19-4.78-5.48-4.42-11.28-8.02-17.06-11.99-2.84-1.94-5.65-3.81-8.87-5.07-5.18-1.97-10.16-5.02-14.06-8.96-3.87-5.42-8.07-10.57-12.39-15.64-3.29-2.99-6.22-5.9-8.3-9.9z"/>
  <path d="m515.86 426.25c1.51 3.44 2.73 6.79 5.19 9.71 3.24 3.67 4.5 8.02 8.81 10.73-1.66 0.43-3.32 0.88-4.97 1.35 0.03 0.95 0.07 1.9 0.1 2.85 1.64 1.79 3.28 3.51 4.41 5.69 2.37 4.38 5.21 9.38 5.53 14.43 0.28 4.96 0.03 9.96 0.01 14.93-6.02 0.02-12.29 0.57-18.1-0.82-9.37-2.37-19.79-0.27-29.53-1.5-8.52-1.27-16.82-0.24-25.31-0.7-2.36 0.07-4.26-2.54-6.06-3.85-8.64-6.85-18.14-12.99-26.35-20.66-8.74-6.83-17.41-13.86-25.71-21.22 6.07-0.38 12.13-0.01 18.19-0.19 4.02-0.09 7.01-2.28 11.01-2.78 4.16-0.47 8.29-0.99 12.42-1.69 6.28-1.04 12.28-0.2 18.51-0.61 3.48-0.24 6.64-1.31 10.07-1.72 5.86-0.61 11.93 0.26 17.77-0.45 4.45-0.67 8.71-2.13 13.24-2.55 3.6-0.3 7.19-0.46 10.77-0.95z"/>
  <path d="m747.63 425.73c1.59 5.86-2.34 9.53-2.57 15.29-0.38 6.83 0.34 13.86-0.35 20.71-0.43 3.95-0.95 7.87-1.84 11.75-4.68 0.91-8.82 2.98-13.1 4.97-2.6-4.98-4.03-10.37-7.01-15.18-3.44-5.86-5.53-12.3-8.78-18.26-2.07-3.77-3.49-7.44-4.25-11.69 4.8-1.12 9.63-2.32 14.52-3 4.05-0.57 8.39 0.12 12.34-0.85 3.68-1.26 7.27-2.72 11.04-3.74z"/>
  <path d="m900.07 425.9c-1.98 13.12-0.69 26.73-1.12 40.05-10.49-0.06-20.73 0.49-31.12-0.54-13.2 1.11-26.61 0.41-39.88 0.55 1.56-3.81 3.93-7.78 4.03-11.92 0.19-4.86-0.02-9.74 0-14.6 2.88 0.37 5.97 0.77 8.86 0.42 3.93-0.62 7.02-3 10.42-4.52 4.12-1.44 8.57-1.95 12.81-3.03 7.89-1.3 15.74-2.87 23.54-4.69 4.12-0.96 8.23-1.55 12.46-1.72z"/>
  <path d="m752.53 429.26c7.6-1.04 15.72 4.66 23.42 4.7 4.71 0.01 9.18 0.32 13.81 1.27 10.13 2.02 20.29-0.62 30 1.86 2.98 0.71 6.29 0.89 9.07 2.16 0.92 9.21-0.85 18.09-4.17 26.66-11.89 0.19-23.78 0.06-35.66 0.08-4.97 0.07-10.5-0.49-15.31 0.78-2.87 0.62-5.28 1.67-8.22 0.7-2.23-0.46-4.47-1.84-6.69-0.73-4.12 1.68-8.1 3.76-11.9 6.07 1.62-9.28 1.06-18.5 1.1-27.86-0.03-5.61 1.78-10.87 4.55-15.69z"/>
  <path d="m862.38 431.21c0.99-0.53 1.55-0.16 1.69 1.1-1.09 0.22-1.65-0.14-1.69-1.1z"/>
  <path d="m780.95 468.98c13.84 0.02 27.69 0.04 41.53 0.01-0.6 4.69-0.34 9.36-0.55 14.06-0.18 4.23-2.91 7.54-2.88 11.9-0.04 4.53-0.09 8.92-1.25 13.34-4.65-1.54-8.28-3.53-12.91-4.17-4.21-0.56-8.41-1.01-12.67-1.04-2.75-4.61-5.49-9.16-9.14-13.14-5.15-5.8-9.02-12.43-14.53-17.84 4.08-1.61 7.89-3.27 12.4-3.12z"/>
  <path d="m845 469.01c6.67 0.09 13.35-0.18 20.01 0.04 2.55-0.29 3.59 2.41 4.7 4.2 3.81 7.97 6.57 16.54 8.22 25.21-5.7 1.4-10.57 4.32-15.92 6.56-4.05 1.75-8.26 2.95-12.35 4.59-1.46 0.56-2.91 1.18-4.48 1.36-8.17 0.51-15.98 0.05-23.88-2.24 1.17-6.13-0.24-12.7 2.14-18.31 3.08-6.76 0.27-14.02 2.97-21.09 6.14-0.62 12.42-0.25 18.59-0.32z"/>
  <path d="m871.39 469.01c9.42-0.04 18.86-0.03 28.28 0.05 0.78 7.66 3.3 15.14 4.99 22.76-3.77 1.76-7.1 3.7-11.22 4.56-3.76 0.79-7.6 1.18-11.4 1.72-2.64-6.83-4.25-14.13-5.98-21.22-0.74-3.26-2.8-5.27-4.67-7.87z"/>
  <path d="m760.81 469.73c4.17 4.08 8.44 7.84 11.86 12.61 5.54 7.69 12.2 14.14 16.52 22.69-5.91 3.57-9.72 9.09-15.12 13.23-3.17-4.28-5.77-8.78-7.63-13.78-1.25-3.3-3.67-5.41-6.08-7.84-2.94-2.8-3.33-6.75-6.61-9.34-3.03-2.77-7.27-5.19-6.67-9.96 3.55-3.67 9.03-5.83 13.73-7.61z"/>
  <path d="m739.04 478.2c2.09 0.13 3.95 0.77 4.9 2.78 1.85 3.43 3.68 5.88 6.64 8.44 3.27 2.79 4.29 6.72 7.11 9.87 3.42 4.01 5.88 8.67 9.27 12.71 1.79 2.6 4.92 6.38 4.11 9.71-5.59 5.37-11.9 10.28-18.33 14.62-3.14-5.47-5.24-11.38-6.37-17.57-0.47-3.12-0.16-6.37-0.78-9.45-2.03-4.83-5.18-9.46-7.81-13.95-2.14-4.65-5.02-8.87-7.05-13.58 2.67-1.24 5.44-2.95 8.31-3.58z"/>
  <path d="m451.95 485.97c0.07 6.49 0.34 12.86-0.59 19.32-0.89 7.03 0.61 15.96-2.56 22.55-1.53 1.32-3.98 1.64-5.89 2.06-8.23 1.4-16.43 2.89-24.63 4.43-9.89 2.2-19.78 1.55-29.65 4.31-4.17 1.22-8.32 1.5-12.64 1.41 2.59-3.49 4.75-7.29 8.03-10.02 3.65-3.09 6.83-6.98 8.42-11.53 0.75-2.91 0.4-6.09 1.04-9.02 4.73-5.81 12.15-8.8 19.45-9.59 7.47-0.94 12.45-5.53 19.66-8.33 6.21-2.81 12.69-4.36 19.36-5.59z"/>
  <path d="m458.19 486.2c7.77-0.39 15.94-0.33 23.71 0.03 8.74 1.32 17.37 0.57 26.14 0.78 4.05 0.04 7.5 1.48 11.31 2.53 4.84 1.24 10.61-0.17 15.53-0.66-1.2 4.86-1.93 9.42-2.21 14.43-1.88 0.84-4.08 1.26-5.23 3.13-2.04 3.03-3.76 6.29-5.6 9.45-4.89 0.01-9.53-0.18-14.11 1.85-8.92 3.87-17.44 2.46-26.59 4.44-8.43 1.91-17.41 4.02-26.08 3.88-0.01-5.71-0.22-11.42-0.05-17.12 0.02-3.77 1.9-6.56 2.71-10.09 0.65-4.14 0.01-8.46 0.47-12.65z"/>
  <path d="m905.67 495.09c1.1 4.46 2.01 8.96 2.77 13.49 1.16 6.96 3.43 13.58 4.37 20.58 0.5 3.97 1.02 7.94 1.38 11.93-6.51 1.58-13.48 3.21-20.21 2.88-3.99-0.17-7.91-1.28-11.86-0.9-3.57 0.43-6.78 2.53-9.98 4-2.08 1.07-4.84 0.85-7.14 0.96-5.77-0.06-11.03 1.23-16.7 2.03-0.23-4.37-0.15-8.57-1.6-12.77-2.4-6.51-1.94-14.17-1.47-20.99 2.19-1.65 5.12-2.4 7.61-3.55 7.33-3.34 14.7-6.53 22.05-9.84 2.78-1.33 5.23-0.54 8.02 0.14 2.95-1.78 5.56-2.9 9.07-3.09 5.22-0.29 9.03-2.96 13.69-4.87z"/>
  <path d="m803.83 507.18c6.56 0.95 10.96 5.4 17.43 6.51 5.38 0.85 11.02-0.23 16.37 0.62 0.95 0.75 1.78 1.67 2.23 2.81 2.48 6.75 1.47 14.18 3.31 20.67 0.95 3.74 1.62 7.48 2 11.33-6.74 0.47-11.79-3.11-18.2-4.09-5.63-0.89-11.08-3.56-16.37-5.67-3.37-1.24-5.12-4.72-7.82-7.13-2.88-2.88-6.43-4.01-9.67-6.35-4.18-2.81-6.6-6.92-10.35-10.65 2.76-3.41 5.76-6.18 10.03-7.56 3.69-1.73 7.16-0.96 11.04-0.49z"/>
  <path d="m519.78 518.83c-1.88 6.48-5.73 13.51-4.8 20.2 0.26 2.95 1.52 5.73 2.18 8.71 1.43 6.13 1.62 12.02 4.19 17.92 2.39 5.33 3.87 10.92 5.41 16.54-5.73-3.43-11.69-6.78-16.69-11.25-5.4-4.59-10.6-9.41-15.81-14.21-3.99-3.54-8.49-5.57-12.91-8.62-1.73 0.03-3.08 0.39-4.39-1.03-3.26-3.1-7.07-5.61-10.07-8.95-3.02-3.55-7.37-5.81-10.96-8.87 4.69-0.23 9.35-0.57 13.99-1.32 6.92-0.96 13.05-3.45 20.1-3.85 3.9-0.26 7.94 0.21 11.81-0.36 3.43-0.88 6.52-2.9 9.93-3.94 2.59-0.82 5.31-0.81 8.02-0.97z"/>
  <path d="m780.08 518.52c4.63 2.42 6.09 6.55 8.84 10.6 2.62 1.87 6.4 2.01 9.14 3.83 2.39 1.63 4.68 3.46 5.69 6.28 2.18 5.65 0.71 11.8 1.43 17.66 0.46 2.9 2.5 5.64 3.44 8.38 0.91 3.05 1.1 6.53 1.57 9.67 0.38 2.98 2.04 5.9 3.13 8.73 3.09 7.04 4.32 14.79 6.31 22.37-2.07 2.14-3.82 4.65-6.09 6.59-5.79 1.3-12.39-0.15-17.78-2.44-4.21-2.58-6.7-8.75-9.31-12.71-2.91-3.72-6.65-6.68-9.63-10.38 3.09-5.46 4.21-11.49 2.75-17.64-4.45-7.09-13.39-11.27-17.97-18.05-2.66-3.82-5.87-7.13-8.12-11.24 4.39-3.28 9.17-5.93 13.7-8.99 5.24-3.42 7.46-9.36 12.9-12.66z"/>
  <path d="m791.36 526.25c0.52 0.52 0.52 0.52 0 0z"/>
  <path d="m452.76 531.52c3.85 2.98 8.24 5.65 11.52 9.25 2.89 3.13 6.52 5.28 9.8 8.1-3.48 4.97-6.95 9.96-10.08 15.15-1.36 2.19-3.1 4.04-4.77 5.99-5.37-2.91-10.22-6.44-15.02-10.19-5.3-4.11-11.51-6.3-17.09-9.92-5.51-3.45-10.89-6.9-16.09-10.81 13.99-2.34 27.93-4.1 41.73-7.57z"/>
  <path d="m406.61 539.22c1.92 2.23 3.45 4.52 5.96 6.17 4.83 3.16 10.01 5.59 14.55 9.21-4.62 3.94-9.35 7.75-14.41 11.13-3.24 2.14-5.52 5.06-8.53 7.47-2.71 2.21-5.71 3.56-8.66 5.38-4.55 2.69-7.67 6.95-12.16 9.78-5.71 3.66-10.84 8.09-16.44 11.88-0.02-3.49 0.03-5.74 2.27-8.54-1.72-5.1-0.12-9.47-0.2-14.71-0.01-5.78 1.43-11.24 2.04-16.95 0.52-5.95 3.45-11.02 4.39-16.9 4.86-0.04 9.61-0.05 14.32-1.4 5.52-1.55 11.17-2.09 16.87-2.52z"/>
  <path d="m808.08 542.12c3.4 1.07 6.41 2.68 9.64 4.11 4.41 1.88 9.19 1.63 13.7 3.38 3.78 1.53 7.77 2.16 11.61 3.43 1.44 0.43 1.94 2.16 2.48 3.38 2.91 8.71 7.77 16.54 10.9 25.18 2.52 6.2 2.94 11.96 6.4 17.61 2.31 3.72 3.72 7.23 4.71 11.49-6.3-0.96-12.64-0.41-18.94-1.27-4.22-0.56-8.4-0.38-12.63-0.46-4.47-0.02-8.2-1.48-12.58-2.45-1.35-5.03-2.74-10.04-3.81-15.14-1.06-4.64-3.05-8.79-4.72-13.21-2.38-6.07-1.81-12.44-4.52-18.46-2.52-5.63-2.7-11.53-2.24-17.59z"/>
  <path d="m371.15 545.32c-2.74 7.72-3.36 15.73-4.98 23.71-0.24 6.74-0.17 13.3-1.42 19.98-3.86-1.3-7.66-2.36-11.08-4.66-3.57-2.31-7.48-3.44-11.49-4.68-3.66-1.05-6.64-3.31-10.26-4.47-2.53-0.91-5.49-1.64-7.36-3.72-1.31-5.59-2.38-11.48-2.7-17.22 6.79-0.21 13.35-1.93 20.11-2.34 6.05-0.56 11.82-1.05 17.46-3.5 3.86-1.69 7.54-2.6 11.72-3.1z"/>
  <path d="m913.77 544.81c1.78 5.88 0.87 11.65 1.75 17.62 0.58 4.92 1.51 9.57 1.49 14.54-0.01 9.69-0.03 19.38 0.03 29.08 0.12 4.16-0.97 9.03-3.71 12.26-1.73 1.5-3.96 3.61-6.35 3.67-7.63 0.76-15.36-1.44-22.22-4.66-3.51-1.61-7.54-2.33-10.86-4.25-3.72-3.81-4.54-9.83-7.44-14.55-3.85-6.31-5.37-13.24-6.61-20.44-0.72-4.34-2.64-8.44-4.56-12.36-2.06-3.99-2.5-8.31-4.01-12.68 5.57-1.31 11.04-2.13 16.78-2.05 4.13 0.08 7.51-1.57 11.41-2.61 8.32-3.05 16.26 1.47 25.11-0.94 3.04-1.05 5.96-2.25 9.19-2.63z"/>
  <path d="m477.08 551.15c1.38 3.38 1.86 6.9 2.49 10.47 2.06 8.97 3.91 18.06 4.74 27.23 0.55 4.28 2.55 7.87 2.65 12.09 0.22 3.9-0.32 7.98 0.33 11.83 0.86 2.83 2.57 5.43 3.82 8.11 2.78 5.93 7.34 10.35 9.25 16.77-3.33 1.76-6.78 4.11-10.47 5.01-3.76-0.45-7.38-1.85-11.17-2.35-5.64-0.78-11.21-1.45-16.6-3.42-5.19-1.94-10.42-1.85-15.84-2.29-8.92-1.2-17.57-0.23-26.6-0.78 2.19-1.82 4.69-3.41 6.64-5.49 2.67-3.47 3.55-8.76 5.45-12.64 1.88-3.7 5.91-6.2 8.01-9.77 1.3-2.39 1.86-5.52 3.51-7.67 2.01-2.6 4.71-4.59 6.85-7.13 4.18-4.63 5.23-10.79 9.56-15.37 6.67-7.7 10.58-17.09 17.38-24.6z"/>
  <path d="m317.65 554.15c0.81 6.01 2.66 11.77 3.56 17.75-4.08 0.11-8.17 0-12.26 0.11-6.22 0.07-11.61 2.9-17.91 2.97-7.42 0.08-14.86 0.05-22.28-0.09 1.98-5.16 4.1-10.06 8.36-13.78 3.87-4.46 11.6-3.81 17.06-4.91 7.81-1.44 15.67-0.81 23.47-2.05z"/>
  <path d="m481.92 553.7c4.95 3.21 8.28 8.04 13.26 11.22 4.35 3.45 9.08 5.08 11.76 10.27 4.95 5.17 14.41 6.38 19.62 11.36 1.73 7.41-0.35 14.04-6.41 18.72-8.4-5.32-17.52-4.09-27.72-5.49-0.43-3.37-1.29-6.45-2.47-9.62-1.27-3.59-0.65-7.26-1.47-10.79-1.03-3.19-2.92-5.87-3.53-9.24-1.04-5.62-3.06-10.65-3.04-16.43z"/>
  <path d="m431.11 556.71c5.01 1.32 8.8 4.27 12.87 7.32 4.04 3.15 8.4 5.94 12.6 8.87-2.32 4.02-4.19 8.26-6.4 12.33-2.58 4.58-6.59 7.19-9.87 11.08-2.27 2.83-2.12 6.91-4.59 9.43-2.01 2.31-4.46 4.26-6.09 6.86-1.9 2.98-2.47 6.67-4.24 9.82-2.18 4.06-6.05 7.4-9.31 10.71-3.28 2.72-8.55 2.42-12.27 4.7-5.87 3.45-12.12 6.04-18.4 8.61-1.96 0.89-4.28-0.11-6.29-0.51-5.1-1.46-11.01-0.85-16.34-1 2.17-10.3 0.32-20.6 2.19-30.89 0.53-3.11 0.85-6.61 2.99-9.06 7.46-8.9 17.63-12.32 25.43-20.6 4.34-4.42 10.41-6.55 15.85-9.19 4.51-2.15 7.08-6.73 10.94-9.98 3.55-2.93 7.24-5.74 10.93-8.5z"/>
  <path d="m308.07 575.17c4.21-0.41 8.52-0.16 12.74-0.09 1.05 4.28 2.11 8.55 3.36 12.78 1.28 4.48 4.31 8.28 6.32 12.65 2.82 6.13 5.27 12.39 6.76 18.98-6.84 0.54-11.62 5-18.14 6.59-17.26 4.57-34.39 9.57-51.58 14.38-7.77 2.13-15.69 3.89-23.39 6.24 2.32-7.96 6.97-14.35 11.3-21.28 2.66-4.03 3.31-8.48 4.83-13.15 2.53-8.26 2.46-16.94 0.05-25.21 1.11-3.54 5.11-6.59 8.04-8.73 8.71-1.02 17.73 0.29 26.49-0.55 4.48-0.53 8.77-2.06 13.22-2.61z"/>
  <path d="m325.06 577.79c1.67 0.64 3.27 1.44 4.83 2.32 5.44 3.29 12.1 4.63 18.07 7 5.29 2.18 10.69 4.02 16.01 6.14 0.21 4.59-0.03 8.83-1.39 13.24-2.32 8.22-1.44 16.16-1.57 24.55-0.02 5.1-1.14 10.08-2.22 15.05-1.82-0.03-3.66-0.05-5.46-0.28-2.57-2.9-4.08-6.9-5.86-10.31-3.6-6.97-5.89-14.34-7.99-21.87-1.93-7.99-6.23-15.7-10.27-22.81-2.15-3.99-3.22-8.62-4.15-13.03z"/>
 </g>
 <path d="m668.14 593.19c7.93-0.45 15.33-1.09 22.34 3.34 3.33 1.92 4.36 5.67 6.23 8.82 1.99 3.32 3.44 7.08 5.8 10.14 3.6 3.93 10.18 7.6 12.29 12.75 0.28 2.71 1.16 7.75-1.16 9.7-5.06 1.11-8.46-2.83-12.75-4.86-5.47-3.26-10.96-2.86-17.04-3.97-4.19-0.77-8.42-0.92-12.64-1.42-5.93-1.25-9.78-8.25-15.58-9.31-3-0.34-6 0.46-9.04 0.04-3.42-0.48-7.14-1.11-10.21-2.76-1.95-0.91-1.28-2.87-1.52-4.66 0.16-1.8-0.36-4.63 1.41-5.71 5.14-3.61 11.77-5.75 17.22-8.79 4.29-2.41 9.81-2.7 14.65-3.31z" fill="#060606"/>
 <g fill="#fff">
  <path d="m669.4 599.34c6.05-1.06 14.1 0.1 18.58 4.62 2.76 4.93 5.45 9.96 8.23 14.9 1.58 2.82 4.73 4.89 7.04 7.17-10.24-1.93-20.6-4.33-30.99-5.08-2.5-0.96-4.43-3.99-6.58-5.64-3.76-3.31-8.28-3.5-13.04-3.27-3.7 0.28-7.24-0.39-10.81-1.27 1.83-0.64 4.31-0.83 5.68-2.26 5.45-5.88 14.15-8.37 21.89-9.17z"/>
  <path d="m338.64 623.13c2.78 8.66 7.29 16.49 10.41 25-2.77 2.94-5.39 5.96-7.64 9.33-4.13 5.44-8.29 11.65-9.31 18.56-0.37 6.3 0.03 12.65-0.14 18.98-0.32 8.19 1.72 16.07 0.92 24.3-5.82-1.91-11.29-4.55-17.3-5.92-5.38-1.25-9.65-4.21-14.72-6.19-4.76-1.85-9.61-3.64-14.19-5.9-3.3-1.62-6.23-3.95-9.59-5.23-1.71-0.69-3.54-1.19-5.18-2.03-2.64-1.75-3.83-4.92-6.97-5.92-5.09-1.75-10.52-2.38-15.57-4.5-3.24-0.99-4.66-5.06-6.2-7.8-3.12-6.12-1.68-11.79-2.65-18.43-0.12-2.19-0.86-4.18 0.96-5.88 5.43-3.04 12.48-3.88 18.44-5.66 9.07-2.84 18.84-3.77 28.05-5.93 7.44-2.22 14.73-5.89 22.39-7.48 6.45-1.14 13.01-1.49 19.24-3.88 3.26-1.24 6.03-3.56 9.05-5.42z"/>
  <path d="m705.25 626.25c0.52 0.52 0.52 0.52 0 0z"/>
 </g>
</svg>
