<?xml version="1.0" encoding="UTF-8" standalone="no"?>
<!DOCTYPE svg PUBLIC "-//W3C//DTD SVG 1.1//EN" "http://www.w3.org/Graphics/SVG/1.1/DTD/svg11.dtd">
<svg xmlns="http://www.w3.org/2000/svg" version="1.1" viewBox="0 0 1024 768" width="1024.0pt" height="768.0pt">
<path d="M 0.00 0.00 L 1024.00 0.00 L 1024.00 768.00 L 0.00 768.00 L 0.00 0.00 Z" fill="#ffffff" />
<path d="M 807.34 37.17 C 811.17 36.22 815.88 39.23 819.49 40.41 C 825.16 42.22 831.08 44.64 837.05 45.06 C 841.59 45.37 844.39 42.03 848.94 41.97 C 853.75 41.80 859.09 41.55 863.60 43.39 C 873.20 47.12 882.66 51.41 892.42 54.68 C 895.72 56.19 898.47 59.44 901.18 61.83 C 907.91 67.94 911.58 75.30 916.13 82.90 C 922.21 90.78 927.17 99.31 931.99 108.00 C 934.30 112.10 935.85 116.68 938.41 120.63 C 942.51 125.80 947.26 130.54 952.59 134.46 C 959.89 140.15 965.81 147.12 972.68 153.27 C 975.22 155.28 977.66 156.96 979.03 160.04 C 981.78 164.54 980.93 168.97 981.04 174.00 C 980.81 181.76 981.49 189.76 980.46 197.43 C 979.66 203.40 980.39 209.34 979.40 215.31 C 978.43 224.58 974.40 232.91 973.16 242.14 C 972.02 250.12 969.04 256.99 966.66 264.64 C 963.03 276.45 955.87 287.09 949.83 297.88 C 946.28 302.46 943.68 307.57 940.20 312.17 C 938.15 315.06 937.19 318.39 935.27 321.28 C 933.41 324.10 931.21 326.41 929.04 329.04 C 925.92 332.59 923.72 337.12 921.14 341.16 C 918.66 344.98 916.60 348.99 915.47 353.42 C 912.44 366.36 910.63 379.51 909.63 392.75 C 907.17 405.06 907.24 417.43 905.72 429.84 C 904.48 438.38 905.19 447.27 904.98 456.00 C 904.64 468.49 908.20 479.95 911.23 491.79 C 913.25 499.12 914.00 506.68 916.01 514.00 C 921.08 532.40 919.70 550.49 922.79 570.15 C 923.34 583.08 922.79 596.08 923.07 609.03 C 923.28 613.84 922.36 618.46 919.27 622.27 C 916.76 625.11 914.12 628.00 910.03 627.99 C 904.47 628.21 898.52 628.34 893.10 627.01 C 889.88 626.24 886.35 625.96 883.44 624.49 C 878.01 621.69 872.18 619.65 866.45 617.54 C 859.55 614.93 853.44 616.61 846.28 615.66 C 838.29 614.37 830.80 616.08 823.05 613.04 C 820.86 615.33 818.62 619.29 815.03 619.00 C 807.14 619.37 797.72 619.12 790.53 615.47 C 786.14 611.66 783.67 606.91 781.01 601.92 C 778.33 596.96 772.84 594.44 770.04 589.85 C 770.14 584.62 772.94 580.64 773.95 575.89 C 774.33 573.90 773.39 572.33 772.03 570.97 C 765.82 565.37 759.15 559.52 754.31 552.65 C 752.69 550.37 750.58 548.35 749.20 545.91 C 747.90 543.03 747.34 539.88 745.95 537.02 C 742.60 530.17 740.53 522.61 739.87 515.02 C 739.64 511.12 736.77 507.48 735.20 503.89 C 732.79 498.25 730.38 492.20 727.04 487.01 C 724.09 482.18 722.36 476.93 720.14 471.77 C 717.41 466.49 714.38 461.40 712.15 455.86 C 709.42 448.99 705.43 443.50 703.76 436.22 C 701.77 427.99 699.41 419.49 698.93 411.02 C 698.58 405.38 696.84 400.29 695.02 395.01 C 693.74 391.38 694.26 387.94 693.60 384.24 C 692.98 381.72 691.79 379.35 691.29 376.78 C 690.61 372.71 691.44 368.35 690.58 364.33 C 689.57 360.94 687.60 357.94 686.58 354.53 C 684.77 348.87 685.10 343.57 684.32 337.73 C 683.64 331.93 684.58 326.29 683.14 320.86 C 680.91 311.82 678.77 302.44 675.14 293.86 C 673.53 290.01 672.24 286.05 670.81 282.14 C 668.72 276.35 664.84 271.68 663.21 265.69 C 660.81 259.44 660.05 252.81 657.38 246.67 C 655.44 242.10 656.64 238.06 653.82 234.18 C 649.63 228.33 645.47 223.00 642.89 216.13 C 640.16 208.76 636.99 201.58 633.38 194.60 C 630.97 190.03 630.29 184.98 627.39 180.61 C 625.05 177.27 625.45 173.27 622.58 170.39 C 618.85 166.04 616.74 159.84 614.12 154.78 C 609.61 147.41 604.15 140.57 600.03 132.97 C 597.66 128.74 597.23 124.39 596.19 119.75 C 595.39 115.74 594.06 112.19 593.99 108.05 C 593.74 99.04 594.53 90.52 593.44 81.52 C 592.85 78.40 594.84 75.87 596.27 73.27 C 597.83 70.50 600.35 68.79 602.27 66.36 C 603.48 63.55 602.95 59.62 606.15 58.18 C 609.96 56.04 613.03 53.06 616.52 50.51 C 619.80 49.64 623.47 50.10 626.85 49.70 C 630.90 49.23 634.92 48.88 639.00 48.96 C 647.68 49.05 656.36 48.95 665.04 48.98 C 674.73 49.08 682.70 52.49 692.16 53.81 C 697.60 54.52 702.49 55.94 707.96 55.98 C 719.33 56.19 730.67 58.15 742.04 58.07 C 747.08 58.18 751.61 56.71 756.38 55.30 C 760.34 54.11 763.17 51.25 767.14 50.14 C 771.73 48.76 776.35 49.39 780.87 47.85 C 784.18 46.80 787.52 46.06 791.02 46.04 C 792.71 45.86 794.81 46.12 796.35 45.35 C 799.98 42.69 803.39 39.33 807.34 37.17 Z" fill="#060606" />
<path d="M 810.92 44.47 C 820.59 46.82 830.72 51.93 841.06 51.05 C 845.07 50.85 847.85 48.00 851.97 47.92 C 856.41 47.53 860.44 48.78 864.44 50.53 C 870.37 53.03 876.38 55.07 882.09 58.07 C 880.52 61.00 878.98 64.23 876.76 66.72 C 875.90 67.70 874.90 68.03 873.63 68.08 C 859.04 68.87 844.56 70.67 830.01 71.89 C 826.38 72.09 822.70 71.79 819.09 72.17 C 814.73 72.76 811.25 75.54 806.98 75.88 C 799.47 76.52 791.97 77.35 784.46 78.06 C 783.33 70.32 779.61 63.44 778.84 55.57 C 781.71 55.03 784.42 54.31 787.10 53.15 C 791.16 51.33 795.39 52.41 799.71 51.75 C 803.01 49.67 806.80 45.12 810.92 44.47 Z" fill="#ffffff" />
<path d="M 640.16 54.92 C 638.30 60.58 635.86 66.02 634.04 71.70 C 632.16 77.23 629.07 81.36 628.33 87.26 C 627.77 92.40 627.14 97.43 625.30 102.30 C 623.84 106.08 623.93 109.89 623.85 113.87 C 616.56 112.61 609.00 112.69 601.67 113.58 C 600.70 110.11 599.87 106.68 599.96 103.04 C 600.03 94.42 599.95 85.80 600.07 77.19 C 603.06 75.23 606.55 73.64 609.16 71.19 C 610.32 69.39 609.98 66.39 610.32 64.27 C 613.47 62.13 616.39 59.76 619.33 57.36 C 621.07 55.74 623.77 56.15 625.98 55.95 C 630.74 55.92 635.41 55.11 640.16 54.92 Z" fill="#ffffff" />
<path d="M 645.44 55.33 C 650.88 54.59 656.54 55.11 662.03 54.99 C 672.41 54.92 681.09 58.52 691.18 59.84 C 695.88 60.46 700.16 62.05 704.96 62.00 C 711.71 61.97 718.33 63.20 725.09 63.18 C 724.71 66.62 723.89 70.26 724.38 73.65 C 724.79 76.71 725.36 79.74 725.84 82.79 C 715.02 81.11 704.19 79.79 693.46 77.52 C 689.70 76.70 685.90 76.21 682.07 75.83 C 677.29 75.35 672.99 73.33 668.22 72.71 C 663.46 71.82 658.76 72.04 653.95 71.98 C 648.74 71.97 644.29 70.47 639.06 69.68 C 640.58 64.72 642.55 59.65 645.44 55.33 Z" fill="#ffffff" />
<path d="M 775.63 54.76 C 776.05 59.79 777.00 64.53 778.76 69.27 C 780.06 72.77 780.96 76.24 781.01 80.00 C 781.27 87.49 783.53 94.58 786.61 101.36 C 788.04 104.52 788.05 107.72 788.26 111.11 C 775.64 109.78 762.58 109.32 749.95 110.82 C 743.67 111.12 737.48 110.80 731.26 112.04 C 731.07 108.03 730.63 104.15 729.82 100.21 C 728.02 92.04 730.02 84.02 728.13 75.83 C 727.14 71.85 727.64 68.06 728.13 64.06 C 735.31 63.75 742.62 64.50 749.74 63.64 C 756.25 62.05 762.58 61.82 767.80 57.81 C 770.18 56.04 772.83 55.53 775.63 54.76 Z" fill="#ffffff" />
<path d="M 886.32 59.24 C 888.93 60.45 891.19 62.69 893.56 64.38 C 901.18 69.14 906.08 78.13 910.24 85.78 C 914.95 91.90 919.23 98.22 922.89 105.04 C 923.92 106.71 923.00 108.74 922.54 110.46 C 920.68 115.79 918.27 120.94 915.91 126.06 C 908.54 124.28 901.09 123.30 893.80 121.14 C 888.68 119.56 883.51 118.84 878.67 116.39 C 873.81 113.93 869.00 115.93 863.95 113.96 C 860.32 112.49 856.93 111.91 853.03 111.74 C 855.96 105.24 860.44 99.76 863.26 93.22 C 866.25 87.66 869.83 82.42 872.89 76.87 C 874.62 73.56 878.47 72.34 880.02 69.08 C 881.86 65.49 883.34 62.09 886.32 59.24 Z" fill="#ffffff" />
<path d="M 871.93 72.00 C 867.39 80.11 862.01 87.67 858.03 96.07 C 854.85 101.37 851.53 106.89 847.44 111.52 C 843.48 112.48 839.06 111.89 835.00 112.01 C 825.63 111.77 816.04 112.57 806.76 111.33 C 802.31 110.76 797.78 111.32 793.36 110.71 C 791.18 109.15 791.35 106.50 790.80 104.12 C 790.38 101.23 789.25 98.63 788.12 95.97 C 786.08 91.16 785.14 86.30 783.94 81.25 C 791.64 80.56 799.32 79.68 807.02 79.03 C 809.32 78.86 811.40 78.37 813.55 77.55 C 818.18 75.75 823.03 75.11 827.98 75.01 C 842.66 74.55 857.30 71.42 871.93 72.00 Z" fill="#ffffff" />
<path d="M 638.54 73.32 C 640.71 72.59 643.56 73.76 645.75 74.18 C 650.56 75.45 654.97 74.77 659.86 75.22 C 667.65 76.01 675.03 78.37 682.82 79.23 C 697.22 81.33 711.49 84.49 725.94 86.27 C 725.99 91.43 725.74 96.32 726.67 101.37 C 727.78 106.92 727.82 112.36 730.04 117.65 C 723.77 115.48 717.66 113.09 711.12 111.83 C 704.85 110.60 699.07 108.20 693.18 105.80 C 684.73 102.68 676.76 98.04 668.13 95.87 C 662.35 94.40 657.26 91.49 651.28 90.65 C 644.76 89.47 639.01 87.44 633.84 83.17 C 635.27 79.91 636.56 76.28 638.54 73.32 Z" fill="#ffffff" />
<path d="M 304.41 75.26 C 306.30 74.94 308.37 75.41 310.27 75.60 C 314.87 76.24 319.40 75.81 323.99 76.08 C 327.33 76.28 330.78 77.85 333.93 78.97 C 336.50 80.00 339.21 80.72 341.09 82.88 C 344.26 86.47 347.42 89.96 349.94 94.06 C 352.41 98.20 356.05 101.32 358.56 105.42 C 362.37 111.73 367.74 117.63 370.81 124.29 C 372.25 129.68 367.29 135.49 367.07 141.00 C 366.73 148.67 367.26 156.37 366.96 164.04 C 366.82 167.72 366.01 171.29 366.00 174.99 C 366.35 188.89 369.36 202.09 372.48 215.56 C 374.70 223.72 378.66 232.33 384.83 238.24 C 387.19 240.77 391.77 237.49 394.60 238.38 C 397.16 239.60 399.28 241.74 401.74 243.20 C 411.04 248.42 419.91 254.13 429.86 258.14 C 439.86 262.10 448.23 268.69 458.00 273.03 C 464.13 276.12 470.00 279.92 476.36 282.66 C 479.44 284.04 482.78 282.73 486.11 283.87 C 489.19 284.89 492.25 286.25 495.20 287.57 C 495.80 290.27 496.44 292.89 497.80 295.32 C 500.00 298.90 498.44 302.84 500.44 306.58 C 502.65 311.01 503.17 315.78 504.64 320.42 C 507.09 324.44 510.41 328.15 514.54 330.48 C 519.31 333.29 523.26 337.06 527.74 340.25 C 530.66 342.38 534.41 343.51 537.09 345.89 C 539.56 350.78 538.18 357.59 540.70 362.39 C 542.49 365.76 545.13 368.55 546.90 371.98 C 549.08 375.90 550.23 380.11 551.99 384.19 C 552.79 386.32 555.64 387.53 557.45 388.72 C 558.02 391.08 558.41 393.43 559.38 395.67 C 561.86 399.82 565.46 402.04 569.27 404.75 C 572.20 406.47 572.20 411.20 573.09 414.17 C 575.03 420.92 575.65 427.87 574.80 434.84 C 574.26 437.23 571.82 439.45 572.13 441.90 C 572.54 446.61 573.62 450.85 572.80 455.70 C 571.78 456.89 570.34 457.54 568.82 457.80 C 557.67 458.81 546.72 457.59 535.88 454.93 C 537.48 458.20 539.15 461.31 540.17 464.83 C 541.37 468.59 540.99 473.07 541.04 477.01 C 540.92 483.20 541.53 488.92 540.01 495.00 C 538.91 499.17 539.26 503.40 538.65 507.61 C 537.40 510.06 532.75 509.63 531.39 512.40 C 527.20 519.24 522.50 527.08 521.24 535.07 C 523.03 542.29 523.65 549.61 525.13 556.90 C 526.05 561.65 528.48 565.54 529.78 570.19 C 531.30 575.87 533.22 580.99 533.09 586.97 C 533.02 591.39 533.59 596.55 531.64 600.59 C 530.17 603.90 528.77 607.52 525.53 609.50 C 522.42 611.80 518.43 611.44 515.08 609.87 C 508.14 606.32 500.93 607.11 492.74 605.97 C 493.55 615.29 500.70 624.05 505.28 631.82 C 507.60 634.70 504.74 639.30 504.57 642.68 C 500.35 644.73 496.22 647.40 491.74 648.81 C 488.08 649.61 483.73 647.64 480.10 646.96 C 473.59 645.34 467.23 645.58 460.94 643.12 C 455.79 641.17 450.57 641.01 445.15 640.70 C 438.09 639.74 431.07 640.00 423.97 639.97 C 417.30 639.87 410.58 641.58 404.66 644.65 C 399.57 647.29 394.25 649.35 389.34 652.33 C 385.35 654.14 379.64 652.54 375.56 651.54 C 368.88 650.01 362.73 651.82 355.95 652.32 C 353.21 652.37 350.98 655.41 349.36 657.32 C 345.61 662.66 341.58 667.29 339.57 673.64 C 337.50 678.38 338.00 682.99 337.98 688.00 C 338.05 693.88 337.73 699.57 338.56 705.42 C 339.25 710.53 338.75 715.62 339.39 720.72 C 339.69 723.28 340.21 726.13 339.85 728.70 C 338.41 730.91 336.06 730.19 334.53 728.52 C 330.95 724.87 326.61 723.83 322.01 721.98 C 316.53 719.84 310.88 719.23 305.66 716.35 C 298.91 712.66 291.44 710.93 284.65 707.37 C 280.60 705.41 277.00 702.74 272.86 701.22 C 270.66 700.39 268.33 699.75 266.22 698.74 C 263.94 697.51 262.54 693.89 259.83 693.25 C 254.41 691.62 248.14 690.48 243.00 687.98 C 241.59 687.33 240.87 686.15 240.23 684.79 C 238.65 681.34 236.92 677.81 235.84 674.16 C 234.74 670.64 235.09 666.70 234.84 662.99 C 234.68 659.20 233.55 654.94 234.15 651.21 C 234.89 648.95 236.63 646.93 237.83 644.88 C 239.64 641.94 240.43 638.86 241.84 635.76 C 245.10 628.84 250.81 622.33 253.01 615.02 C 254.66 609.66 256.29 604.68 256.09 598.98 C 256.15 592.96 252.87 588.51 254.14 582.27 C 255.14 580.41 257.06 579.02 258.44 577.42 C 263.98 572.03 265.83 563.77 270.53 557.56 C 272.75 555.11 274.48 552.41 278.08 552.15 C 287.38 551.24 296.75 548.97 306.00 548.99 C 311.38 549.03 316.65 547.99 322.02 547.98 C 328.45 547.91 334.55 545.87 341.01 545.98 C 349.69 545.97 357.55 543.04 365.16 539.12 C 371.50 535.61 376.17 528.37 381.37 523.36 C 384.54 520.09 388.04 515.04 386.85 510.25 C 385.75 506.54 383.21 503.13 380.99 499.99 C 377.50 495.20 373.07 492.15 368.68 488.31 C 367.05 486.97 365.37 485.54 363.49 484.57 C 360.46 483.72 356.80 484.33 353.96 482.99 C 350.43 480.82 348.35 476.59 344.69 474.33 C 339.61 471.09 334.60 467.77 329.62 464.37 C 325.09 461.19 319.76 459.98 315.31 456.70 C 313.20 455.15 310.95 453.72 309.00 451.97 C 306.56 449.37 305.10 445.98 302.69 443.31 C 298.98 439.25 296.01 434.79 291.55 431.43 C 288.29 429.04 287.18 425.67 285.79 422.06 C 281.32 422.06 276.65 421.60 272.23 422.29 C 268.75 423.41 265.54 425.60 262.40 427.44 C 258.39 429.82 257.03 433.92 253.59 436.74 C 250.47 437.57 247.41 437.09 244.75 435.24 C 238.47 430.99 232.75 425.88 226.85 421.13 C 222.43 417.61 220.25 412.71 216.24 408.76 C 213.67 406.17 211.82 403.13 209.89 400.06 C 207.73 396.61 204.32 394.96 202.65 391.16 C 200.01 385.58 195.84 380.73 192.60 375.43 C 190.26 371.49 187.24 368.18 184.39 364.63 C 182.17 361.88 180.72 358.28 178.16 355.87 C 175.45 354.37 172.09 354.10 169.32 352.62 C 165.58 350.54 161.63 348.44 158.72 345.29 C 150.61 336.29 145.97 326.14 139.82 316.16 C 137.23 311.63 132.27 309.14 127.14 309.06 C 124.88 309.45 123.33 312.64 122.60 314.58 C 120.58 320.14 118.07 325.01 118.04 331.01 C 117.72 333.63 118.47 336.31 115.61 337.69 C 105.10 339.14 95.15 337.12 85.23 333.73 C 84.01 333.34 83.27 332.44 82.50 331.48 C 79.44 327.64 77.90 323.10 74.67 319.33 C 71.88 316.14 68.79 313.20 65.72 310.28 C 62.85 307.53 59.82 305.77 57.60 302.46 C 54.01 296.79 48.86 292.46 45.18 286.82 C 40.68 280.06 39.98 272.37 35.48 265.54 C 33.36 261.81 30.04 258.53 28.50 254.55 C 27.11 249.43 26.55 243.35 27.12 238.09 C 28.01 233.37 30.94 229.03 32.39 224.41 C 34.34 218.33 38.37 213.65 40.67 207.73 C 41.35 206.30 41.94 204.12 43.37 203.27 C 48.73 202.34 54.47 203.11 59.74 204.23 C 66.17 205.61 72.69 204.41 79.15 205.83 C 83.64 206.88 88.69 206.43 92.94 208.13 C 98.52 211.23 104.10 214.21 109.91 216.89 C 117.47 212.29 124.91 208.62 131.44 202.44 C 135.54 198.32 138.18 193.24 141.88 188.86 C 144.79 186.38 148.76 185.38 151.56 182.58 C 156.10 177.77 161.44 173.70 166.95 170.07 C 170.43 168.60 174.08 166.95 177.75 166.04 C 179.08 166.86 180.25 167.99 181.44 169.00 C 184.18 167.11 186.76 165.01 189.35 162.92 C 185.63 161.91 180.44 160.60 180.08 155.94 C 179.88 147.61 179.62 139.13 180.74 130.85 C 181.30 125.57 180.74 120.32 181.04 115.06 C 181.01 113.80 181.65 111.80 183.20 111.94 C 187.37 111.47 191.25 115.36 194.91 117.01 C 200.31 119.42 205.73 121.74 211.04 124.37 C 215.73 120.83 217.71 115.73 221.41 111.47 C 226.59 107.70 229.76 103.19 236.23 102.17 C 238.50 101.95 242.45 101.21 243.98 103.35 C 244.97 107.60 240.54 108.66 237.91 110.86 C 238.40 111.99 238.90 113.11 239.41 114.22 C 246.83 113.63 251.69 109.52 257.64 105.64 C 261.62 103.06 265.40 99.00 266.18 94.16 C 267.18 89.86 266.76 85.59 267.23 81.26 C 268.65 80.18 270.65 79.77 272.35 79.30 C 278.93 77.72 285.11 76.32 291.94 77.08 C 294.90 77.48 297.80 79.57 300.32 81.09 C 301.55 79.14 302.65 76.78 304.41 75.26 Z" fill="#060606" />
<path d="M 311.95 81.99 C 316.65 81.88 322.24 81.41 326.61 83.36 C 330.76 85.17 334.85 85.53 337.91 89.08 C 342.35 93.27 344.67 98.80 348.76 103.24 C 352.21 106.98 354.42 111.43 357.58 115.42 C 360.45 119.03 362.61 123.03 364.92 127.01 C 363.13 131.70 360.91 135.81 360.96 140.95 C 360.92 146.93 361.06 152.92 360.97 158.90 C 355.57 162.02 349.78 164.28 344.38 167.39 C 339.37 170.31 333.93 172.18 328.78 174.81 C 322.85 177.89 317.45 181.59 311.43 184.44 C 308.11 186.03 304.99 187.95 301.83 189.82 C 297.38 192.48 292.62 194.51 288.19 197.18 C 283.74 199.78 279.37 202.23 274.26 203.27 C 265.41 205.13 259.83 211.06 252.30 215.28 C 246.04 218.66 240.67 222.74 233.71 224.67 C 229.23 225.84 225.41 228.25 221.18 229.96 C 216.90 223.30 213.82 216.70 207.08 211.95 C 203.74 209.63 201.91 207.54 200.04 203.92 C 198.22 200.12 194.60 198.12 192.45 194.67 C 188.61 187.03 180.76 182.32 175.65 175.32 C 179.78 174.84 183.58 175.79 186.90 172.89 C 192.69 168.39 198.73 164.29 205.14 160.71 C 204.88 158.48 205.43 155.60 203.72 153.94 C 199.84 154.27 195.94 156.93 192.06 156.95 C 189.99 156.66 187.95 155.81 186.01 155.07 C 186.08 148.26 185.62 141.23 186.56 134.58 C 187.19 129.75 187.02 125.11 186.99 120.25 C 192.25 123.19 197.92 125.01 203.33 127.66 C 207.19 129.53 211.30 130.46 215.51 131.15 C 218.26 126.14 222.21 122.00 225.11 117.06 C 226.46 114.63 229.35 114.14 231.71 113.08 C 232.86 114.91 233.89 117.08 235.43 118.61 C 239.21 120.61 244.01 120.45 247.92 118.92 C 252.86 117.03 257.47 113.79 261.85 110.84 C 265.78 108.26 268.82 104.18 271.16 100.16 C 273.48 95.63 272.66 91.09 273.28 86.29 C 276.91 83.65 282.65 83.24 287.03 82.94 C 291.88 82.36 293.29 87.30 297.95 87.11 C 299.91 87.20 301.91 87.18 303.84 86.86 C 307.43 86.19 308.05 81.66 311.95 81.99 Z" fill="#ffffff" />
<path d="M 631.88 86.12 C 634.25 87.67 636.54 89.68 639.15 90.80 C 643.26 92.49 647.58 93.51 651.98 94.07 C 656.89 94.63 660.49 97.39 665.33 98.60 C 675.35 101.04 684.38 106.45 694.19 109.90 C 700.57 112.91 707.32 114.21 714.10 115.92 C 719.87 117.49 725.50 119.66 730.94 122.13 C 731.05 127.10 730.89 132.07 731.00 137.05 C 731.04 141.10 732.46 144.55 733.43 148.40 C 734.74 154.80 735.17 161.29 735.01 167.81 C 731.70 165.06 727.95 163.00 724.48 160.49 C 715.82 153.34 706.56 146.88 697.12 140.81 C 695.34 139.58 694.00 137.99 692.60 136.36 C 689.41 132.56 685.02 130.09 681.46 126.55 C 678.62 124.09 675.04 120.82 671.06 121.03 C 664.29 120.95 657.72 119.68 651.02 118.93 C 646.12 118.38 641.32 115.54 636.50 114.56 C 633.42 113.91 630.06 113.94 626.91 113.83 C 626.97 111.64 626.92 109.37 627.28 107.21 C 628.03 103.49 630.49 99.77 630.81 95.98 C 631.13 92.63 631.03 89.41 631.88 86.12 Z" fill="#ffffff" />
<path d="M 926.15 110.70 C 930.21 116.44 930.18 123.31 935.19 127.80 C 939.33 131.67 943.35 135.83 948.01 139.05 C 951.31 141.54 954.17 144.60 957.32 147.28 C 953.37 151.39 949.73 155.81 945.47 159.49 C 942.44 162.13 940.21 165.49 937.26 168.26 C 933.96 171.52 929.86 173.57 925.96 176.41 C 918.17 172.66 909.85 170.72 901.80 167.66 C 903.16 163.02 905.60 159.02 907.84 154.78 C 910.60 149.97 909.74 144.43 912.54 139.54 C 915.63 133.92 918.41 128.15 921.57 122.57 C 923.73 118.78 924.60 114.72 926.15 110.70 Z" fill="#ffffff" />
<path d="M 782.08 113.79 C 788.67 114.35 795.41 113.74 802.03 114.09 C 816.19 115.81 830.70 114.69 844.98 115.00 C 840.92 121.32 836.99 127.71 832.75 133.92 C 818.51 134.08 804.25 133.99 790.00 133.96 C 782.93 133.80 776.04 135.32 768.95 135.00 C 763.24 134.71 758.65 138.02 753.06 138.01 C 746.73 138.10 740.39 137.96 734.05 137.95 C 733.97 130.30 733.96 122.65 734.06 115.00 C 739.71 113.61 745.27 114.17 751.00 113.87 C 761.27 112.67 771.81 112.53 782.08 113.79 Z" fill="#ffffff" />
<path d="M 851.12 115.05 C 857.23 114.01 861.22 117.39 866.95 118.00 C 870.66 118.46 874.15 119.20 877.72 120.29 C 889.76 123.85 902.04 126.52 914.11 129.96 C 912.05 133.53 909.56 137.24 908.21 141.13 C 906.90 144.97 907.13 148.61 905.28 152.26 C 902.92 157.03 900.19 161.50 898.55 166.61 C 895.13 165.03 891.79 163.24 888.32 161.78 C 882.97 159.66 877.43 158.16 872.13 155.94 C 867.92 154.36 864.32 152.11 859.88 151.17 C 857.26 150.44 854.27 150.29 851.82 149.13 C 846.41 144.72 843.48 139.16 840.23 133.15 C 842.72 129.23 845.95 125.49 846.99 121.02 C 847.83 118.82 848.12 115.24 851.12 115.05 Z" fill="#ffffff" />
<path d="M 620.32 116.58 C 625.82 117.27 630.95 116.57 636.13 117.91 C 639.11 118.62 641.90 120.10 644.85 121.17 C 650.96 123.86 657.68 122.95 664.24 124.87 C 667.53 125.96 670.64 125.97 674.05 125.56 C 674.32 126.24 674.57 126.92 674.81 127.61 C 667.81 132.18 660.14 135.56 653.12 140.14 C 650.87 141.67 648.47 142.91 646.05 144.16 C 642.64 145.86 641.04 148.71 638.02 151.07 C 633.63 154.89 627.98 155.78 623.00 158.95 C 621.80 156.19 620.85 153.21 619.30 150.63 C 614.86 143.79 609.80 137.26 605.87 130.11 C 603.52 126.05 603.18 121.78 602.83 117.21 C 608.74 117.20 614.54 115.76 620.32 116.58 Z" fill="#ffffff" />
<path d="M 679.02 129.89 C 683.54 132.66 687.76 135.79 690.98 140.06 C 693.51 143.34 696.89 144.68 700.27 146.81 C 702.81 148.36 704.00 151.80 706.26 153.77 C 708.03 155.32 709.90 156.75 711.77 158.17 C 714.27 160.12 717.29 160.35 719.75 162.26 C 723.12 164.85 726.01 167.92 729.36 170.57 C 731.41 172.16 733.15 174.00 734.86 175.94 C 728.60 180.62 721.57 183.91 714.10 186.13 C 707.00 188.23 701.59 192.08 694.91 195.14 C 693.27 192.26 691.32 189.76 690.52 186.58 C 689.68 183.33 689.23 180.11 687.97 176.97 C 686.86 174.11 685.09 171.86 684.32 168.83 C 683.37 165.32 682.48 160.82 680.10 157.98 C 671.70 154.75 664.27 149.95 656.28 145.83 C 659.12 142.59 662.19 140.03 666.01 138.03 C 670.56 135.63 674.51 132.33 679.02 129.89 Z" fill="#ffffff" />
<path d="M 826.77 136.79 C 826.22 139.65 826.03 143.06 824.57 145.61 C 822.17 149.87 818.91 153.28 816.34 157.32 C 813.82 161.26 811.25 165.16 808.67 169.06 C 800.75 167.96 792.95 167.82 784.97 167.94 C 778.80 167.82 772.59 170.36 766.56 171.67 C 762.42 173.07 758.26 173.05 753.95 173.01 C 748.27 172.90 743.52 174.78 738.09 176.14 C 737.89 169.41 738.09 162.68 738.03 155.96 C 738.01 150.72 736.51 146.00 734.90 141.09 C 742.23 140.81 749.61 141.31 756.92 140.80 C 767.72 139.26 778.95 140.40 790.03 139.93 C 793.36 139.77 796.62 139.13 799.96 139.05 C 805.63 138.81 810.85 139.52 816.34 138.27 C 819.83 137.48 823.20 136.99 826.77 136.79 Z" fill="#ffffff" />
<path d="M 836.71 136.79 C 834.90 141.50 834.33 146.41 833.17 151.28 C 830.83 158.24 827.07 164.43 825.70 171.79 C 824.66 175.54 825.79 178.72 826.51 182.37 C 827.20 185.76 827.95 189.13 828.86 192.46 C 828.30 192.42 827.74 192.39 827.18 192.35 C 828.08 193.53 829.45 194.72 829.80 196.17 C 830.45 200.22 830.78 204.13 829.00 207.95 C 826.63 212.90 827.11 218.20 825.29 223.29 C 823.59 227.99 822.08 233.16 819.36 237.38 C 817.90 239.72 815.52 240.78 813.75 242.73 C 812.27 244.89 811.43 247.73 809.64 249.63 C 808.08 250.93 806.06 251.79 804.20 252.58 C 803.74 238.74 804.15 224.85 803.97 211.00 C 803.83 206.60 804.50 202.32 804.91 197.96 C 805.39 193.05 803.36 188.05 804.26 183.31 C 805.44 179.41 809.15 176.90 811.00 173.07 C 813.65 167.50 817.54 162.81 820.57 157.48 C 822.69 153.97 825.80 151.27 827.64 147.71 C 829.12 144.89 828.94 141.22 830.30 138.32 C 831.38 136.46 834.85 137.15 836.71 136.79 Z" fill="#ffffff" />
<path d="M 839.45 139.65 C 842.99 145.01 847.44 149.59 851.14 154.83 C 854.44 159.61 859.40 162.53 862.28 167.73 C 865.30 171.91 863.63 177.40 863.24 182.12 C 862.63 190.37 863.20 198.71 862.94 206.98 C 859.64 205.87 856.52 205.20 853.06 204.81 C 849.26 204.36 846.40 202.27 842.81 201.33 C 839.93 200.78 836.84 200.95 833.91 200.93 C 832.74 198.66 832.04 196.62 831.98 194.03 C 831.70 187.47 829.30 181.27 828.47 174.80 C 828.33 173.61 828.83 172.35 829.20 171.24 C 831.51 165.29 834.14 159.44 836.28 153.44 C 837.35 148.75 837.30 144.10 839.45 139.65 Z" fill="#ffffff" />
<path d="M 649.89 145.81 C 653.80 148.56 657.65 151.10 662.04 153.05 C 667.09 155.89 671.82 158.83 677.31 160.81 C 680.64 164.04 680.51 170.40 682.73 174.34 C 684.34 177.28 685.75 180.25 686.32 183.59 C 687.11 187.06 686.71 190.23 688.79 193.18 C 693.03 199.72 696.83 206.37 699.13 213.87 C 695.89 213.98 692.45 213.72 689.28 214.40 C 686.10 215.41 683.22 217.09 679.93 217.84 C 675.99 219.02 672.02 219.03 667.95 218.97 C 665.99 219.08 663.64 218.72 662.04 220.05 C 659.52 221.97 657.31 223.20 654.30 224.23 C 651.83 219.61 648.98 215.44 647.39 210.64 C 645.09 203.69 642.16 197.13 637.81 191.21 C 635.93 188.77 635.82 185.83 635.03 182.87 C 634.31 179.06 631.68 176.62 629.99 173.10 C 628.22 169.43 626.75 165.64 624.86 162.03 C 628.10 159.76 630.89 158.37 634.84 157.73 C 641.63 156.58 643.46 148.37 649.89 145.81 Z" fill="#ffffff" />
<path d="M 959.84 150.62 C 962.08 152.21 964.23 153.88 966.02 155.98 C 968.85 159.30 972.48 162.67 974.49 166.52 C 975.08 168.20 974.99 170.18 975.05 171.95 C 975.01 178.83 974.98 185.71 975.00 192.59 C 970.33 191.02 965.57 189.75 960.94 188.06 C 950.45 184.32 939.90 182.39 929.71 177.81 C 934.43 174.65 939.58 172.30 944.40 169.32 C 947.53 167.37 948.58 164.31 950.30 161.23 C 952.57 156.97 955.74 153.23 959.84 150.62 Z" fill="#ffffff" />
<path d="M 854.51 153.30 C 861.29 154.29 866.91 157.30 873.15 159.84 C 876.98 161.44 880.97 162.75 884.88 164.12 C 889.92 165.83 894.19 168.71 899.15 170.83 C 903.05 172.57 907.15 173.27 911.40 174.54 C 916.80 175.90 921.55 178.30 926.72 180.33 C 926.98 187.46 928.74 194.25 929.69 201.30 C 930.63 208.05 931.65 214.83 932.14 221.64 C 929.91 220.63 927.49 219.22 925.03 219.08 C 921.05 218.76 916.98 219.25 913.02 218.85 C 910.23 218.52 907.49 217.09 904.74 216.41 C 898.80 214.99 892.82 215.18 886.90 213.43 C 879.94 211.61 873.01 209.64 866.01 208.01 C 866.02 201.33 865.96 194.65 865.99 187.97 C 865.94 181.49 867.83 175.64 866.79 169.18 C 864.35 162.07 858.59 158.79 854.51 153.30 Z" fill="#ffffff" />
<path d="M 361.06 163.06 C 360.40 168.72 359.53 174.23 360.12 179.95 C 360.85 186.43 361.20 192.89 362.71 199.26 C 364.70 208.18 365.87 218.08 369.63 226.35 C 370.56 228.52 371.38 230.73 372.21 232.94 C 367.58 235.29 363.21 236.50 358.05 237.06 C 352.03 237.74 347.36 240.47 341.79 242.72 C 336.32 244.79 331.59 248.19 326.04 250.11 C 323.50 250.96 320.27 252.66 317.66 251.38 C 313.53 249.71 309.66 247.59 306.11 244.90 C 302.06 241.81 297.51 239.60 293.37 236.65 C 289.27 233.76 285.38 230.60 281.23 227.76 C 278.03 225.62 275.63 222.75 272.85 220.15 C 269.83 217.34 265.92 215.92 262.78 213.46 L 262.47 212.43 C 264.82 210.70 267.47 209.35 270.09 208.10 C 274.36 206.12 279.05 206.00 283.33 204.29 C 288.92 201.96 293.24 198.56 298.58 195.59 C 303.56 192.83 308.18 189.72 313.30 187.29 C 319.49 184.34 325.11 180.40 331.31 177.32 C 336.05 174.98 340.98 173.22 345.58 170.59 C 350.60 167.77 355.72 165.19 361.06 163.06 Z" fill="#ffffff" />
<path d="M 806.20 172.25 C 804.42 175.41 802.25 178.73 801.26 182.23 C 800.53 185.90 801.40 190.20 801.38 193.90 C 801.24 196.26 799.84 198.61 798.44 200.46 C 796.35 203.32 792.61 204.79 790.43 207.40 C 789.30 209.28 789.00 211.78 788.51 213.90 C 783.06 213.92 777.85 213.65 772.65 215.65 C 768.12 217.36 763.68 216.87 758.97 217.08 C 754.55 217.18 751.15 220.40 746.94 220.83 C 743.37 221.16 739.85 220.83 736.26 221.37 C 733.38 221.83 730.53 222.53 727.66 223.04 C 728.63 219.44 730.41 216.19 731.58 212.69 C 732.42 208.99 731.67 204.94 732.24 201.18 C 733.02 198.50 736.15 196.59 736.84 193.88 C 737.34 189.40 736.97 184.78 736.76 180.28 C 744.87 177.03 753.34 176.18 761.99 175.83 C 767.42 175.18 772.58 174.93 778.06 175.00 C 782.86 175.07 787.15 173.01 791.94 173.03 C 796.72 172.99 801.46 172.98 806.20 172.25 Z" fill="#ffffff" />
<path d="M 807.26 172.28 C 807.76 172.79 807.76 172.79 807.26 172.28 Z" fill="#ffffff" />
<path d="M 171.58 175.77 C 175.63 181.26 180.50 185.92 185.37 190.67 C 187.42 192.58 188.41 194.98 189.74 197.38 C 190.98 199.80 193.91 201.19 195.60 203.35 C 197.31 205.69 198.32 208.63 200.14 210.87 C 202.32 213.30 205.37 214.94 207.73 217.26 C 211.46 220.88 214.43 225.55 217.05 230.02 C 219.27 233.48 221.74 236.75 223.68 240.39 C 225.12 243.17 227.76 245.23 229.02 248.05 C 229.14 249.96 227.69 250.40 226.45 251.47 C 220.50 255.60 214.40 259.58 208.00 262.99 C 202.06 265.93 196.28 269.22 190.56 272.56 C 186.80 274.68 184.49 277.85 181.66 280.98 C 180.02 279.08 178.45 277.08 176.65 275.33 C 174.33 273.13 171.47 271.86 169.05 269.91 C 167.16 268.21 166.20 265.43 164.56 263.48 C 162.37 261.85 159.66 261.28 157.82 259.13 C 155.44 256.47 153.98 253.01 151.91 250.08 C 148.91 245.74 145.96 241.38 142.97 237.04 C 140.41 233.17 136.26 231.26 133.53 227.50 C 130.74 223.60 127.31 220.41 123.90 217.07 C 126.41 215.19 129.00 213.38 131.39 211.36 C 134.33 208.87 136.28 205.77 139.52 203.57 C 144.70 199.89 150.63 196.65 153.86 190.94 C 155.54 187.93 157.23 185.16 160.15 183.17 C 163.88 180.66 167.48 177.58 171.58 175.77 Z" fill="#ffffff" />
<path d="M 734.04 180.78 C 734.03 184.90 734.00 188.80 732.71 192.76 C 731.89 195.10 730.30 197.11 729.40 199.33 C 728.57 203.02 729.37 207.03 728.67 210.76 C 727.88 213.92 725.77 216.95 725.18 220.15 C 724.50 224.04 724.75 227.89 723.75 231.76 C 722.92 235.10 721.08 237.94 720.34 241.24 C 719.87 243.79 719.91 246.46 719.81 249.05 C 715.58 249.07 711.56 249.13 707.60 247.40 C 702.10 245.43 698.50 241.50 692.98 241.09 C 687.27 240.59 681.82 238.81 676.68 236.31 C 674.92 235.39 673.26 234.61 672.26 232.78 C 670.20 229.31 668.35 225.70 666.38 222.18 C 671.67 221.40 676.71 220.99 682.06 220.94 C 685.76 221.01 688.40 217.40 692.02 217.14 C 695.33 216.84 698.68 216.94 702.00 216.84 C 702.80 209.70 699.55 204.39 696.74 198.19 C 701.86 195.52 706.92 192.40 712.22 190.27 C 716.05 188.74 720.13 188.47 723.88 186.84 C 727.44 185.28 730.64 182.77 734.04 180.78 Z" fill="#ffffff" />
<path d="M 929.93 182.19 C 934.17 182.98 937.95 184.68 942.08 185.85 C 952.94 188.84 963.63 192.60 973.96 197.08 C 974.61 209.08 973.16 220.99 968.69 232.19 C 962.21 231.09 956.14 228.83 949.77 227.26 C 945.52 226.24 941.48 224.48 937.71 222.28 C 936.75 221.83 936.15 221.11 935.93 220.10 C 934.19 214.15 934.19 207.15 933.82 201.07 C 933.04 194.65 930.15 188.81 929.93 182.19 Z" fill="#ffffff" />
<path d="M 800.84 203.29 C 799.90 206.90 798.69 210.06 799.09 213.88 C 799.67 218.97 801.09 223.77 801.02 228.96 C 801.02 236.30 800.64 243.60 801.00 250.95 C 789.99 251.05 778.99 250.97 767.98 251.01 C 762.61 251.06 757.39 249.87 752.01 249.97 C 742.32 250.03 732.63 249.94 722.94 250.07 C 722.96 246.35 722.80 242.85 724.43 239.39 C 726.38 235.22 727.41 230.84 728.30 226.35 C 732.49 225.51 736.75 224.16 740.96 224.09 C 743.59 223.98 746.28 224.10 748.88 223.76 C 751.90 223.26 754.74 221.63 757.75 220.83 C 762.01 219.56 766.38 220.38 770.71 219.57 C 774.17 218.86 777.47 217.40 781.01 217.13 C 784.45 216.87 787.92 216.95 791.37 216.83 C 791.98 214.53 792.42 211.75 793.82 209.78 C 795.65 207.26 798.43 205.26 800.84 203.29 Z" fill="#ffffff" />
<path d="M 834.42 204.24 C 837.30 203.66 840.41 203.74 843.12 204.97 C 846.07 206.23 848.75 207.69 852.02 207.91 C 858.04 208.21 862.98 211.61 868.96 212.13 C 873.62 212.67 877.28 215.72 881.85 217.10 C 885.70 218.32 889.94 217.90 893.99 218.12 C 898.50 218.38 902.96 219.08 907.16 220.78 C 911.72 222.64 915.95 221.66 920.76 222.34 C 924.13 222.85 927.44 223.79 930.77 224.50 C 931.04 232.72 931.54 241.34 930.15 249.46 C 929.73 252.96 929.94 256.59 929.95 260.11 C 925.62 259.89 921.34 259.20 917.01 259.03 C 909.94 258.81 903.05 257.26 895.98 257.01 C 890.65 257.05 886.34 254.05 881.04 254.00 C 864.13 253.86 847.20 254.22 830.29 253.84 C 829.18 251.35 828.17 248.59 826.63 246.33 C 825.08 244.31 822.61 242.90 820.56 241.41 C 824.21 234.00 829.02 226.20 829.85 217.90 C 830.24 213.04 831.92 208.40 834.42 204.24 Z" fill="#ffffff" />
<path d="M 47.58 209.34 C 51.01 208.35 55.29 209.63 58.74 210.24 C 64.56 211.53 70.42 210.55 76.30 211.70 C 80.59 212.53 85.08 212.67 89.29 213.82 C 95.74 216.38 101.64 220.31 108.09 222.90 C 110.16 223.64 112.47 224.47 114.66 223.75 C 117.12 222.82 119.42 221.39 121.75 220.17 C 125.06 223.30 128.20 226.44 130.88 230.15 C 133.61 233.88 137.72 235.88 140.36 239.68 C 144.57 245.56 148.75 250.98 151.67 257.43 C 153.09 260.37 155.53 261.91 158.02 263.84 C 152.30 267.77 145.94 270.22 139.41 272.47 C 135.76 273.67 133.33 276.12 130.18 278.15 C 125.22 281.42 119.95 282.96 114.79 285.78 C 111.31 287.59 107.93 289.71 104.34 291.31 C 101.16 292.75 97.76 293.27 94.55 294.62 C 86.48 298.12 79.39 303.30 71.24 306.64 C 67.78 303.86 64.88 301.23 62.51 297.41 C 57.06 291.21 51.44 285.82 47.90 278.13 C 45.55 272.72 44.05 267.11 41.01 261.98 C 38.77 257.84 35.48 255.36 34.22 250.79 C 33.26 247.10 32.56 242.99 33.15 239.20 C 33.90 236.74 36.11 234.68 37.30 232.40 C 38.34 228.91 38.30 225.48 40.18 222.20 C 42.61 217.91 44.92 213.50 47.58 209.34 Z" fill="#ffffff" />
<path d="M 258.12 216.00 C 264.12 217.36 269.88 221.54 273.73 226.29 C 276.67 229.64 280.19 231.52 283.61 234.37 C 289.18 239.14 295.81 241.80 301.87 246.15 C 305.20 248.57 308.51 250.97 312.16 252.89 C 308.62 254.33 305.15 255.90 301.87 257.89 C 296.80 261.03 290.61 262.76 285.04 265.07 C 281.58 266.57 277.92 267.27 274.36 268.44 C 269.63 269.93 266.37 273.89 261.60 275.65 C 260.38 276.23 259.19 275.49 258.17 274.86 C 251.40 269.62 248.16 262.71 241.94 257.05 C 237.92 253.26 235.12 248.64 231.44 244.55 C 229.80 242.57 227.85 240.67 226.57 238.44 C 225.69 236.40 225.20 234.17 224.58 232.03 C 227.14 230.80 229.79 229.46 232.48 228.55 C 236.56 227.24 241.17 226.79 245.08 225.06 C 249.82 223.00 253.46 218.17 258.12 216.00 Z" fill="#ffffff" />
<path d="M 663.13 224.41 C 665.40 227.38 667.39 230.59 669.17 233.88 C 667.18 235.16 665.16 236.37 663.10 237.53 C 661.14 234.18 659.16 230.87 656.87 227.74 C 658.96 226.64 661.02 225.48 663.13 224.41 Z" fill="#ffffff" />
<path d="M 934.14 225.65 C 938.40 226.41 942.19 228.24 946.22 229.66 C 953.45 231.78 960.56 234.19 967.88 236.00 C 966.87 241.80 966.13 247.55 964.15 253.14 C 960.88 263.38 957.17 273.26 951.38 282.39 C 948.18 287.29 945.89 292.63 942.32 297.31 C 940.21 300.08 938.54 303.61 935.85 305.83 C 934.63 307.14 932.48 306.15 930.90 306.12 C 932.29 298.08 932.19 290.06 931.94 281.95 C 931.89 278.37 930.45 275.04 931.67 271.81 C 933.64 265.68 934.11 259.40 934.03 253.00 C 934.05 243.89 933.86 234.76 934.14 225.65 Z" fill="#ffffff" />
<path d="M 375.29 237.19 C 377.18 239.14 378.90 241.28 380.72 243.29 C 377.53 247.90 374.47 252.51 370.58 256.59 C 365.85 261.42 364.54 268.00 359.89 272.88 C 355.73 277.19 355.02 282.06 350.02 285.08 C 345.99 288.32 341.23 287.48 336.94 289.94 C 332.39 292.47 327.84 294.90 323.16 297.15 C 319.01 293.15 314.78 289.26 310.12 285.84 C 306.50 283.11 305.01 279.42 301.88 276.13 C 299.04 273.12 296.47 269.90 293.84 266.71 C 298.55 263.79 303.21 260.62 308.21 258.20 C 314.59 255.13 321.84 255.34 328.54 253.48 C 332.82 252.26 335.76 248.86 340.04 247.09 C 345.00 245.10 349.86 242.73 354.92 241.00 C 361.71 239.04 368.60 239.86 375.29 237.19 Z" fill="#ffffff" />
<path d="M 670.91 237.30 C 675.30 239.37 678.85 242.09 683.68 243.27 C 687.19 244.22 690.98 243.70 694.44 244.66 C 698.56 246.25 702.01 249.25 706.22 250.76 C 709.83 252.16 713.36 252.02 717.17 252.20 C 718.84 262.39 717.64 273.02 718.01 283.33 C 713.87 283.00 710.07 282.58 706.09 284.09 C 701.24 285.67 698.28 289.03 693.04 288.94 C 688.75 288.97 684.92 289.42 680.82 290.71 C 678.49 285.66 677.22 280.27 674.69 275.32 C 672.78 271.42 670.49 268.00 669.18 263.82 C 666.68 256.32 665.11 248.62 662.01 241.30 C 665.00 240.02 667.92 238.59 670.91 237.30 Z" fill="#ffffff" />
<path d="M 650.25 239.25 C 650.77 239.78 650.77 239.78 650.25 239.25 Z" fill="#060606" />
<path d="M 652.25 239.25 C 652.77 239.78 652.77 239.78 652.25 239.25 Z" fill="#060606" />
<path d="M 654.11 244.48 C 655.35 243.85 656.45 245.83 655.61 246.73 C 654.36 247.25 653.21 245.45 654.11 244.48 Z" fill="#060606" />
<path d="M 817.32 244.29 C 819.44 245.07 821.57 246.21 823.21 247.78 C 824.73 249.68 825.63 252.17 826.79 254.31 C 831.96 263.94 841.72 270.88 846.56 280.51 C 848.53 284.31 852.18 286.04 854.59 289.36 C 856.72 292.65 858.13 297.04 860.75 300.26 C 862.40 302.28 864.06 304.28 865.66 306.34 C 868.00 309.43 871.12 311.48 873.16 314.82 C 876.03 319.57 878.71 324.45 880.91 329.55 C 877.73 330.91 874.50 332.86 871.10 333.56 C 865.69 331.95 863.58 327.66 859.33 324.78 C 851.90 320.90 845.01 315.58 838.21 310.83 C 829.85 306.39 820.82 303.32 812.72 298.25 C 810.26 296.68 806.23 294.70 805.31 291.73 C 804.27 284.81 805.41 276.95 805.87 270.04 C 806.15 265.95 805.47 261.47 806.44 257.49 C 808.21 255.22 810.70 253.65 812.56 251.58 C 814.37 249.33 815.56 246.60 817.32 244.29 Z" fill="#ffffff" />
<path d="M 394.06 245.96 C 405.61 252.72 416.82 259.70 429.28 264.76 C 438.11 268.30 445.02 274.81 453.96 278.10 C 462.02 282.17 469.84 286.79 477.74 291.17 C 481.22 293.02 484.66 293.46 487.31 296.65 C 488.79 298.23 488.86 300.65 489.32 302.70 C 490.14 301.80 490.97 300.90 491.80 300.02 C 492.26 301.98 492.72 303.94 493.17 305.90 C 486.18 308.19 479.00 309.68 472.00 311.93 C 466.07 313.49 461.07 315.67 455.03 316.07 C 447.10 316.79 439.15 319.12 431.61 321.62 C 427.12 323.16 422.37 323.33 417.89 324.93 C 410.40 327.80 402.77 326.88 395.02 329.05 C 389.98 330.49 385.00 329.44 380.05 331.09 C 376.09 332.46 372.15 333.87 368.13 335.04 C 366.96 330.03 367.02 325.06 366.95 319.96 C 366.98 315.79 363.40 312.87 363.09 309.00 C 362.64 303.09 363.70 297.69 362.17 291.80 C 361.04 287.45 360.55 283.03 360.98 278.54 C 361.31 276.33 363.31 274.34 364.49 272.51 C 366.59 269.71 367.92 266.59 369.63 263.57 C 371.79 259.75 374.99 257.29 377.59 253.62 C 379.28 251.36 380.67 248.67 382.68 246.70 C 384.56 245.93 386.74 245.80 388.74 245.52 C 390.60 245.40 392.40 244.86 394.06 245.96 Z" fill="#ffffff" />
<path d="M 231.20 252.46 C 237.15 256.29 242.48 261.76 246.41 267.64 C 248.58 270.59 251.09 273.04 253.49 275.82 C 247.49 278.51 241.38 281.02 235.18 283.21 C 227.97 285.79 221.03 289.75 214.10 293.11 C 210.56 294.81 207.33 296.96 204.06 299.11 C 201.52 301.25 198.20 298.45 196.14 296.87 C 191.73 292.70 188.08 287.66 184.10 283.08 C 186.89 280.08 189.42 277.09 193.03 275.03 C 198.98 271.55 204.96 268.12 211.16 265.10 C 218.25 261.50 224.35 256.38 231.20 252.46 Z" fill="#ffffff" />
<path d="M 735.00 252.97 C 743.57 253.18 751.88 252.50 760.19 253.70 C 767.75 254.37 775.42 253.86 783.00 254.00 C 790.05 254.17 796.34 253.37 803.16 254.87 C 802.14 265.59 801.53 276.37 800.81 287.12 C 793.20 284.45 787.41 279.34 780.50 275.43 C 776.28 272.60 772.58 269.89 767.26 269.72 C 762.04 280.10 755.61 289.90 750.34 300.24 C 747.78 306.69 743.64 312.15 740.62 318.37 C 737.24 314.60 735.63 310.06 733.23 305.72 C 730.96 302.37 728.06 299.51 725.93 296.04 C 723.89 292.80 720.41 288.91 720.83 284.87 C 721.18 274.63 720.87 264.40 721.08 254.17 C 725.71 253.37 730.29 252.81 735.00 252.97 Z" fill="#ffffff" />
<path d="M 833.20 257.11 C 838.46 256.85 843.74 257.06 849.00 257.01 C 855.67 257.07 862.01 256.66 868.42 257.56 C 872.64 258.15 876.82 257.91 881.06 258.04 C 885.17 258.09 888.86 259.76 892.97 259.94 C 896.99 260.14 900.98 260.45 904.97 261.04 C 909.13 261.58 912.78 262.81 916.96 262.96 C 921.40 263.12 925.84 262.97 930.28 263.09 C 930.01 266.53 928.98 269.56 927.75 272.74 C 926.48 275.53 928.33 278.21 928.71 281.11 C 929.89 289.74 928.16 297.31 927.80 305.74 C 924.32 304.56 921.02 303.23 917.36 302.63 C 913.21 301.79 909.18 302.18 905.01 301.85 C 900.91 301.50 897.01 298.73 892.94 298.20 C 888.78 297.75 884.87 298.31 880.77 297.22 C 877.20 296.39 874.19 294.64 870.88 293.21 C 867.53 291.74 863.28 291.96 859.65 291.70 C 858.97 289.96 858.40 288.10 857.46 286.49 C 855.56 284.09 851.92 282.54 850.27 279.82 C 848.44 276.87 847.20 273.78 844.83 271.17 C 840.73 266.65 836.57 262.37 833.20 257.11 Z" fill="#ffffff" />
<path d="M 161.96 266.91 C 164.23 269.78 166.22 272.63 169.48 274.50 C 172.87 276.48 175.50 279.09 178.02 282.06 C 172.90 285.22 169.15 289.80 164.35 293.35 C 161.13 295.65 160.03 299.43 156.78 301.75 C 152.58 304.88 148.67 308.37 144.94 312.05 C 143.28 309.62 142.10 307.00 139.28 305.73 C 134.60 303.46 128.54 302.22 123.43 303.35 C 118.88 306.19 117.38 310.72 115.41 315.40 C 113.21 320.87 112.02 326.11 111.72 332.00 C 103.84 332.35 96.18 331.35 89.00 327.96 C 85.76 326.35 84.35 322.36 82.53 319.43 C 80.22 315.35 77.01 312.49 73.83 309.14 C 81.45 305.89 88.19 301.14 95.74 297.77 C 99.51 296.08 103.37 295.84 107.02 293.99 C 111.07 291.92 115.02 289.17 119.24 287.31 C 123.16 285.63 127.04 285.10 130.71 282.73 C 133.81 280.90 136.13 278.07 139.19 276.24 C 142.56 274.66 146.43 274.24 149.92 272.89 C 154.25 271.38 157.82 268.80 161.96 266.91 Z" fill="#ffffff" />
<path d="M 288.00 268.65 C 290.13 268.60 291.37 269.88 292.75 271.28 C 296.85 275.92 301.09 280.33 304.63 285.43 C 309.42 290.47 315.55 294.08 320.28 299.27 C 317.14 302.19 314.01 304.33 310.18 306.27 C 304.07 309.90 297.79 313.20 291.34 316.20 C 284.05 307.65 275.87 299.84 268.74 291.15 C 265.90 287.77 264.27 283.96 262.29 280.06 C 267.16 277.99 272.14 276.37 276.78 273.77 C 280.27 272.03 284.10 269.10 288.00 268.65 Z" fill="#ffffff" />
<path d="M 769.39 273.23 C 774.69 275.20 779.36 278.96 784.22 281.82 C 789.17 285.53 794.61 288.22 800.04 291.13 C 799.98 295.03 800.39 299.47 799.14 303.17 C 798.08 306.80 796.14 310.23 796.02 313.95 C 795.55 322.76 797.00 330.62 794.82 339.28 C 789.19 338.59 784.72 335.74 779.05 335.94 C 771.68 335.93 764.32 336.08 756.96 336.00 C 751.93 335.95 746.92 334.81 742.00 333.83 C 741.91 329.60 741.80 325.57 743.49 321.59 C 745.08 316.19 748.22 311.83 750.92 307.00 C 756.10 295.24 763.26 284.58 769.39 273.23 Z" fill="#ffffff" />
<path d="M 256.10 279.04 C 259.43 281.74 261.30 285.32 262.75 289.27 C 264.73 295.26 270.82 299.46 275.13 303.87 C 279.58 308.51 284.68 313.04 288.16 318.42 C 279.62 321.18 271.11 324.06 262.49 326.54 C 256.49 328.33 251.57 332.07 245.49 333.59 C 242.06 334.69 238.56 334.98 234.98 335.02 C 230.74 335.03 226.72 336.01 222.62 336.96 C 218.79 323.37 208.75 316.31 202.74 303.91 C 214.09 296.40 226.69 293.34 238.56 287.57 C 244.43 284.91 250.11 281.53 256.10 279.04 Z" fill="#ffffff" />
<path d="M 357.37 283.51 C 357.93 286.94 358.39 290.38 359.21 293.77 C 360.55 299.35 359.74 304.45 360.02 310.06 C 360.09 314.42 363.86 317.37 363.91 321.99 C 364.07 326.66 364.11 331.26 364.96 335.88 C 361.10 335.95 357.27 335.97 353.43 336.47 C 343.66 337.80 334.43 336.12 324.72 337.65 C 318.43 338.57 312.09 338.74 305.84 339.88 C 304.73 337.49 303.29 335.41 301.67 333.35 C 299.65 330.79 299.09 327.34 297.18 324.79 C 296.06 322.88 294.55 321.26 293.52 319.31 C 301.65 314.52 310.50 310.58 318.38 305.35 C 324.83 300.02 332.17 296.47 339.45 292.47 C 343.00 290.49 346.72 291.44 350.44 290.38 C 352.44 289.26 354.12 287.35 355.59 285.61 C 356.18 284.91 356.77 284.20 357.37 283.51 Z" fill="#ffffff" />
<path d="M 181.12 285.91 C 186.54 291.12 191.26 297.13 196.21 302.79 C 190.11 307.43 182.75 310.59 175.83 313.83 C 167.33 317.77 159.09 318.01 151.63 324.09 C 150.08 321.16 148.59 318.20 147.13 315.23 C 154.62 309.45 161.50 302.83 168.39 296.36 C 172.79 292.92 177.44 290.24 181.12 285.91 Z" fill="#ffffff" />
<path d="M 714.83 286.36 C 715.95 286.12 716.67 287.99 717.28 288.71 C 719.54 292.45 721.52 296.32 724.16 299.84 C 726.47 303.27 729.51 306.04 731.31 309.66 C 733.09 313.15 734.61 316.75 736.71 320.08 C 733.63 321.72 730.78 323.36 727.39 324.32 C 719.80 326.36 711.47 327.99 704.36 331.35 C 699.74 333.57 694.84 334.03 690.40 336.67 C 689.49 329.48 690.99 322.95 688.59 316.49 C 686.35 309.00 684.19 301.50 682.56 293.85 C 685.02 293.05 687.36 292.19 689.98 292.10 C 693.47 291.85 696.65 292.34 699.86 290.79 C 704.60 288.47 709.52 286.72 714.83 286.36 Z" fill="#ffffff" />
<path d="M 492.27 290.27 C 492.76 290.78 492.76 290.78 492.27 290.27 Z" fill="#ffffff" />
<path d="M 861.61 295.49 C 864.77 295.68 868.05 295.70 870.94 297.11 C 874.04 298.51 876.90 299.99 880.29 300.65 C 884.05 301.29 888.06 300.73 891.83 301.29 C 895.90 302.08 899.78 304.81 903.95 304.92 C 908.64 305.07 913.19 304.93 917.74 306.30 C 922.95 307.91 928.03 309.21 933.39 310.18 C 931.33 316.77 925.99 320.02 922.76 325.78 C 919.67 330.88 916.94 336.18 913.68 341.19 C 911.12 339.84 908.66 338.33 906.15 336.89 C 901.44 334.11 895.25 335.36 891.01 332.05 C 888.62 330.13 885.76 328.61 883.68 326.37 C 880.70 321.85 878.45 316.74 876.06 311.90 C 874.51 308.49 871.12 307.44 868.70 304.33 C 866.35 301.37 863.90 298.49 861.61 295.49 Z" fill="#ffffff" />
<path d="M 803.06 296.14 C 814.34 306.21 830.33 308.55 841.41 317.55 C 845.81 320.48 850.03 323.83 854.73 326.25 C 859.93 328.74 862.87 333.83 868.16 336.35 C 864.33 338.22 860.86 340.61 857.22 342.77 C 854.40 344.36 851.69 343.80 848.64 343.45 C 842.22 342.56 835.85 343.40 829.42 342.57 C 824.81 341.95 820.29 342.13 815.74 341.22 C 810.21 340.13 804.69 339.07 799.05 338.76 C 799.12 330.89 798.70 322.95 799.18 315.10 C 800.28 308.53 803.63 303.09 803.06 296.14 Z" fill="#ffffff" />
<path d="M 197.26 302.26 C 197.76 302.77 197.76 302.77 197.26 302.26 Z" fill="#ffffff" />
<path d="M 198.81 305.54 C 202.46 311.49 207.05 316.49 210.34 322.66 C 212.24 325.88 213.46 329.03 216.42 331.44 C 216.59 332.80 216.73 334.15 216.90 335.51 C 217.58 335.31 218.26 335.11 218.93 334.91 C 218.71 336.24 218.51 337.57 218.33 338.91 C 215.01 339.47 211.65 339.82 208.36 340.50 C 201.61 342.31 195.69 345.33 189.55 348.57 C 187.39 349.81 185.33 349.34 182.96 349.27 C 179.64 349.04 176.56 348.96 173.49 347.50 C 168.46 344.95 163.85 342.16 160.53 337.47 C 158.26 334.25 155.28 330.96 154.04 327.19 C 160.64 322.29 167.65 321.18 174.91 317.92 C 183.02 314.23 191.44 310.54 198.81 305.54 Z" fill="#ffffff" />
<path d="M 494.11 309.19 C 497.08 313.66 496.86 318.59 498.61 323.44 C 500.17 326.06 502.49 328.25 504.41 330.60 C 507.50 334.35 511.45 335.98 515.27 338.74 C 520.72 342.53 524.99 347.25 530.92 350.39 C 530.93 351.19 530.94 351.99 530.95 352.80 C 527.73 354.08 524.39 355.02 521.17 356.29 C 518.76 357.27 516.95 359.11 514.71 360.25 C 513.33 360.44 511.81 359.97 510.50 359.58 C 504.46 357.52 499.10 353.97 493.61 351.38 C 485.81 347.74 477.84 344.54 469.44 342.54 C 464.04 341.37 460.78 336.87 455.28 335.78 C 449.78 334.57 444.88 331.97 439.52 330.38 C 436.25 329.43 433.98 327.29 431.53 325.06 C 440.02 322.26 449.06 319.64 457.99 318.93 C 462.55 318.51 467.01 316.71 471.53 315.51 C 479.01 313.23 486.57 311.22 494.11 309.19 Z" fill="#ffffff" />
<path d="M 290.78 323.13 C 292.98 325.12 295.06 327.00 295.99 329.93 C 297.43 334.63 301.00 337.83 302.86 342.32 C 305.44 343.01 307.85 343.25 309.96 345.08 C 315.67 349.16 317.31 355.12 321.78 360.23 C 323.98 362.81 325.77 365.62 327.33 368.62 C 323.25 369.39 319.20 370.10 315.03 370.03 C 304.01 369.98 293.00 370.00 281.98 370.01 C 276.26 370.07 270.71 368.72 264.97 368.92 C 259.44 368.84 254.43 370.46 248.98 370.99 C 242.01 371.85 235.00 372.15 228.01 372.89 C 218.14 373.12 208.23 373.01 198.35 372.92 C 195.06 366.12 189.01 361.62 185.72 354.84 C 190.34 351.77 195.45 351.10 200.63 349.54 C 205.91 347.63 211.19 345.86 216.70 344.75 C 221.16 343.82 225.52 344.22 229.94 342.89 C 237.63 340.47 245.04 337.32 252.66 334.54 C 257.20 332.47 261.73 330.78 266.57 329.52 C 274.64 327.33 282.60 324.08 290.78 323.13 Z" fill="#ffffff" />
<path d="M 739.10 324.20 C 739.11 327.79 738.49 331.33 738.34 334.91 C 738.56 338.59 739.05 342.25 739.09 345.95 C 733.64 345.97 728.37 345.67 723.02 347.01 C 717.34 348.49 711.60 347.48 705.95 348.98 C 701.64 350.08 697.28 351.10 693.07 352.54 C 692.97 349.10 692.35 345.66 692.40 342.23 C 692.63 339.73 694.61 339.44 696.50 338.48 C 703.00 335.86 708.93 332.44 715.79 330.76 C 723.62 328.72 731.36 326.54 739.10 324.20 Z" fill="#ffffff" />
<path d="M 425.01 326.64 C 428.65 327.44 432.14 330.75 435.38 332.46 C 438.22 333.79 441.34 334.46 444.18 335.83 C 448.75 337.93 453.68 338.51 458.35 340.18 C 453.94 341.21 449.84 342.78 445.69 344.56 C 438.99 346.75 433.02 349.32 425.98 350.03 C 422.43 350.42 419.36 351.76 416.11 353.15 C 412.21 354.94 408.20 356.16 404.63 358.64 C 402.17 360.65 398.88 359.33 396.08 358.93 C 392.53 358.29 390.95 355.78 388.65 353.35 C 386.30 353.09 383.76 353.13 381.49 352.42 C 378.61 351.10 375.84 349.47 373.09 347.88 C 368.53 345.26 364.87 341.53 360.10 339.22 C 368.30 338.95 375.46 335.98 383.39 334.35 C 388.10 333.20 392.95 332.98 397.66 331.76 C 404.57 330.11 411.72 330.53 418.29 328.25 C 420.42 327.56 422.77 326.71 425.01 326.64 Z" fill="#ffffff" />
<path d="M 884.83 331.88 C 886.59 333.18 888.21 334.77 890.11 335.85 C 894.35 338.00 900.07 337.48 904.20 339.83 C 906.72 341.21 909.12 342.78 911.62 344.21 C 908.92 353.26 907.32 362.65 905.67 371.94 C 901.10 371.17 896.58 370.97 891.95 370.97 C 886.82 371.05 882.14 369.07 877.05 369.00 C 874.36 368.91 871.66 369.02 868.97 369.01 C 862.34 369.25 855.33 366.82 848.94 365.09 C 844.37 363.93 840.76 361.98 836.06 361.97 C 831.58 361.76 826.86 362.46 822.44 361.70 C 821.36 360.90 820.42 359.89 819.45 358.97 C 815.95 359.38 812.57 359.97 809.03 360.02 C 800.73 360.28 792.36 358.00 784.03 357.98 C 770.61 357.95 757.19 358.11 743.78 357.91 C 744.02 354.27 744.77 350.95 745.91 347.51 C 744.76 346.60 742.93 345.88 742.25 344.56 C 741.84 342.17 741.96 339.65 741.91 337.23 C 754.42 340.19 766.36 338.57 779.04 339.04 C 783.68 339.21 787.31 341.71 791.97 341.93 C 796.78 342.17 801.45 341.74 806.23 342.72 C 811.40 343.46 815.85 345.88 820.95 346.00 C 827.51 346.24 834.31 345.64 840.85 346.26 C 846.73 346.98 852.91 347.52 858.80 346.78 C 861.55 345.64 863.62 342.84 866.31 341.39 C 872.77 337.95 877.54 333.62 884.83 331.88 Z" fill="#ffffff" />
<path d="M 331.02 340.13 C 336.36 339.88 341.72 339.95 347.06 339.98 C 352.42 339.74 356.88 343.20 361.52 345.42 C 366.31 347.70 370.95 350.10 375.06 353.52 C 367.91 356.26 360.59 358.21 353.22 360.21 C 347.52 361.69 342.49 364.45 337.48 367.46 C 335.54 368.54 333.83 369.62 331.57 368.64 C 329.05 365.35 327.37 361.48 324.76 358.23 C 320.19 352.61 318.04 346.47 311.97 342.14 C 318.39 341.95 324.65 340.68 331.02 340.13 Z" fill="#ffffff" />
<path d="M 460.95 343.48 C 473.69 346.78 485.95 351.23 497.60 357.40 C 500.99 359.30 504.96 360.54 508.07 362.86 C 511.98 370.72 513.19 379.33 513.00 388.03 C 512.93 392.60 511.54 396.48 512.92 401.02 C 514.23 407.61 516.76 415.02 515.85 421.73 C 513.90 423.63 510.58 423.80 508.01 423.96 C 499.84 424.07 492.23 426.74 484.04 426.96 C 478.59 427.08 473.37 426.59 468.02 428.02 C 461.88 429.58 456.18 428.83 449.96 428.99 C 444.54 429.03 439.48 430.52 433.99 430.96 C 428.64 431.39 423.35 432.27 418.02 432.84 C 412.46 433.09 407.54 434.48 402.01 433.09 C 401.96 428.19 401.81 423.40 402.54 418.53 C 403.04 415.11 403.16 411.66 402.73 408.22 C 401.75 401.32 401.70 394.21 402.36 387.28 C 403.41 379.32 403.68 371.44 401.15 363.71 C 405.13 362.37 408.49 359.94 412.35 358.35 C 417.92 356.10 422.82 353.53 428.90 352.86 C 434.40 352.20 439.30 350.13 444.54 348.52 C 450.07 346.86 454.94 343.34 460.95 343.48 Z" fill="#ffffff" />
<path d="M 739.68 349.19 C 740.18 352.87 740.70 356.53 740.80 360.26 C 740.97 365.01 742.69 369.27 742.95 373.98 C 743.18 378.63 742.97 383.30 742.94 387.95 C 728.38 388.01 713.82 388.06 699.26 387.93 C 698.11 380.53 697.19 373.17 694.99 365.98 C 693.65 362.00 695.17 358.86 695.70 354.94 C 702.21 353.27 708.23 351.22 714.98 351.07 C 718.68 351.00 722.12 350.64 725.72 349.77 C 730.40 348.65 734.93 348.94 739.68 349.19 Z" fill="#ffffff" />
<path d="M 690.26 355.27 C 691.69 355.46 691.75 357.50 690.28 357.68 C 688.87 357.47 688.79 355.46 690.26 355.27 Z" fill="#ffffff" />
<path d="M 384.78 356.11 C 387.66 357.10 389.72 360.08 392.56 361.27 C 393.92 361.82 395.41 362.19 396.83 362.58 C 400.00 369.70 398.83 376.47 399.02 384.00 C 399.12 388.31 398.54 392.56 398.46 396.85 C 399.03 405.57 399.00 414.28 399.04 423.01 C 399.06 426.16 398.82 429.22 398.34 432.34 C 393.66 430.96 388.88 430.38 384.03 429.91 C 378.95 429.43 374.19 427.97 369.03 428.01 C 359.99 428.12 350.70 425.85 341.79 424.33 C 337.67 423.77 333.45 424.18 329.26 423.69 C 324.22 423.06 319.21 421.90 314.30 420.61 C 311.25 419.81 308.12 418.38 305.01 418.12 C 301.55 417.84 298.06 417.95 294.59 417.85 C 296.05 414.91 297.35 412.07 299.79 409.79 C 302.94 406.82 305.86 403.81 308.19 400.14 C 312.81 393.97 319.16 389.03 324.34 383.35 C 326.42 380.84 328.60 378.83 331.38 377.11 C 331.74 375.60 332.08 374.07 332.43 372.56 C 338.69 371.68 342.73 367.80 348.40 365.42 C 355.26 362.53 362.86 361.37 369.88 358.84 C 374.50 357.28 379.88 355.53 384.78 356.11 Z" fill="#ffffff" />
<path d="M 532.08 356.31 L 532.90 356.29 L 533.31 357.01 L 532.92 357.75 L 532.11 357.76 L 531.69 357.05 L 532.08 356.31 Z" fill="#ffffff" />
<path d="M 530.79 356.94 C 531.60 359.88 532.29 362.87 533.29 365.73 C 535.90 374.17 542.56 379.75 546.26 387.87 C 536.19 388.11 526.11 387.99 516.04 387.95 C 515.91 382.63 516.21 377.29 515.96 371.98 C 515.95 369.17 513.21 366.62 511.79 364.32 C 513.97 364.06 516.16 363.88 518.34 363.60 C 519.52 362.16 520.67 360.21 522.34 359.33 C 524.97 358.15 527.99 357.63 530.79 356.94 Z" fill="#ffffff" />
<path d="M 749.94 360.95 C 760.64 361.02 771.33 361.00 782.03 360.99 C 786.70 360.96 791.24 361.73 795.87 362.23 C 803.34 363.29 811.06 363.44 818.52 362.26 C 819.54 365.56 820.01 368.53 820.04 372.01 C 820.03 377.66 822.69 382.33 823.30 387.88 C 797.55 388.12 771.79 387.98 746.04 387.95 C 745.77 378.91 747.05 370.50 743.86 361.78 C 745.81 361.19 747.93 361.24 749.94 360.95 Z" fill="#ffffff" />
<path d="M 823.14 365.14 C 829.89 364.44 837.06 366.03 843.69 367.27 C 848.19 368.04 852.34 369.73 856.63 371.17 C 864.21 373.06 872.79 371.04 880.49 372.60 C 888.53 374.56 896.85 373.93 905.05 375.24 C 905.13 379.60 904.71 383.65 903.84 387.92 C 878.01 388.07 852.18 388.00 826.35 387.96 C 825.89 379.85 821.71 373.56 823.14 365.14 Z" fill="#ffffff" />
<path d="M 543.27 371.22 C 543.79 371.74 543.79 371.74 543.27 371.22 Z" fill="#ffffff" />
<path d="M 329.44 372.08 C 326.73 376.10 323.22 379.37 320.15 383.16 C 317.60 386.33 314.51 388.85 311.43 391.47 C 307.95 394.55 306.71 398.48 304.04 402.06 C 301.89 404.88 298.48 406.57 296.16 409.11 C 294.53 411.61 293.43 414.46 291.99 417.07 C 285.69 415.94 279.33 415.74 272.95 415.97 C 268.05 415.90 263.17 419.70 258.95 421.93 C 255.01 423.93 252.78 427.22 249.99 430.47 C 243.24 426.85 238.01 421.61 231.96 417.03 C 229.25 415.00 227.26 412.38 225.34 409.63 C 222.84 406.02 219.54 403.47 217.33 399.70 C 214.97 395.70 212.97 391.65 209.81 388.18 C 206.37 384.46 203.77 380.22 201.01 376.00 C 207.34 376.00 213.67 375.99 220.00 376.02 C 229.98 376.33 240.01 374.81 249.99 374.12 C 255.70 373.93 261.27 372.85 266.99 372.98 C 283.00 373.03 299.00 372.96 315.01 373.03 C 319.86 373.12 324.60 372.27 329.44 372.08 Z" fill="#ffffff" />
<path d="M 514.81 394.11 C 524.89 393.87 534.97 394.09 545.04 393.95 C 547.66 394.16 550.49 393.40 552.27 395.76 C 555.72 400.01 558.16 405.03 561.46 409.43 C 564.61 415.38 569.18 419.02 569.10 426.05 C 569.37 429.73 567.15 431.86 566.19 435.13 C 565.34 440.47 566.45 446.56 567.11 451.89 C 556.99 452.55 547.08 451.61 537.40 448.57 C 535.69 448.02 534.59 446.82 533.40 445.55 C 528.71 440.84 524.97 435.18 521.28 429.68 C 517.12 423.83 520.06 416.19 518.61 409.28 C 517.30 404.24 515.87 399.22 514.81 394.11 Z" fill="#ffffff" />
<path d="M 701.85 394.09 C 716.29 393.90 730.73 394.04 745.17 394.01 C 746.74 400.40 745.16 406.72 747.00 413.01 C 747.86 416.15 748.03 419.32 748.06 422.55 C 741.11 423.24 735.98 427.56 729.04 427.02 C 722.11 426.79 715.31 427.25 708.73 429.59 C 707.03 423.37 705.30 417.50 705.05 411.00 C 704.94 405.08 703.15 399.79 701.85 394.09 Z" fill="#ffffff" />
<path d="M 749.22 394.21 C 752.78 393.82 756.43 394.00 760.00 393.99 C 781.28 394.03 802.56 393.95 823.84 394.03 C 823.37 403.37 827.02 411.74 827.20 420.97 C 828.00 425.85 830.33 430.34 831.08 435.29 C 827.92 435.14 824.79 434.97 821.70 434.22 C 811.51 431.35 800.56 434.48 789.96 432.03 C 784.02 430.62 777.98 431.42 772.08 429.92 C 768.68 429.14 765.53 427.89 762.24 426.83 C 759.06 425.77 755.28 425.96 751.94 425.84 C 751.33 422.58 751.08 419.31 750.81 416.01 C 750.50 412.28 749.20 408.81 749.02 405.05 C 748.85 401.45 748.79 397.79 749.22 394.21 Z" fill="#ffffff" />
<path d="M 826.90 394.07 C 852.28 393.97 877.67 393.94 903.04 394.08 C 902.25 399.42 901.81 404.78 901.26 410.14 C 900.99 414.41 901.05 418.62 900.07 422.81 C 891.79 423.36 883.42 424.26 875.36 426.29 C 869.35 427.66 863.27 427.70 857.34 429.29 C 849.64 431.06 842.48 433.43 834.44 433.02 C 833.59 429.84 832.51 426.77 831.33 423.71 C 829.49 419.05 830.39 414.67 829.17 409.81 C 827.86 404.62 826.89 399.44 826.90 394.07 Z" fill="#ffffff" />
<path d="M 566.31 409.20 C 566.83 409.72 566.83 409.72 566.31 409.20 Z" fill="#ffffff" />
<path d="M 292.61 421.19 C 297.26 421.00 302.67 420.42 307.14 421.91 C 311.97 423.47 316.84 425.03 321.78 426.19 C 328.50 427.80 334.76 426.33 341.52 427.52 C 347.16 428.54 352.77 429.71 358.46 430.52 C 363.75 431.31 369.01 430.67 374.29 431.73 C 380.08 432.87 385.95 433.36 391.76 434.29 C 394.58 434.75 396.84 436.20 398.90 438.10 C 404.75 443.36 411.26 447.58 416.60 453.41 C 420.02 457.32 425.02 458.68 428.41 462.62 C 432.06 466.61 436.71 468.83 440.92 472.09 C 444.74 475.25 448.84 478.04 452.68 481.18 C 446.78 484.11 440.33 484.76 434.29 487.27 C 427.80 489.67 421.97 493.23 415.39 495.37 C 410.92 496.90 406.52 497.39 402.17 499.22 C 398.76 500.63 395.59 503.10 392.09 504.10 C 390.13 502.82 388.92 500.28 387.58 498.40 C 384.27 493.02 379.76 489.02 374.90 485.09 C 372.30 483.03 370.13 480.45 367.49 478.48 C 364.57 477.79 361.41 478.20 358.48 477.53 C 356.60 476.15 355.09 474.25 353.29 472.75 C 347.81 468.33 342.01 464.73 336.23 460.76 C 333.39 458.82 330.58 456.95 327.36 455.69 C 322.18 453.72 317.20 450.67 313.30 446.73 C 309.43 441.31 305.23 436.16 300.91 431.09 C 297.62 428.10 294.69 425.19 292.61 421.19 Z" fill="#ffffff" />
<path d="M 515.86 426.25 C 517.37 429.69 518.59 433.04 521.05 435.96 C 524.29 439.63 525.55 443.98 529.86 446.69 C 528.20 447.12 526.54 447.57 524.89 448.04 C 524.92 448.99 524.96 449.94 524.99 450.89 C 526.63 452.68 528.27 454.40 529.40 456.58 C 531.77 460.96 534.61 465.96 534.93 471.01 C 535.21 475.97 534.96 480.97 534.94 485.94 C 528.92 485.96 522.65 486.51 516.84 485.12 C 507.47 482.75 497.05 484.85 487.31 483.62 C 478.79 482.35 470.49 483.38 462.00 482.92 C 459.64 482.99 457.74 480.38 455.94 479.07 C 447.30 472.22 437.80 466.08 429.59 458.41 C 420.85 451.58 412.18 444.55 403.88 437.19 C 409.95 436.81 416.01 437.18 422.07 437.00 C 426.09 436.91 429.08 434.72 433.08 434.22 C 437.24 433.75 441.37 433.23 445.50 432.53 C 451.78 431.49 457.78 432.33 464.01 431.92 C 467.49 431.68 470.65 430.61 474.08 430.20 C 479.94 429.59 486.01 430.46 491.85 429.75 C 496.30 429.08 500.56 427.62 505.09 427.20 C 508.69 426.90 512.28 426.74 515.86 426.25 Z" fill="#ffffff" />
<path d="M 747.63 425.73 C 749.22 431.59 745.29 435.26 745.06 441.02 C 744.68 447.85 745.40 454.88 744.71 461.73 C 744.28 465.68 743.76 469.60 742.87 473.48 C 738.19 474.39 734.05 476.46 729.77 478.45 C 727.17 473.47 725.74 468.08 722.76 463.27 C 719.32 457.41 717.23 450.97 713.98 445.01 C 711.91 441.24 710.49 437.57 709.73 433.32 C 714.53 432.20 719.36 431.00 724.25 430.32 C 728.30 429.75 732.64 430.44 736.59 429.47 C 740.27 428.21 743.86 426.75 747.63 425.73 Z" fill="#ffffff" />
<path d="M 900.07 425.90 C 898.09 439.02 899.38 452.63 898.95 465.95 C 888.46 465.89 878.22 466.44 867.83 465.41 C 854.63 466.52 841.22 465.82 827.95 465.96 C 829.51 462.15 831.88 458.18 831.98 454.04 C 832.17 449.18 831.96 444.30 831.98 439.44 C 834.86 439.81 837.95 440.21 840.84 439.86 C 844.77 439.24 847.86 436.86 851.26 435.34 C 855.38 433.90 859.83 433.39 864.07 432.31 C 871.96 431.01 879.81 429.44 887.61 427.62 C 891.73 426.66 895.84 426.07 900.07 425.90 Z" fill="#ffffff" />
<path d="M 752.53 429.26 C 760.13 428.22 768.25 433.92 775.95 433.96 C 780.66 433.97 785.13 434.28 789.76 435.23 C 799.89 437.25 810.05 434.61 819.76 437.09 C 822.74 437.80 826.05 437.98 828.83 439.25 C 829.75 448.46 827.98 457.34 824.66 465.91 C 812.77 466.10 800.88 465.97 789.00 465.99 C 784.03 466.06 778.50 465.50 773.69 466.77 C 770.82 467.39 768.41 468.44 765.47 467.47 C 763.24 467.01 761.00 465.63 758.78 466.74 C 754.66 468.42 750.68 470.50 746.88 472.81 C 748.50 463.53 747.94 454.31 747.98 444.95 C 747.95 439.34 749.76 434.08 752.53 429.26 Z" fill="#ffffff" />
<path d="M 862.38 431.21 C 863.37 430.68 863.93 431.05 864.07 432.31 C 862.98 432.53 862.42 432.17 862.38 431.21 Z" fill="#ffffff" />
<path d="M 780.95 468.98 C 794.79 469.00 808.64 469.02 822.48 468.99 C 821.88 473.68 822.14 478.35 821.93 483.05 C 821.75 487.28 819.02 490.59 819.05 494.95 C 819.01 499.48 818.96 503.87 817.80 508.29 C 813.15 506.75 809.52 504.76 804.89 504.12 C 800.68 503.56 796.48 503.11 792.22 503.08 C 789.47 498.47 786.73 493.92 783.08 489.94 C 777.93 484.14 774.06 477.51 768.55 472.10 C 772.63 470.49 776.44 468.83 780.95 468.98 Z" fill="#ffffff" />
<path d="M 845.00 469.01 C 851.67 469.10 858.35 468.83 865.01 469.05 C 867.56 468.76 868.60 471.46 869.71 473.25 C 873.52 481.22 876.28 489.79 877.93 498.46 C 872.23 499.86 867.36 502.78 862.01 505.02 C 857.96 506.77 853.75 507.97 849.66 509.61 C 848.20 510.17 846.75 510.79 845.18 510.97 C 837.01 511.48 829.20 511.02 821.30 508.73 C 822.47 502.60 821.06 496.03 823.44 490.42 C 826.52 483.66 823.71 476.40 826.41 469.33 C 832.55 468.71 838.83 469.08 845.00 469.01 Z" fill="#ffffff" />
<path d="M 871.39 469.01 C 880.81 468.97 890.25 468.98 899.67 469.06 C 900.45 476.72 902.97 484.20 904.66 491.82 C 900.89 493.58 897.56 495.52 893.44 496.38 C 889.68 497.17 885.84 497.56 882.04 498.10 C 879.40 491.27 877.79 483.97 876.06 476.88 C 875.32 473.62 873.26 471.61 871.39 469.01 Z" fill="#ffffff" />
<path d="M 760.81 469.73 C 764.98 473.81 769.25 477.57 772.67 482.34 C 778.21 490.03 784.87 496.48 789.19 505.03 C 783.28 508.60 779.47 514.12 774.07 518.26 C 770.90 513.98 768.30 509.48 766.44 504.48 C 765.19 501.18 762.77 499.07 760.36 496.64 C 757.42 493.84 757.03 489.89 753.75 487.30 C 750.72 484.53 746.48 482.11 747.08 477.34 C 750.63 473.67 756.11 471.51 760.81 469.73 Z" fill="#ffffff" />
<path d="M 739.04 478.20 C 741.13 478.33 742.99 478.97 743.94 480.98 C 745.79 484.41 747.62 486.86 750.58 489.42 C 753.85 492.21 754.87 496.14 757.69 499.29 C 761.11 503.30 763.57 507.96 766.96 512.00 C 768.75 514.60 771.88 518.38 771.07 521.71 C 765.48 527.08 759.17 531.99 752.74 536.33 C 749.60 530.86 747.50 524.95 746.37 518.76 C 745.90 515.64 746.21 512.39 745.59 509.31 C 743.56 504.48 740.41 499.85 737.78 495.36 C 735.64 490.71 732.76 486.49 730.73 481.78 C 733.40 480.54 736.17 478.83 739.04 478.20 Z" fill="#ffffff" />
<path d="M 451.95 485.97 C 452.02 492.46 452.29 498.83 451.36 505.29 C 450.47 512.32 451.97 521.25 448.80 527.84 C 447.27 529.16 444.82 529.48 442.91 529.90 C 434.68 531.30 426.48 532.79 418.28 534.33 C 408.39 536.53 398.50 535.88 388.63 538.64 C 384.46 539.86 380.31 540.14 375.99 540.05 C 378.58 536.56 380.74 532.76 384.02 530.03 C 387.67 526.94 390.85 523.05 392.44 518.50 C 393.19 515.59 392.84 512.41 393.48 509.48 C 398.21 503.67 405.63 500.68 412.93 499.89 C 420.40 498.95 425.38 494.36 432.59 491.56 C 438.80 488.75 445.28 487.20 451.95 485.97 Z" fill="#ffffff" />
<path d="M 458.19 486.20 C 465.96 485.81 474.13 485.87 481.90 486.23 C 490.64 487.55 499.27 486.80 508.04 487.01 C 512.09 487.05 515.54 488.49 519.35 489.54 C 524.19 490.78 529.96 489.37 534.88 488.88 C 533.68 493.74 532.95 498.30 532.67 503.31 C 530.79 504.15 528.59 504.57 527.44 506.44 C 525.40 509.47 523.68 512.73 521.84 515.89 C 516.95 515.90 512.31 515.71 507.73 517.74 C 498.81 521.61 490.29 520.20 481.14 522.18 C 472.71 524.09 463.73 526.20 455.06 526.06 C 455.05 520.35 454.84 514.64 455.01 508.94 C 455.03 505.17 456.91 502.38 457.72 498.85 C 458.37 494.71 457.73 490.39 458.19 486.20 Z" fill="#ffffff" />
<path d="M 905.67 495.09 C 906.77 499.55 907.68 504.05 908.44 508.58 C 909.60 515.54 911.87 522.16 912.81 529.16 C 913.31 533.13 913.83 537.10 914.19 541.09 C 907.68 542.67 900.71 544.30 893.98 543.97 C 889.99 543.80 886.07 542.69 882.12 543.07 C 878.55 543.50 875.34 545.60 872.14 547.07 C 870.06 548.14 867.30 547.92 865.00 548.03 C 859.23 547.97 853.97 549.26 848.30 550.06 C 848.07 545.69 848.15 541.49 846.70 537.29 C 844.30 530.78 844.76 523.12 845.23 516.30 C 847.42 514.65 850.35 513.90 852.84 512.75 C 860.17 509.41 867.54 506.22 874.89 502.91 C 877.67 501.58 880.12 502.37 882.91 503.05 C 885.86 501.27 888.47 500.15 891.98 499.96 C 897.20 499.67 901.01 497.00 905.67 495.09 Z" fill="#ffffff" />
<path d="M 803.83 507.18 C 810.39 508.13 814.79 512.58 821.26 513.69 C 826.64 514.54 832.28 513.46 837.63 514.31 C 838.58 515.06 839.41 515.98 839.86 517.12 C 842.34 523.87 841.33 531.30 843.17 537.79 C 844.12 541.53 844.79 545.27 845.17 549.12 C 838.43 549.59 833.38 546.01 826.97 545.03 C 821.34 544.14 815.89 541.47 810.60 539.36 C 807.23 538.12 805.48 534.64 802.78 532.23 C 799.90 529.35 796.35 528.22 793.11 525.88 C 788.93 523.07 786.51 518.96 782.76 515.23 C 785.52 511.82 788.52 509.05 792.79 507.67 C 796.48 505.94 799.95 506.71 803.83 507.18 Z" fill="#ffffff" />
<path d="M 519.78 518.83 C 517.90 525.31 514.05 532.34 514.98 539.03 C 515.24 541.98 516.50 544.76 517.16 547.74 C 518.59 553.87 518.78 559.76 521.35 565.66 C 523.74 570.99 525.22 576.58 526.76 582.20 C 521.03 578.77 515.07 575.42 510.07 570.95 C 504.67 566.36 499.47 561.54 494.26 556.74 C 490.27 553.20 485.77 551.17 481.35 548.12 C 479.62 548.15 478.27 548.51 476.96 547.09 C 473.70 543.99 469.89 541.48 466.89 538.14 C 463.87 534.59 459.52 532.33 455.93 529.27 C 460.62 529.04 465.28 528.70 469.92 527.95 C 476.84 526.99 482.97 524.50 490.02 524.10 C 493.92 523.84 497.96 524.31 501.83 523.74 C 505.26 522.86 508.35 520.84 511.76 519.80 C 514.35 518.98 517.07 518.99 519.78 518.83 Z" fill="#ffffff" />
<path d="M 780.08 518.52 C 784.71 520.94 786.17 525.07 788.92 529.12 C 791.54 530.99 795.32 531.13 798.06 532.95 C 800.45 534.58 802.74 536.41 803.75 539.23 C 805.93 544.88 804.46 551.03 805.18 556.89 C 805.64 559.79 807.68 562.53 808.62 565.27 C 809.53 568.32 809.72 571.80 810.19 574.94 C 810.57 577.92 812.23 580.84 813.32 583.67 C 816.41 590.71 817.64 598.46 819.63 606.04 C 817.56 608.18 815.81 610.69 813.54 612.63 C 807.75 613.93 801.15 612.48 795.76 610.19 C 791.55 607.61 789.06 601.44 786.45 597.48 C 783.54 593.76 779.80 590.80 776.82 587.10 C 779.91 581.64 781.03 575.61 779.57 569.46 C 775.12 562.37 766.18 558.19 761.60 551.41 C 758.94 547.59 755.73 544.28 753.48 540.17 C 757.87 536.89 762.65 534.24 767.18 531.18 C 772.42 527.76 774.64 521.82 780.08 518.52 Z" fill="#ffffff" />
<path d="M 791.36 526.25 C 791.88 526.77 791.88 526.77 791.36 526.25 Z" fill="#ffffff" />
<path d="M 452.76 531.52 C 456.61 534.50 461.00 537.17 464.28 540.77 C 467.17 543.90 470.80 546.05 474.08 548.87 C 470.60 553.84 467.13 558.83 464.00 564.02 C 462.64 566.21 460.90 568.06 459.23 570.01 C 453.86 567.10 449.01 563.57 444.21 559.82 C 438.91 555.71 432.70 553.52 427.12 549.90 C 421.61 546.45 416.23 543.00 411.03 539.09 C 425.02 536.75 438.96 534.99 452.76 531.52 Z" fill="#ffffff" />
<path d="M 406.61 539.22 C 408.53 541.45 410.06 543.74 412.57 545.39 C 417.40 548.55 422.58 550.98 427.12 554.60 C 422.50 558.54 417.77 562.35 412.71 565.73 C 409.47 567.87 407.19 570.79 404.18 573.20 C 401.47 575.41 398.47 576.76 395.52 578.58 C 390.97 581.27 387.85 585.53 383.36 588.36 C 377.65 592.02 372.52 596.45 366.92 600.24 C 366.90 596.75 366.95 594.50 369.19 591.70 C 367.47 586.60 369.07 582.23 368.99 576.99 C 368.98 571.21 370.42 565.75 371.03 560.04 C 371.55 554.09 374.48 549.02 375.42 543.14 C 380.28 543.10 385.03 543.09 389.74 541.74 C 395.26 540.19 400.91 539.65 406.61 539.22 Z" fill="#ffffff" />
<path d="M 808.08 542.12 C 811.48 543.19 814.49 544.80 817.72 546.23 C 822.13 548.11 826.91 547.86 831.42 549.61 C 835.20 551.14 839.19 551.77 843.03 553.04 C 844.47 553.47 844.97 555.20 845.51 556.42 C 848.42 565.13 853.28 572.96 856.41 581.60 C 858.93 587.80 859.35 593.56 862.81 599.21 C 865.12 602.93 866.53 606.44 867.52 610.70 C 861.22 609.74 854.88 610.29 848.58 609.43 C 844.36 608.87 840.18 609.05 835.95 608.97 C 831.48 608.95 827.75 607.49 823.37 606.52 C 822.02 601.49 820.63 596.48 819.56 591.38 C 818.50 586.74 816.51 582.59 814.84 578.17 C 812.46 572.10 813.03 565.73 810.32 559.71 C 807.80 554.08 807.62 548.18 808.08 542.12 Z" fill="#ffffff" />
<path d="M 371.15 545.32 C 368.41 553.04 367.79 561.05 366.17 569.03 C 365.93 575.77 366.00 582.33 364.75 589.01 C 360.89 587.71 357.09 586.65 353.67 584.35 C 350.10 582.04 346.19 580.91 342.18 579.67 C 338.52 578.62 335.54 576.36 331.92 575.20 C 329.39 574.29 326.43 573.56 324.56 571.48 C 323.25 565.89 322.18 560.00 321.86 554.26 C 328.65 554.05 335.21 552.33 341.97 551.92 C 348.02 551.36 353.79 550.87 359.43 548.42 C 363.29 546.73 366.97 545.82 371.15 545.32 Z" fill="#ffffff" />
<path d="M 913.77 544.81 C 915.55 550.69 914.64 556.46 915.52 562.43 C 916.10 567.35 917.03 572.00 917.01 576.97 C 917.00 586.66 916.98 596.35 917.04 606.05 C 917.16 610.21 916.07 615.08 913.33 618.31 C 911.60 619.81 909.37 621.92 906.98 621.98 C 899.35 622.74 891.62 620.54 884.76 617.32 C 881.25 615.71 877.22 614.99 873.90 613.07 C 870.18 609.26 869.36 603.24 866.46 598.52 C 862.61 592.21 861.09 585.28 859.85 578.08 C 859.13 573.74 857.21 569.64 855.29 565.72 C 853.23 561.73 852.79 557.41 851.28 553.04 C 856.85 551.73 862.32 550.91 868.06 550.99 C 872.19 551.07 875.57 549.42 879.47 548.38 C 887.79 545.33 895.73 549.85 904.58 547.44 C 907.62 546.39 910.54 545.19 913.77 544.81 Z" fill="#ffffff" />
<path d="M 477.08 551.15 C 478.46 554.53 478.94 558.05 479.57 561.62 C 481.63 570.59 483.48 579.68 484.31 588.85 C 484.86 593.13 486.86 596.72 486.96 600.94 C 487.18 604.84 486.64 608.92 487.29 612.77 C 488.15 615.60 489.86 618.20 491.11 620.88 C 493.89 626.81 498.45 631.23 500.36 637.65 C 497.03 639.41 493.58 641.76 489.89 642.66 C 486.13 642.21 482.51 640.81 478.72 640.31 C 473.08 639.53 467.51 638.86 462.12 636.89 C 456.93 634.95 451.70 635.04 446.28 634.60 C 437.36 633.40 428.71 634.37 419.68 633.82 C 421.87 632.00 424.37 630.41 426.32 628.33 C 428.99 624.86 429.87 619.57 431.77 615.69 C 433.65 611.99 437.68 609.49 439.78 605.92 C 441.08 603.53 441.64 600.40 443.29 598.25 C 445.30 595.65 448.00 593.66 450.14 591.12 C 454.32 586.49 455.37 580.33 459.70 575.75 C 466.37 568.05 470.28 558.66 477.08 551.15 Z" fill="#ffffff" />
<path d="M 317.65 554.15 C 318.46 560.16 320.31 565.92 321.21 571.90 C 317.13 572.01 313.04 571.90 308.95 572.01 C 302.73 572.08 297.34 574.91 291.04 574.98 C 283.62 575.06 276.18 575.03 268.76 574.89 C 270.74 569.73 272.86 564.83 277.12 561.11 C 280.99 556.65 288.72 557.30 294.18 556.20 C 301.99 554.76 309.85 555.39 317.65 554.15 Z" fill="#ffffff" />
<path d="M 481.92 553.70 C 486.87 556.91 490.20 561.74 495.18 564.92 C 499.53 568.37 504.26 570.00 506.94 575.19 C 511.89 580.36 521.35 581.57 526.56 586.55 C 528.29 593.96 526.21 600.59 520.15 605.27 C 511.75 599.95 502.63 601.18 492.43 599.78 C 492.00 596.41 491.14 593.33 489.96 590.16 C 488.69 586.57 489.31 582.90 488.49 579.37 C 487.46 576.18 485.57 573.50 484.96 570.13 C 483.92 564.51 481.90 559.48 481.92 553.70 Z" fill="#ffffff" />
<path d="M 431.11 556.71 C 436.12 558.03 439.91 560.98 443.98 564.03 C 448.02 567.18 452.38 569.97 456.58 572.90 C 454.26 576.92 452.39 581.16 450.18 585.23 C 447.60 589.81 443.59 592.42 440.31 596.31 C 438.04 599.14 438.19 603.22 435.72 605.74 C 433.71 608.05 431.26 610.00 429.63 612.60 C 427.73 615.58 427.16 619.27 425.39 622.42 C 423.21 626.48 419.34 629.82 416.08 633.13 C 412.80 635.85 407.53 635.55 403.81 637.83 C 397.94 641.28 391.69 643.87 385.41 646.44 C 383.45 647.33 381.13 646.33 379.12 645.93 C 374.02 644.47 368.11 645.08 362.78 644.93 C 364.95 634.63 363.10 624.33 364.97 614.04 C 365.50 610.93 365.82 607.43 367.96 604.98 C 375.42 596.08 385.59 592.66 393.39 584.38 C 397.73 579.96 403.80 577.83 409.24 575.19 C 413.75 573.04 416.32 568.46 420.18 565.21 C 423.73 562.28 427.42 559.47 431.11 556.71 Z" fill="#ffffff" />
<path d="M 308.07 575.17 C 312.28 574.76 316.59 575.01 320.81 575.08 C 321.86 579.36 322.92 583.63 324.17 587.86 C 325.45 592.34 328.48 596.14 330.49 600.51 C 333.31 606.64 335.76 612.90 337.25 619.49 C 330.41 620.03 325.63 624.49 319.11 626.08 C 301.85 630.65 284.72 635.65 267.53 640.46 C 259.76 642.59 251.84 644.35 244.14 646.70 C 246.46 638.74 251.11 632.35 255.44 625.42 C 258.10 621.39 258.75 616.94 260.27 612.27 C 262.80 604.01 262.73 595.33 260.32 587.06 C 261.43 583.52 265.43 580.47 268.36 578.33 C 277.07 577.31 286.09 578.62 294.85 577.78 C 299.33 577.25 303.62 575.72 308.07 575.17 Z" fill="#ffffff" />
<path d="M 325.06 577.79 C 326.73 578.43 328.33 579.23 329.89 580.11 C 335.33 583.40 341.99 584.74 347.96 587.11 C 353.25 589.29 358.65 591.13 363.97 593.25 C 364.18 597.84 363.94 602.08 362.58 606.49 C 360.26 614.71 361.14 622.65 361.01 631.04 C 360.99 636.14 359.87 641.12 358.79 646.09 C 356.97 646.06 355.13 646.04 353.33 645.81 C 350.76 642.91 349.25 638.91 347.47 635.50 C 343.87 628.53 341.58 621.16 339.48 613.63 C 337.55 605.64 333.25 597.93 329.21 590.82 C 327.06 586.83 325.99 582.20 325.06 577.79 Z" fill="#ffffff" />
<path d="M 668.14 593.19 C 676.07 592.74 683.47 592.10 690.48 596.53 C 693.81 598.45 694.84 602.20 696.71 605.35 C 698.70 608.67 700.15 612.43 702.51 615.49 C 706.11 619.42 712.69 623.09 714.80 628.24 C 715.08 630.95 715.96 635.99 713.64 637.94 C 708.58 639.05 705.18 635.11 700.89 633.08 C 695.42 629.82 689.93 630.22 683.85 629.11 C 679.66 628.34 675.43 628.19 671.21 627.69 C 665.28 626.44 661.43 619.44 655.63 618.38 C 652.63 618.04 649.63 618.84 646.59 618.42 C 643.17 617.94 639.45 617.31 636.38 615.66 C 634.43 614.75 635.10 612.79 634.86 611.00 C 635.02 609.20 634.50 606.37 636.27 605.29 C 641.41 601.68 648.04 599.54 653.49 596.50 C 657.78 594.09 663.30 593.80 668.14 593.19 Z" fill="#060606" />
<path d="M 669.40 599.34 C 675.45 598.28 683.50 599.44 687.98 603.96 C 690.74 608.89 693.43 613.92 696.21 618.86 C 697.79 621.68 700.94 623.75 703.25 626.03 C 693.01 624.10 682.65 621.70 672.26 620.95 C 669.76 619.99 667.83 616.96 665.68 615.31 C 661.92 612.00 657.40 611.81 652.64 612.04 C 648.94 612.32 645.40 611.65 641.83 610.77 C 643.66 610.13 646.14 609.94 647.51 608.51 C 652.96 602.63 661.66 600.14 669.40 599.34 Z" fill="#ffffff" />
<path d="M 338.64 623.13 C 341.42 631.79 345.93 639.62 349.05 648.13 C 346.28 651.07 343.66 654.09 341.41 657.46 C 337.28 662.90 333.12 669.11 332.10 676.02 C 331.73 682.32 332.13 688.67 331.96 695.00 C 331.64 703.19 333.68 711.07 332.88 719.30 C 327.06 717.39 321.59 714.75 315.58 713.38 C 310.20 712.13 305.93 709.17 300.86 707.19 C 296.10 705.34 291.25 703.55 286.67 701.29 C 283.37 699.67 280.44 697.34 277.08 696.06 C 275.37 695.37 273.54 694.87 271.90 694.03 C 269.26 692.28 268.07 689.11 264.93 688.11 C 259.84 686.36 254.41 685.73 249.36 683.61 C 246.12 682.62 244.70 678.55 243.16 675.81 C 240.04 669.69 241.48 664.02 240.51 657.38 C 240.39 655.19 239.65 653.20 241.47 651.50 C 246.90 648.46 253.95 647.62 259.91 645.84 C 268.98 643.00 278.75 642.07 287.96 639.91 C 295.40 637.69 302.69 634.02 310.35 632.43 C 316.80 631.29 323.36 630.94 329.59 628.55 C 332.85 627.31 335.62 624.99 338.64 623.13 Z" fill="#ffffff" />
<path d="M 705.25 626.25 C 705.77 626.77 705.77 626.77 705.25 626.25 Z" fill="#ffffff" />
</svg>